<svg viewBox="0 0 1281.857177734375 400" xmlns="http://www.w3.org/2000/svg"><g><g><g><g><g><line x1="61.953125" y1="377" x2="56.953125" y2="377" style="visibility: inherit;" fill="rgb(0, 0, 0)" stroke="rgb(204, 204, 204)" stroke-width="1px"></line><line x1="61.953125" y1="323.14285714285717" x2="56.953125" y2="323.14285714285717" style="visibility: inherit;" fill="rgb(0, 0, 0)" stroke="rgb(204, 204, 204)" stroke-width="1px"></line><line x1="61.953125" y1="269.2857142857143" x2="56.953125" y2="269.2857142857143" style="visibility: inherit;" fill="rgb(0, 0, 0)" stroke="rgb(204, 204, 204)" stroke-width="1px"></line><line x1="61.953125" y1="215.42857142857144" x2="56.953125" y2="215.42857142857144" style="visibility: inherit;" fill="rgb(0, 0, 0)" stroke="rgb(204, 204, 204)" stroke-width="1px"></line><line x1="61.953125" y1="161.57142857142858" x2="56.953125" y2="161.57142857142858" style="visibility: inherit;" fill="rgb(0, 0, 0)" stroke="rgb(204, 204, 204)" stroke-width="1px"></line><line x1="61.953125" y1="107.71428571428571" x2="56.953125" y2="107.71428571428571" style="visibility: inherit;" fill="rgb(0, 0, 0)" stroke="rgb(204, 204, 204)" stroke-width="1px"></line><line x1="61.953125" y1="53.85714285714292" x2="56.953125" y2="53.85714285714292" style="visibility: inherit;" fill="rgb(0, 0, 0)" stroke="rgb(204, 204, 204)" stroke-width="1px"></line><line x1="61.953125" y1="0" x2="56.953125" y2="0" style="visibility: inherit;" fill="rgb(0, 0, 0)" stroke="rgb(204, 204, 204)" stroke-width="1px"></line></g><g transform="translate(51.953125, 0)"><text x="0" y="377" dx="0em" dy="0.3em" style="text-anchor: end; visibility: hidden; font-family: Roboto, sans-serif; font-size: 12px; font-weight: 200;" fill="rgb(33, 33, 33)" stroke="none" stroke-width="1px">0</text><text x="0" y="323.14285714285717" dx="0em" dy="0.3em" style="text-anchor: end; visibility: inherit; font-family: Roboto, sans-serif; font-size: 12px; font-weight: 200;" fill="rgb(33, 33, 33)" stroke="none" stroke-width="1px">5e-3</text><text x="0" y="269.2857142857143" dx="0em" dy="0.3em" style="text-anchor: end; visibility: inherit; font-family: Roboto, sans-serif; font-size: 12px; font-weight: 200;" fill="rgb(33, 33, 33)" stroke="none" stroke-width="1px">0.01</text><text x="0" y="215.42857142857144" dx="0em" dy="0.3em" style="text-anchor: end; visibility: inherit; font-family: Roboto, sans-serif; font-size: 12px; font-weight: 200;" fill="rgb(33, 33, 33)" stroke="none" stroke-width="1px">0.015</text><text x="0" y="161.57142857142858" dx="0em" dy="0.3em" style="text-anchor: end; visibility: inherit; font-family: Roboto, sans-serif; font-size: 12px; font-weight: 200;" fill="rgb(33, 33, 33)" stroke="none" stroke-width="1px">0.02</text><text x="0" y="107.71428571428571" dx="0em" dy="0.3em" style="text-anchor: end; visibility: inherit; font-family: Roboto, sans-serif; font-size: 12px; font-weight: 200;" fill="rgb(33, 33, 33)" stroke="none" stroke-width="1px">0.025</text><text x="0" y="53.85714285714292" dx="0em" dy="0.3em" style="text-anchor: end; visibility: inherit; font-family: Roboto, sans-serif; font-size: 12px; font-weight: 200;" fill="rgb(33, 33, 33)" stroke="none" stroke-width="1px">0.03</text><text x="0" y="0" dx="0em" dy="0.3em" style="text-anchor: end; visibility: hidden; font-family: Roboto, sans-serif; font-size: 12px; font-weight: 200;" fill="rgb(33, 33, 33)" stroke="none" stroke-width="1px">0.035</text></g><line x1="61.953125" y1="0" x2="61.953125" y2="377" fill="rgb(0, 0, 0)" stroke="rgb(204, 204, 204)" stroke-width="1px"></line></g></g><g transform="translate(61, 0)" clip-path="url(#clip_0)"><clipPath id="clip_0"><rect width="1219" height="377"></rect></clipPath><g><g><g><line x1="0" y1="0" x2="0" y2="377" fill="rgb(0, 0, 0)" stroke="rgb(66, 66, 66)" stroke-width="1px" opacity="0.25"></line><line x1="101.65890624999999" y1="0" x2="101.65890624999999" y2="377" fill="rgb(0, 0, 0)" stroke="rgb(66, 66, 66)" stroke-width="1px" opacity="0.25"></line><line x1="203.31781249999997" y1="0" x2="203.31781249999997" y2="377" fill="rgb(0, 0, 0)" stroke="rgb(66, 66, 66)" stroke-width="1px" opacity="0.25"></line><line x1="304.97671875" y1="0" x2="304.97671875" y2="377" fill="rgb(0, 0, 0)" stroke="rgb(66, 66, 66)" stroke-width="1px" opacity="0.25"></line><line x1="406.63562499999995" y1="0" x2="406.63562499999995" y2="377" fill="rgb(0, 0, 0)" stroke="rgb(66, 66, 66)" stroke-width="1px" opacity="0.25"></line><line x1="508.29453125" y1="0" x2="508.29453125" y2="377" fill="rgb(0, 0, 0)" stroke="rgb(66, 66, 66)" stroke-width="1px" opacity="0.25"></line><line x1="609.9534375" y1="0" x2="609.9534375" y2="377" fill="rgb(0, 0, 0)" stroke="rgb(66, 66, 66)" stroke-width="1px" opacity="0.25"></line><line x1="711.61234375" y1="0" x2="711.61234375" y2="377" fill="rgb(0, 0, 0)" stroke="rgb(66, 66, 66)" stroke-width="1px" opacity="0.25"></line><line x1="813.2712499999999" y1="0" x2="813.2712499999999" y2="377" fill="rgb(0, 0, 0)" stroke="rgb(66, 66, 66)" stroke-width="1px" opacity="0.25"></line><line x1="914.93015625" y1="0" x2="914.93015625" y2="377" fill="rgb(0, 0, 0)" stroke="rgb(66, 66, 66)" stroke-width="1px" opacity="0.25"></line><line x1="1016.5890625" y1="0" x2="1016.5890625" y2="377" fill="rgb(0, 0, 0)" stroke="rgb(66, 66, 66)" stroke-width="1px" opacity="0.25"></line><line x1="1118.24796875" y1="0" x2="1118.24796875" y2="377" fill="rgb(0, 0, 0)" stroke="rgb(66, 66, 66)" stroke-width="1px" opacity="0.25"></line><line x1="1219.906875" y1="0" x2="1219.906875" y2="377" fill="rgb(0, 0, 0)" stroke="rgb(66, 66, 66)" stroke-width="1px" opacity="0.25"></line></g><g><line x1="0" y1="377" x2="1219.906875" y2="377" fill="rgb(0, 0, 0)" stroke="rgb(66, 66, 66)" stroke-width="1px" opacity="0.25"></line><line x1="0" y1="323.14285714285717" x2="1219.906875" y2="323.14285714285717" fill="rgb(0, 0, 0)" stroke="rgb(66, 66, 66)" stroke-width="1px" opacity="0.25"></line><line x1="0" y1="269.2857142857143" x2="1219.906875" y2="269.2857142857143" fill="rgb(0, 0, 0)" stroke="rgb(66, 66, 66)" stroke-width="1px" opacity="0.25"></line><line x1="0" y1="215.42857142857144" x2="1219.906875" y2="215.42857142857144" fill="rgb(0, 0, 0)" stroke="rgb(66, 66, 66)" stroke-width="1px" opacity="0.25"></line><line x1="0" y1="161.57142857142858" x2="1219.906875" y2="161.57142857142858" fill="rgb(0, 0, 0)" stroke="rgb(66, 66, 66)" stroke-width="1px" opacity="0.25"></line><line x1="0" y1="107.71428571428571" x2="1219.906875" y2="107.71428571428571" fill="rgb(0, 0, 0)" stroke="rgb(66, 66, 66)" stroke-width="1px" opacity="0.25"></line><line x1="0" y1="53.85714285714292" x2="1219.906875" y2="53.85714285714292" fill="rgb(0, 0, 0)" stroke="rgb(66, 66, 66)" stroke-width="1px" opacity="0.25"></line><line x1="0" y1="0" x2="1219.906875" y2="0" fill="rgb(0, 0, 0)" stroke="rgb(66, 66, 66)" stroke-width="1px" opacity="0.25"></line></g></g></g><g><g><line x1="0" y1="377" x2="1219.906875" y2="377" fill="rgb(0, 0, 0)" stroke="rgb(153, 153, 153)" stroke-width="1.5px"></line></g></g><g><g><line x1="101.65890624999999" y1="0" x2="101.65890624999999" y2="377" fill="rgb(0, 0, 0)" stroke="rgb(153, 153, 153)" stroke-width="1.5px"></line></g></g><g><g><g><g><g><path stroke="rgb(255, 112, 67)" stroke-width="2px" d="M132.15657812499998,-4.211486243152605L133.17316718749998,3.385362096536511L134.18975625,6.144540871809529L135.2063453125,6.251943467917134L136.222934375,5.9339775506804875L137.2395234375,8.057160365205943L138.25611249999997,9.78559313969433L139.27270156249998,11.90740585338495L140.289290625,12.346773012537815L141.30587968749998,16.060823915545487L142.32246874999998,16.353670912110857L143.3390578125,19.837038913029414L145.3722359375,23.250566627655186L146.38882499999997,25.167131885508923L147.4054140625,28.80959708630424L148.422003125,30.603535933651237L149.43859218749998,29.843781777957368L150.45518124999998,31.72922582996552L151.47177031249998,37.31584785871659L152.488359375,45.46847493802562L153.5049484375,44.72652757207482L154.5215375,46.22881215325708L155.5381265625,45.50376756410523L156.55471562499997,50.97304740971857L157.5713046875,55.89018756747467L158.58789375,57.900022232707606L159.60448281249998,61.20220595677194L160.62107187499998,61.81613474195086L161.6376609375,64.7792769370211L163.67083906249997,69.09865892260625L164.687428125,72.56886217449907L165.7040171875,77.18534626720978L166.72060624999997,84.26006102401092L168.75378437499998,85.34851575993343L169.77037343749998,90.01841556320875L170.78696250000002,94.09567019771855L171.8035515625,99.31869420070247L172.820140625,101.55188893387286L173.83672968749997,105.34361124614901L174.85331875,109.18918755655652L175.86990781249997,113.00438231232866L176.88649687499998,117.62036615015926L177.9030859375,120.03275660941685L178.91967499999998,122.01534461028899L179.9362640625,123.14774094167159L180.952853125,127.71981357080564L181.9694421875,129.11715953333024L182.98603124999997,132.54199765620905L184.0026203125,140.795688942916L185.019209375,142.04485950903617L186.03579843749998,145.0663916871L187.05238749999998,150.60959320268753L188.06897656249998,151.44607782194618L189.085565625,153.78685479914054L190.10215468749996,157.09774844977204L191.11874375,158.70013570609314L192.1353328125,160.86162117699078L193.15192187499997,164.9148715470987L194.1685109375,166.54922338590708L196.20168906249998,171.12648676707047L197.21827812499996,172.15289412406165L198.2348671875,174.69996430215627L199.25145625,175.71500198769715L200.26804531249996,179.3202209626752L201.284634375,179.31325234843854L202.30122343749997,182.30076532799427L203.31781249999997,183.9928841417764L204.3344015625,184.58223460299746L205.35099062499998,185.86012324970181L206.36757968749998,187.26323377231913L207.38416875,188.26970782789257L208.4007578125,191.1439287529577L209.41734687499996,193.68230297874828L210.43393593749997,197.12851991311138L211.450525,202.2148612110853L212.46711406249997,204.41595590866703L213.48370312499998,206.26581967583698L214.50029218749998,207.0587049177543L215.51688124999998,209.06312683955935L216.53347031249996,208.93035143328802L218.5666484375,210.50725272850622L219.58323749999997,210.7144081906719L220.5998265625,211.66731377638834L221.61641562499997,209.85254983168176L222.63300468749998,212.87425038127336L223.64959374999998,214.0916380259459L224.66618281249998,214.05239238621044L225.682771875,215.66954143214969L226.69936093749996,219.69043501366997L227.71595,219.52851442400794L228.7325390625,220.49422200563063L229.74912812499997,221.55655531866003L230.7657171875,223.64591581053273L231.78230624999998,224.8806725574282L232.79889531249998,226.0511591522117L233.81548437499998,225.8296863608491L234.8320734375,226.7457105684325L235.8486625,227.31748305581564L236.86525156249996,227.63594888215223L237.881840625,230.58953888838187L238.89842968749997,229.69648159986974L239.91501874999997,230.03861537415958L240.9316078125,233.94689169259942L241.94819687499998,233.5549638574673L242.96478593749998,235.6455144791729L243.98137499999999,236.25516129104145L244.9979640625,236.71848534386064L246.01455312499996,237.05312262295394L247.0311421875,239.72671277670432L248.04773125,240.76392878586785L249.06432031249997,241.17335014254976L250.08090937499998,240.7422340873973L251.09749843749998,243.63832949185945L252.11408749999998,243.4609119667258L253.13067656249996,241.49477356557784L255.1638546875,242.67314799188983L257.19703281249997,245.93026044233855L258.213621875,248.48577031012053L259.2302109375,245.48050989901145L260.2468,246.11457306986696L261.2633890625,247.14411649569408L262.27997812499996,249.45711129073734L263.2965671875,248.36284315215778L264.31315624999996,249.7252611095485L265.3297453125,248.8129181331689L266.34633437499997,249.53230418915467L267.3629234375,249.7810744456601L268.3795125,252.1334568588654L269.39610156249995,252.13499062062198L270.412690625,252.1806441210051L271.42927968749996,253.495192362465L272.44586875,255.66381426114546L273.46245781249996,256.3484286420779L274.479046875,256.43126182830895L275.49563593749997,257.3178401483263L276.51222499999994,259.1814919420835L277.5288140625,257.65414584629275L278.54540312499995,257.6177086584634L279.5619921875,259.44258133360375L280.57858125,261.0798132543227L281.5951703125,261.71810609503495L282.61175937499996,262.94090149473067L283.6283484375,264.31063906822584L284.64493749999997,261.2281418241074L285.66152656249994,263.62827350522L286.678115625,263.7206050581374L287.6947046875,264.1520874575757L288.71129375,263.0542530990659L289.72788281249996,266.5112636684446L290.744471875,266.93605806140795L291.76106093749996,265.1539710704436L293.79423906249997,264.84584209031425L294.810828125,265.9006188579508L295.8274171875,267.33873947583567L296.84400625,267.163301425202L297.8605953125,267.00905192146666L298.87718437499996,268.88775436473725L299.8937734375,267.7017158097454L300.91036249999996,267.71596859936193L301.9269515625,269.35498038216144L302.94354062499997,269.0772815631849L303.9601296875,268.5207310805079L304.97671875,271.14686707535384L305.9933078125,269.0235371995423L308.02648593749996,270.73306763903736L309.043075,272.2475571774203L310.05966406249996,274.0201907541011L311.076253125,273.4648552421977L312.0928421875,272.40511190925116L313.10943124999994,272.1544380743491L314.1260203125,271.71869683405595L315.142609375,275.2656048029541L316.1591984375,276.493495068628L317.1757875,278.3158289634116L318.19237656249993,278.8478688282668L319.20896562499996,276.35943970109986L320.2255546875,277.55434134234855L321.24214374999997,278.10495716240496L322.25873281249994,277.5356981152683L323.275321875,278.59271060620654L324.29191093749995,278.5156202076711L325.3085,278.8346232530207L326.3250890625,279.6172518538332L327.34167812499993,279.57607232160456L328.35826718749996,278.3379934339776L329.37485625,280.77157554339834L330.39144531249997,281.9002221032384L331.408034375,280.5074422030008L332.4246234375,281.0895749086013L333.44121249999995,282.0913748373057L334.4578015625,283.3337596876814L335.474390625,282.50189435153146L336.49097968749993,281.3954294815085L337.50756874999996,283.22470659452637L338.5241578125,285.7087024553041L339.54074687499997,283.54091741463066L340.5573359375,285.0390394613093L341.57392500000003,285.87902274680664L342.59051406249995,285.7817823586019L343.607103125,285.4951493133823L344.62369218749996,285.1837091461083L345.64028125,284.94953165571025L347.67345937499994,285.3178477473267L348.69004843749997,285.3213466845279L349.7066375,286.88076321011164L350.7232265624999,286.47160695670135L351.73981562499995,285.9125029936404L352.7564046875,286.7835822200332L353.77299374999996,287.950784911589L354.7895828125,289.4702208454382L355.806171875,288.420156338426L356.82276093749994,289.4437147975213L357.83934999999997,289.42365141810455L358.8559390625,289.3096233612387L359.872528125,289.802254010887L360.88911718749995,292.6344476563639L361.90570625,294.4577232402167L363.938884375,293.37223305158284L364.9554734375,293.0837805956323L365.97206249999994,292.14165687201734L366.98865156249997,292.5706339444162L368.005240625,293.0849113107417L369.0218296875,293.97302763491746L370.03841875,294.10846254553894L371.0550078124999,293.0684792103814L372.07159687499995,293.91588307335655L374.10477499999996,294.33558519772356L375.12136406249994,295.2724735427257L376.13795312499997,295.455423294591L377.15454218749994,293.43779397254417L378.17113125,295.04173911615493L380.2043093749999,297.28488420484746L381.22089843749995,296.97172689545835L382.2374875,297.0855150597528L383.25407656249996,296.37475218573337L384.270665625,296.31685216673264L385.28725468749997,297.66782548673353L386.30384374999994,298.571551570962L387.3204328125,299.36705891619334L388.337021875,298.48237289599984L389.3536109375,297.27099442272265L390.37019999999995,298.71629774891665L391.3867890625,300.1117738108663L392.40337812499996,298.4939455293826L393.4199671875,297.9994060075494L394.4365562499999,299.8360944533645L395.45314531249994,300.39322708385413L396.469734375,300.20707140978794L397.48632343749995,300.83734272766657L398.5029125,302.92129347191525L399.5195015625,302.9834140696814L400.53609062499993,302.25588359565256L401.55267968749996,302.84744543085355L402.56926875,303.208762677013L403.58585781249997,303.36245780421103L404.60244687499994,303.79950566920184L405.6190359375,303.4845318956697L406.63562499999995,303.77675301726094L407.6522140625,304.68196023831877L408.668803125,305.74965889224904L409.68539218749993,306.2915985080059L410.70198124999996,305.56436136596705L411.7185703125,306.0727078958351L412.73515937499997,306.2367467097554L413.7517484375,305.7618618016566L414.7683375,306.59197957610127L415.78492656249995,305.65621697269614L416.801515625,305.50254096370867L418.83469374999993,305.9755479933735L419.85128281249996,306.9748373252444L420.86787187499993,307.23241909960376L421.88446093749997,306.7262178730422L422.90105,307.6553397857732L423.9176390624999,306.75137851587453L424.93422812499995,308.27835163892223L425.9508171875,308.24090245659556L426.96740624999995,307.73401742562044L427.9839953125,309.06910216164647L429.00058437499996,308.51889646774055L430.01717343749993,309.9228262512417L431.03376249999997,312.0126188438681L432.0503515625,310.87523610222195L433.0669406249999,312.0755631821879L434.08352968749995,312.02079049844997L435.10011875,312.04547659899185L436.11670781249995,310.71736603904424L437.133296875,310.85557014857073L438.1498859375,311.06330670952826L439.16647499999993,312.7569747799467L440.18306406249997,312.4234178188598L441.199653125,313.54116279003523L442.2162421875,313.84920486303105L443.23283124999995,313.8180361149086L444.2494203125,314.20270649494114L445.26600937499995,313.51215759563416L446.2825984375,313.7617646070768L448.31577656249993,308.0488737277657L449.33236562499997,310.9664642965563L450.34895468749994,311.8797911272762L451.36554375,312.56623236038195L452.3821328125,315.3769192801078L453.3987218749999,314.37610061396975L454.41531093749995,316.4146019218298L455.4319,317.96145694690534L456.44848906249996,318.1462549762327L457.465078125,318.7084126879044L458.48166718749997,316.05293175228894L459.49825624999994,315.5227980575725L460.5148453125,316.5496925416363L461.531434375,318.01896898486285L462.5480234374999,318.8213187292358L463.56461249999995,319.85239010896845L464.5812015625,318.85895085562635L465.59779062499996,317.410648395211L466.6143796875,318.37122366723275L467.63096874999997,319.66129639512985L468.64755781249994,319.53108087170705L469.664146875,319.58558233373515L470.68073593749995,319.71852772878924L471.697325,320.183140098096L472.71391406249995,318.9724847300383L473.7305031249999,319.89689585430045L474.74709218749996,320.7529401792274L475.76368125,318.73780030069435L476.7802703124999,319.4662701178055L477.79685937499994,318.4639431352635L480.8466265625,320.3619446886994L481.863215625,320.35901465338407L482.8798046874999,320.7873426105325L483.89639374999996,321.3498159140793L484.9129828125,318.73848313163967L485.92957187499997,316.2688909328399L486.94616093749994,318.4073482823792L487.96274999999997,321.26293182336394L488.97933906249995,321.72160235004065L489.995928125,323.3440304747181L491.0125171875,323.65061372417813L492.0291062499999,324.35572923212413L493.04569531249996,324.737157055671L494.062284375,322.76608556935145L495.07887343749996,321.85658511328074L496.0954625,321.6576236528172L497.1120515624999,322.4054830384603L498.12864062499995,323.130230227849L499.1452296875,323.223257255187L500.16181874999995,323.2391112926954L501.1784078124999,323.6290950373537L502.19499687499996,323.84280123812886L503.21158593749993,324.60808645339563L504.22817499999996,325.231323614131L505.2447640625,325.9281253255583L506.2613531249999,326.2019568908235L507.27794218749995,325.67523596389924L508.29453125,325.0714989931897L509.31112031249995,325.3824544037718L510.327709375,326.5920738754304L511.34429843749996,328.1356938800081L512.3608875,327.1221412841427L513.3774765625,327.20898809149975L514.3940656249999,326.31677853278245L515.4106546874999,326.5489902647338L516.42724375,325.8535555789642L517.4438328125,326.2263453187977L518.460421875,326.91481473511493L519.4770109374999,327.6845645495928L520.4936,328.1762566638481L521.5101890625,328.2365006519849L522.526778125,328.1848899555586L523.5433671874999,327.2834570765638L524.5599562499999,325.639129195009L525.5765453125,325.1268340533342L526.593134375,325.74201590927635L527.6097234375,325.6244965138481L528.6263124999999,326.2339217485881L529.6429015624999,328.04100814783806L530.659490625,328.4793746316175L531.6760796875,326.7007160080857L532.6926687499999,326.1707410842496L533.7092578124999,324.3332062151792L534.725846875,325.2634717311803L535.7424359375,325.6873791460855L536.759025,327.3485154810773L537.7756140624999,328.6933886817318L538.7922031249999,327.82837151866767L539.8087921875,327.7696325080065L540.82538125,329.13181140359194L541.8419703124999,329.79129642363245L542.8585593749999,330.2988566580083L543.8751484375,329.60145321666056L544.8917375,328.5677444732632L545.9083265625,328.60076783214396L546.9249156249999,330.01801819379904L547.9415046874999,331.2796971639824L548.95809375,330.70903649020045L549.9746828125,331.4487046591852L550.9912718749999,331.04780846512233L552.0078609375,329.39242944694536L553.0244499999999,329.5277634210151L554.0410390625,329.5570218007678L555.057628125,329.5776986857516L556.0742171874999,330.98757928343196L557.0908062499999,331.55543564142585L559.123984375,330.6450210711127L560.1405734374999,331.3674842332547L561.1571625,331.82220721098537L562.1737515624999,331.7456257336645L563.190340625,332.7729556799204L564.2069296875,331.9237761485312L565.2235187499999,332.31538968204717L566.2401078125,330.97475289611714L568.2732859375,330.84848795078557L569.2898749999999,331.5833364424506L570.3064640625,331.67747261657706L571.3230531249999,329.5668598115365L572.3396421875,327.95534032625335L573.35623125,329.42272482262905L574.3728203124999,330.616577135987L575.389409375,331.62772345285487L576.4059984374999,331.47162277054457L577.4225875,332.27908762617767L578.4391765624999,332.82280157167315L579.4557656249999,332.3077436128771L580.4723546875,332.3476927395515L581.48894375,333.524206324973L582.5055328125,333.13861511302065L583.5221218749999,332.8624890221566L584.5387109375,332.47794831045076L585.5552999999999,333.67147890860116L587.5884781249999,333.2864163351399L588.6050671874999,334.72498851334535L589.62165625,334.8328149390718L590.6382453125,334.30667726254893L591.654834375,334.5631752928623L592.6714234374999,333.86601693390696L593.6880125,334.1791433508585L594.7046015625,333.63046757031964L595.721190625,333.93389962830406L596.7377796874999,335.24158798958814L597.7543687499999,335.8053296142533L598.7709578125,335.2106318617378L599.787546875,334.15254699171953L600.8041359375,333.4339496439011L601.8207249999999,334.70979001185447L603.853903125,335.31953242127645L604.8704921875,335.4341757067032L605.8870812499999,334.9959427871952L606.9036703124999,334.1060293926558L607.920259375,333.17778638619467L608.9368484375,333.57589011092523L609.9534375,334.91355075540014L610.9700265624999,335.50189264253896L611.986615625,335.2616576441295L613.0032046874999,335.5757705625012L614.01979375,335.7489169369238L615.0363828124999,336.01973583941526L617.0695609375,335.96276122641484L618.08615,335.57873785798756L619.1027390624998,336.6675733115078L620.1193281249999,337.2302293751972L621.1359171874999,336.2421994128003L622.15250625,336.047233636909L623.1690953125,331.04767162290074L624.185684375,332.5902245038816L625.2022734374999,332.19635828910964L627.2354515625,333.991476740625L628.252040625,335.15546023384206L629.2686296875,336.42209754639293L630.28521875,337.74246833667075L631.3018078124999,336.5421253694929L632.318396875,335.3744186237613L633.3349859374999,335.7978116127092L634.351575,337.5783272016531L635.3681640625,337.4119791764183L637.4013421875,338.1183127217816L638.4179312499999,338.16407621426913L639.4345203124999,338.36716987164084L640.451109375,338.5378121059272L641.4676984375,337.29796139276823L642.4842874999999,337.3493240059594L643.5008765624999,337.27241242362567L644.5174656249999,337.22296003744816L645.5340546875,336.54545810826824L646.55064375,337.0084623774737L647.5672328125,337.2392755720526L648.5838218749999,337.93183093338837L649.6004109374999,337.73048136882477L650.617,338.33436983410155L651.6335890624999,337.8445442582543L652.650178125,337.8644948681135L653.6667671875,339.38141003376313L654.6833562499999,339.0967977243938L655.6999453125,338.1249750404524L656.7165343749999,337.4913970277162L657.7331234375,337.7354089750193L658.7497125,339.4460090164278L659.7663015625,339.232109975581L660.7828906249999,339.5516045680942L661.7994796874999,339.22502488761387L662.81606875,338.92012406477727L663.8326578125,339.25047526796016L664.849246875,340.0089730727038L665.8658359374999,340.4706545404155L666.8824249999999,339.24482126030256L667.8990140624999,337.5157711997207L668.915603125,337.46200002474046L669.9321921874999,336.5611046487282L670.94878125,337.20965491673206L671.9653703124999,337.95984209985477L672.9819593749999,339.0030049417714L673.9985484375,339.2056392104719L675.0151374999999,339.5314355744767L676.0317265625,338.4568923550158L677.048315625,338.0103441611883L678.0649046874998,338.84585531036083L679.0814937499999,339.6241034307524L680.0980828124999,339.54154726400213L681.114671875,340.8571278547514L682.1312609375,340.08573021956323L683.1478500000001,338.69690086162626L684.1644390624999,340.5495580358299L685.1810281249999,341.0770099353445L686.1976171875,340.33289431709534L687.21420625,339.71909761716165L688.2307953124999,338.9443802822059L689.2473843749999,340.22494288603303L690.2639734374999,339.73045212114613L691.2805625,340.38832867994336L692.2971515625,340.67432631018414L694.3303296875,337.15691298884036L696.3635078125,338.33468240381836L697.3800968749999,339.7780933075044L698.3966859374999,341.272766712523L699.413275,341.17050123566094L700.4298640625,341.3952483183366L701.4464531249998,341.3792131599448L702.4630421874999,340.7565945511131L703.4796312499999,341.3646267570596L704.4962203125,342.8324287017353L705.512809375,342.29607163006636L706.5293984375,341.2794415353171L707.5459874999999,342.6400083909207L708.5625765624999,342.5568563958867L709.579165625,342.85101151058547L710.5957546875,342.107905985629L711.61234375,342.3233868369679L712.6289328124999,341.1921452772366L713.6455218749999,341.0716981431606L714.6621109375,341.8008031651193L715.6786999999999,341.89428306612547L716.6952890625,343.43234327165334L717.711878125,342.73928126477455L718.7284671874999,341.92745273473673L719.74505625,342.251878967468L720.7616453124999,341.5377181571797L721.7782343749999,340.78187408480926L722.7948234375,340.79818306376865L723.8114125,340.9412773684283L724.8280015624999,341.22519231214557L725.8445906249999,341.1175084012926L726.8611796874999,341.1449376659714L727.87776875,341.93987624576994L728.8943578125,342.62313977841325L729.910946875,343.22812970269706L730.9275359374999,342.47747736607096L731.9441249999999,340.4132112226646L732.9607140625,340.20439490788596L733.9773031249999,340.95371967760065L734.9938921875,341.2881137979468L736.01048125,342.2917035613067L737.0270703124999,343.2658830746391L738.043659375,339.9300845811465L739.0602484374999,337.51764890698786L740.0768375,339.7985927849262L741.0934265625,340.2680682702766L742.1100156249998,341.4597719060297L743.1266046874999,342.5321102983475L744.1431937499999,342.80044105884895L745.1597828125,342.3680278428216L746.176371875,343.4724482700206L747.1929609375,344.33797409106444L748.2095499999999,344.4543523262944L749.2261390624999,344.39438645209196L750.2427281249999,343.84973080416427L751.2593171875,344.31845924202406L752.2759062499999,344.12480084234613L753.2924953125,344.1183483098779L754.3090843749999,344.2890479916023L755.3256734374999,343.7603631142063L756.3422625,344.3457711691344L757.3588515624999,345.45127654795385L758.375440625,345.3345558827023L759.3920296875,345.25461519855946L760.4086187499998,344.91933961516264L761.4252078124999,344.8814768862635L762.4417968749999,344.3490047204994L763.4583859375,344.8764676179377L764.474975,344.7155610355412L765.4915640624998,345.28505707929156L766.5081531249999,345.3887090865394L767.5247421874999,345.96912556533596L768.54133125,345.3614842665085L769.5579203125,345.0434314097952L770.5745093749999,345.9689053838971L771.5910984374999,346.3485792856656L772.6076874999999,344.81383846471306L773.6242765625,344.427295005119L774.640865625,343.9328841447254L775.6574546874999,343.29706269795076L776.67404375,343.68513770800456L777.6906328124999,344.6227249077911L778.707221875,344.44060395320554L779.7238109374999,344.30113503677256L780.7403999999999,344.78747350043335L782.773578125,345.37051214264034L783.7901671874998,345.89015251858183L784.8067562499999,346.5645837868895L785.8233453124999,342.4378588951019L786.839934375,342.58761578698L787.8565234375,343.21781503902446L788.8731124999998,342.3128503057369L789.8897015624999,341.93842165588103L790.9062906249999,342.43875960755037L791.9228796875,342.9681209370356L792.93946875,344.4469632553333L793.9560578125,344.58492964000294L794.9726468749999,345.24848524582L795.9892359374999,345.6462494436854L797.005825,346.2869865084561L798.0224140624999,346.5869730821176L799.039003125,347.0126086356509L800.0555921875,346.1057562638681L801.0721812499999,345.82678099702963L802.0887703125,346.8066913741982L803.1053593749999,346.47573821444246L804.1219484374999,346.6413421885393L805.1385375,346.3719301834153L806.1551265625,347.53136223236265L807.1717156249999,347.3620754311185L808.1883046874999,347.37997056305755L809.2048937499999,345.7459253113801L810.2214828125,341.88956151169833L811.238071875,343.3819501697686L812.2546609375,343.73570503814017L813.2712499999999,343.7992263453654L814.2878390624999,345.10375779321924L816.3210171874999,345.65220696524466L817.33760625,346.1400166839955L818.3541953124999,346.3553442598172L819.3707843749999,347.46652538019003L820.3873734375,348.0011901292955L821.4039624999999,348.0670841274414L822.4205515625,348.12695372755417L823.437140625,347.32163731356655L824.4537296874998,347.0643597737605L825.4703187499999,346.76612900458986L826.4869078124999,346.5042426385773L827.503496875,346.4133620042933L828.5200859375,346.22382433759594L829.536675,345.9884044836308L830.5532640624999,344.6042892828364L831.5698531249999,345.52046411698166L832.5864421874999,343.53873110903646L833.60303125,345.38269889782873L834.6196203124999,345.58473614487656L835.636209375,345.4289337993181L836.6527984374999,346.84420120272137L837.6693874999999,346.64521316012883L838.6859765625,346.56841382171257L839.7025656249999,346.20315642825096L840.7191546875,344.79564881714265L841.7357437499999,345.18495395257605L842.7523328124998,345.64376116954577L843.7689218749999,347.2474047379988L844.7855109374999,347.67626994070054L845.8021,347.13688249493623L846.8186890625,346.13593142254854L847.8352781249998,345.53520528815983L848.8518671874999,347.1014429974978L849.8684562499999,346.47418789385875L850.8850453125,347.72046622185525L851.901634375,348.1066776221057L852.9182234374999,347.62988534301877L853.9348124999999,348.45717136720464L854.9514015624999,348.54025604564595L855.967990625,348.12505246308916L856.9845796875,348.4068556880332L858.0011687499999,349.06836744940824L859.0177578125,348.03122355082274L860.0343468749999,348.39271444680054L861.0509359375,348.33836353833107L862.0675249999999,348.33470942195174L864.100703125,347.40005173252007L865.1172921874999,348.2171938961207L866.1338812499998,348.3121258828743L867.1504703124999,348.5454228540269L868.1670593749999,349.0004768753908L869.1836484375,348.351782976253L870.2002375,346.8983754981324L871.2168265624998,346.81806287121645L872.2334156249999,346.97179785704026L873.2500046874999,348.4125396830464L874.26659375,348.4568321814143L876.299771875,348.4625949651644L877.3163609374999,348.87528075594577L878.3329499999999,347.988348957881L879.3495390625,347.9329642740865L880.3661281249999,349.6111461772736L881.3827171875,349.64953024210257L882.39930625,348.7890460207225L883.4158953124999,348.17039629305367L884.432484375,348.29038934570957L885.4490734374999,348.09608033098226L886.4656624999999,348.0417053489448L887.4822515625,348.448364380491L888.498840625,348.1057987576677L889.5154296874999,348.49671667270724L890.5320187499999,349.38783350143694L891.5486078124999,351.1649014173891L892.565196875,351.2767577383784L893.5817859375,351.49272553119977L894.5983749999999,351.08145047773843L895.6149640624999,350.27978135941237L896.6315531249999,350.77254350597065L897.6481421875,350.4417427791449L898.6647312499999,347.4332669009528L900.6979093749999,347.47960917924837L901.7144984374999,348.1907972984442L902.7310875,347.2387979442562L903.7476765624999,348.1309146914337L904.764265625,348.37929890983173L905.7808546875,347.84989330739216L906.7974437499998,348.88955457806L907.8140328124999,349.4180815300523L908.8306218749999,349.68177401822163L909.8472109375,349.43816877910876L910.8638,347.71896683196144L911.8803890625,347.3913712791157L912.8969781249999,345.23842272463327L913.9135671874999,348.05303230955786L914.93015625,349.80312569994766L915.9467453125,350.19564358520785L917.9799234374999,350.8607326919675L918.9965124999999,350.7475206994489L920.0131015624999,350.3578726840175L921.029690625,350.3800721469317L922.0462796874999,350.89260707578114L923.06286875,350.50150215133374L924.0794578124999,349.52587463230356L925.0960468749998,349.2371146751457L926.1126359374999,348.69659407829465L927.1292249999999,349.3685794883682L928.1458140625,350.36488045333533L929.162403125,350.32441078407504L930.1789921874998,349.75438983417456L931.1955812499999,349.14373202823174L932.2121703124999,349.02429410020625L933.228759375,349.3790015894607L934.2453484375,349.81374979778315L935.2619374999999,350.1393652202609L936.2785265624999,351.1453529674535L937.2951156249999,350.53534873480095L938.3117046875,349.75395762331266L939.32829375,346.2148406695884L940.3448828124999,346.1201954265018L941.3614718749999,347.98341261335406L942.3780609374999,350.3915557179428L943.39465,349.7481639320939L944.4112390624999,351.13985194625195L945.4278281249999,350.3881347215875L946.4444171875,349.4316755164472L947.4610062499999,350.2407335477357L948.4775953124998,350.9979314469737L949.4941843749999,351.1170477991155L950.5107734374999,350.82778661750433L951.5273625,349.2940140844403L952.5439515625,350.30288773385223L953.5605406249998,350.7991636080425L954.5771296874999,349.0520665652425L955.5937187499999,349.9225837921296L956.6103078125,350.4275242837102L958.6434859375,351.1282254159478L959.6600749999999,351.809199782569L960.6766640624999,351.59391155032273L961.693253125,351.5162994120297L963.72643125,351.9599780599044L964.7430203125,352.36484506113925L965.7596093749999,352.2422732362238L966.7761984374999,352.5925924686969L967.7927874999999,352.3559361047716L969.825965625,351.41664786290016L970.8425546874998,351.0606734012333L971.8591437499999,350.7360360801933L972.8757328124999,351.2961211497445L973.8923218749999,351.2438540934581L974.9089109375,351.23530990037244L975.9254999999999,352.19450117728155L976.9420890624999,352.4006607198862L977.9586781249999,349.38634932029703L978.9752671874999,345.36384713621584L982.025034375,347.37865602846784L983.0416234374999,349.398918252124L984.0582124999999,351.32356323602244L985.0748015624999,352.3577133204189L986.0913906249999,352.8259235539566L987.1079796875,352.73833311853423L988.12456875,352.9197034643618L989.1411578124998,352.41809726992415L990.1577468749999,351.0704075600839L991.1743359374999,351.2448506950732L993.2075140625,351.3716584882206L994.2241031249998,351.2530183286536L995.2406921874999,351.7610851933912L996.2572812499999,352.2861376233185L997.2738703125,352.895332891098L998.290459375,352.8929363798635L999.3070484374999,351.512905624345L1000.3236374999999,352.1271009000578L1001.3402265624999,352.2373495936783L1002.3568156249999,351.40018964927316L1003.3734046874999,349.98812913945443L1004.3899937499999,349.85174431714233L1005.4065828125,350.2227402052196L1006.4231718749999,350.3727746230908L1007.4397609374998,349.57217116575436L1009.4729390624999,350.46195226062366L1010.489528125,351.7101062433364L1011.5061171875,352.337930365014L1012.5227062499998,352.30925289320146L1013.5392953124999,353.35631378947863L1014.5558843749999,354.25417264835255L1015.5724734375,354.71156619361767L1016.5890625,354.30603234425365L1017.6056515624998,354.01167889966393L1018.6222406249999,353.6267380435439L1019.6388296874999,352.89004972829736L1021.6720078124999,353.00029547280946L1022.6885968749999,353.21976904027645L1023.7051859374999,353.0248930810144L1024.721775,353.1370046806783L1025.7383640624998,353.3267272890223L1026.754953125,353.01633337365126L1027.7715421875,353.853864527141L1028.7881312499999,352.4383440915827L1030.8213093749998,352.19294165003373L1031.8378984375,352.03173208140606L1032.8544875,352.65523743954975L1033.8710765624999,352.59041978028733L1034.887665625,353.25494117843357L1035.9042546874998,352.866670148948L1036.92084375,352.9858353600251L1037.9374328125,352.55269109644996L1038.9540218749999,353.4083969743716L1039.9706109375,353.8926804927773L1040.9872,353.803191583493L1042.0037890625,353.2251305691234L1043.020378125,351.7118078297404L1044.0369671874998,350.3475284832477L1045.05355625,349.9951097206713L1046.0701453125,350.4349619263418L1047.0867343749999,351.7803670207139L1048.1033234375,352.08670448906787L1049.1199124999998,347.6897544371511L1050.1365015625,348.2025404167131L1051.153090625,349.8938848932401L1052.1696796874999,351.8235903333869L1053.18626875,352.1641180211623L1054.2028578124998,352.32537066115003L1055.219446875,353.0556154732929L1057.2526249999999,353.4992948291147L1058.2692140625,353.6257110572041L1059.2858031249998,354.09355048497457L1060.3023921875,353.80111648365397L1061.31898125,353.5198359602875L1062.3355703124998,354.6900564469338L1063.352159375,355.0927171700732L1064.3687484375,354.50816607798635L1065.3853374999999,352.13346883359L1066.4019265625,353.00588089508L1067.4185156249998,351.7195277636394L1068.4351046875,349.75096017910766L1069.45169375,350.7936332260337L1070.4682828124999,351.95505086369485L1071.484871875,352.02253825856974L1072.5014609374998,352.58934852183387L1073.51805,352.74200989393563L1074.5346390625,352.85259968669686L1075.5512281249999,354.07966245171883L1077.5844062499998,353.7024544530274L1078.6009953125,354.4933444666831L1079.617584375,354.31933974117703L1080.6341734374998,354.6051429650483L1081.6507625,354.39621276409775L1082.6673515624998,353.75375291663363L1083.6839406249999,352.9694055884699L1085.7171187499998,353.75234521659223L1086.7337078125,353.75976215281577L1087.750296875,353.8111565389586L1088.7668859374999,353.98815767891466L1089.783475,354.74223400289736L1090.8000640624998,354.73026542850437L1091.816653125,355.34591534668135L1093.8498312499999,355.8753701957528L1094.8664203125,355.5038419817154L1095.8830093749998,350.86333168855606L1096.8995984375,350.0672773339315L1097.9161875,351.61162804823476L1098.9327765625,352.63003732781704L1099.949365625,353.3976081173528L1100.9659546874998,354.2282280951854L1101.9825437499999,355.2491605445067L1104.015721875,354.2238038629314L1105.0323109375,351.7608145814934L1106.0488999999998,352.2377449710887L1107.0654890624999,353.5494412981233L1108.082078125,354.8074371878107L1109.0986671874998,354.5680726969591L1110.11525625,355.0155323072668L1111.1318453125,355.1579691107424L1112.1484343749999,355.92650948372244L1113.1650234375,355.77724192118836L1114.1816124999998,354.43276503823347L1115.1982015625,353.77507636163494L1116.214790625,354.52378213714024L1117.2313796875,354.36220803488425L1118.24796875,354.14027292081624L1119.2645578124998,353.59740120829633L1120.2811468749999,354.32424160540563L1121.2977359375,354.7764837985833L1122.314325,355.1632786415023L1123.3309140625,355.03921605181705L1124.3475031249998,355.29902887948845L1125.3640921874999,356.0483046739842L1126.38068125,356.069272872853L1128.413859375,356.05776071931285L1129.4304484374998,354.5648108102999L1130.4470374999999,354.6481654093466L1131.4636265625,354.257169703144L1132.480215625,354.14074239658345L1133.4968046875,354.61130536395666L1134.51339375,354.54300702562375L1135.5299828124998,354.0893801042251L1136.546571875,354.30222839561264L1138.5797499999999,354.8800616187752L1139.5963390625,355.07003870689704L1140.612928125,354.3110937161845L1141.6295171875,354.06402040026194L1142.6461062499998,354.30425100284924L1143.6626953124999,355.03814950717924L1144.679284375,355.78390645373855L1145.6958734375,354.9884215941156L1146.7124625,355.4025121778324L1147.7290515624998,355.31146556809995L1148.7456406249999,356.3838280269956L1149.7622296875,356.4375967111433L1150.77881875,356.4420230341487L1151.7954078125,355.9920235881229L1152.8119968749997,354.9611514979229L1153.8285859374998,354.9051423583957L1154.845175,354.87238154167983L1155.8617640625,355.1871369430937L1156.8783531249999,354.92762348499997L1157.8949421875,355.1985334385759L1158.9115312499998,355.22463659829566L1159.9281203125,355.59797584527877L1160.944709375,356.30543739170815L1161.9612984374999,354.4467929601643L1162.9778875,353.8207818524098L1163.9944765625,354.48089844024514L1165.011065625,355.4034823385237L1166.0276546875,355.48388924706416L1167.0442437499999,354.8982268590451L1168.0608328125,354.99307041333014L1169.077421875,355.4111599673214" style="fill: none;" fill="none"></path></g></g></g></g><g opacity="0.2"><g><g><g><path stroke="rgb(255, 112, 67)" stroke-width="2px" d="M131.13998906249998,-6.020330539771464L132.15657812499998,1.1967370467526872L133.17316718749998,14.780627608299298L134.18975625,10.283307509762949L135.2063453125,6.413047326462645L136.222934375,5.4570287380899885L137.2395234375,11.241934333528844L138.25611249999997,12.378242177622695L139.27270156249998,15.090124832732386L140.289290625,13.005823739937398L141.30587968749998,21.63190021259446L142.32246874999998,16.79294140424051L143.3390578125,25.062090895005653L145.3722359375,28.370858188186403L146.38882499999997,28.041979768446538L147.4054140625,34.273294883115L148.422003125,33.29444420337681L149.43859218749998,28.70415054474563L150.45518124999998,34.55739190748763L151.47177031249998,45.69578090097227L152.488359375,57.69741555622649L153.5049484375,43.613606523190256L154.5215375,48.482239024979776L155.5381265625,44.416200680392166L156.55471562499997,59.17696717807226L157.5713046875,63.26589780407295L158.58789375,60.91477423054833L159.60448281249998,66.15548154285979L160.62107187499998,62.737027919718216L161.6376609375,69.2239902296237L163.67083906249997,75.57773190098152L164.687428125,77.77416705233712L165.7040171875,84.11007240627498L166.72060624999997,94.87213315921173L168.75378437499998,86.98119786381726L169.77037343749998,97.02326526812148L170.78696250000002,100.21155214948315L171.8035515625,107.1532302051783L172.820140625,104.90168103362836L173.83672968749997,111.03119471456327L174.85331875,114.95755202216763L175.86990781249997,118.72717444598679L176.88649687499998,124.54434190690522L177.9030859375,123.65134229830336L178.91967499999998,124.9892266115972L179.9362640625,124.8463354387454L180.952853125,134.57792251450675L181.9694421875,131.213178477117L182.98603124999997,137.67925484052728L184.0026203125,153.17622587297643L185.019209375,143.9186153582164L186.03579843749998,149.59868995419572L187.05238749999998,158.92439547606878L188.06897656249998,152.7008047508342L189.085565625,157.2980202649321L190.10215468749996,162.06408892571926L191.11874375,161.10371659057483L192.1353328125,164.10384938333715L193.15192187499997,170.9947471022606L194.1685109375,169.00075114411968L196.20168906249998,177.9923818388156L197.21827812499996,173.69250515954838L198.2348671875,178.5205695692982L199.25145625,177.2375585160085L200.26804531249996,184.7280494251422L201.284634375,179.30279942708358L202.30122343749997,186.7820347973279L203.31781249999997,186.53106236244955L204.3344015625,185.4662602948291L205.35099062499998,187.77695621975832L206.36757968749998,189.36789955624513L207.38416875,189.7794189112527L208.4007578125,195.45526014055528L209.41734687499996,197.4898643174342L210.43393593749997,202.29784531465597L211.450525,209.84437315804618L212.46711406249997,207.7175979550396L213.48370312499998,209.0406153265919L214.50029218749998,208.24803278063024L215.51688124999998,212.06975972226687L216.53347031249996,208.73118832388096L218.5666484375,212.8726046713335L219.58323749999997,211.02514138392038L220.5998265625,213.09667215496302L221.61641562499997,207.13040391462192L222.63300468749998,217.40680120566063L223.64959374999998,215.91771949295486L224.66618281249998,213.99352392660722L225.682771875,218.09526500105858L226.69936093749996,225.72177538595028L227.71595,219.28563353951492L228.7325390625,221.94278337806463L229.74912812499997,223.15005528820413L230.7657171875,226.7799565483417L231.78230624999998,226.73280767777138L232.79889531249998,227.806889044387L233.81548437499998,225.49747717380524L234.8320734375,228.11974687980756L235.8486625,228.1751417868904L236.86525156249996,228.11364762165718L237.881840625,235.0199238977262L238.89842968749997,228.35689566710167L239.91501874999997,230.55181603559427L240.9316078125,239.8093061702592L241.94819687499998,232.96707210476913L242.96478593749998,238.78134041173118L243.98137499999999,237.16963150884428L244.9979640625,237.4134714230895L246.01455312499996,237.55507854159393L247.0311421875,243.73709800732988L248.04773125,242.31975279961313L249.06432031249997,241.78748217757263L250.08090937499998,240.0955600046686L251.09749843749998,247.9824725985527L252.11408749999998,243.1947856790253L253.13067656249996,238.54556596385584L255.1638546875,244.44070963135786L257.19703281249997,250.81592911801167L258.213621875,252.31903511179345L259.2302109375,240.9726192823478L260.2468,247.06566782615013L261.2633890625,248.68843163443464L262.27997812499996,252.92660348330224L263.2965671875,246.72144094428845L264.31315624999996,251.76888804563455L265.3297453125,247.4444036685995L266.34633437499997,250.6113832731332L267.3629234375,250.1542298304183L268.3795125,255.66203047867336L269.39610156249995,252.13729126325674L270.412690625,252.24912437157974L271.42927968749996,255.4670147246548L272.44586875,258.91674710916624L273.46245781249996,257.3753502134766L274.479046875,256.5555116076555L275.49563593749997,258.6477076283523L276.51222499999994,261.97696963271926L277.5288140625,255.36312670260668L278.54540312499995,257.56305287671944L279.5619921875,262.1798903463142L280.57858125,263.535661135401L281.5951703125,262.6755453561034L282.61175937499996,264.77509459427426L283.6283484375,266.3652454284685L284.64493749999997,256.60439595792974L285.66152656249994,267.22847102688894L286.678115625,263.8591023875134L287.6947046875,264.79931105673313L288.71129375,261.4075015613011L289.72788281249996,271.69677952251266L290.744471875,267.57324965085303L291.76106093749996,262.4808405839971L293.79423906249997,264.38364862012014L294.810828125,267.4827840094056L295.8274171875,269.4959204026631L296.84400625,266.9001443492515L297.8605953125,266.77767766586373L298.87718437499996,271.70580802964315L299.8937734375,265.9226579772575L300.91036249999996,267.7373477837869L301.9269515625,271.8134980563607L302.94354062499997,268.66073333472013L303.9601296875,267.6859053564923L304.97671875,275.08607106762275L305.9933078125,265.8385423858251L308.02648593749996,273.2973632982799L309.043075,274.51929148499454L310.05966406249996,276.6791411191225L311.076253125,272.63185197434257L312.0928421875,270.81549690983127L313.10943124999994,271.778427321996L314.1260203125,271.06508497361625L315.142609375,280.5859667563013L316.1591984375,278.335330467139L317.1757875,281.04932980558704L318.19237656249993,279.6459286255496L319.20896562499996,272.6267960103495L320.2255546875,279.3466938042215L321.24214374999997,278.93088089248965L322.25873281249994,276.6818095445633L323.275321875,280.1782293426139L324.29191093749995,278.39998460986783L325.3085,279.31312782104527L326.3250890625,280.79119475505183L327.34167812499993,279.5143030232617L328.35826718749996,276.480875102537L329.37485625,284.4219487075295L330.39144531249997,283.5931919429984L331.408034375,278.4182723526444L332.4246234375,281.96277396700214L333.44121249999995,283.5940747303622L334.4578015625,285.1973369632449L335.474390625,281.2540963473065L336.49097968749993,279.7357321764742L337.50756874999996,285.9686222640531L338.5241578125,289.4346962464707L339.54074687499997,280.28923985362053L340.5573359375,287.2862225313272L341.57392500000003,287.13899767505274L342.59051406249995,285.6359217762947L343.607103125,285.0651997455529L344.62369218749996,284.71654889519726L345.64028125,284.5982654201133L347.67345937499994,285.8703218847513L348.69004843749997,285.32659509032965L349.7066375,289.21988799848725L350.7232265624999,285.85787257658586L351.73981562499995,285.073847049049L352.7564046875,288.0902010596224L353.77299374999996,289.7015889489225L354.7895828125,291.74937474621197L355.806171875,286.8450595779078L356.82276093749994,290.9790524861642L357.83934999999997,289.3935563489795L358.8559390625,289.13858127593994L359.872528125,290.5411999853594L360.88911718749995,296.8827381245792L361.90570625,297.19263661599587L363.938884375,291.743997768632L364.9554734375,292.6511019117066L365.97206249999994,290.72847128659487L366.98865156249997,293.21409955301453L368.005240625,293.85632736022984L369.0218296875,295.30520212118114L370.03841875,294.3116149114711L371.0550078124999,291.50850420764516L372.07159687499995,295.1869888678193L374.10477499999996,294.9651383842741L375.12136406249994,296.67780606022905L376.13795312499997,295.729847922389L377.15454218749994,290.4113499894738L378.17113125,297.44765683157107L380.2043093749999,300.6496018378862L381.22089843749995,296.5019909313747L382.2374875,297.2561973061945L383.25407656249996,295.30860787470425L384.270665625,296.2300021382315L385.28725468749997,299.69428546673487L386.30384374999994,299.9271406973047L387.3204328125,300.5603199340403L388.337021875,297.15534386570965L389.3536109375,295.4539267128067L390.37019999999995,300.8842527382076L391.3867890625,302.2049879037908L392.40337812499996,296.06720310715696L393.4199671875,297.2575967247997L394.4365562499999,302.59112712208713L395.45314531249994,301.2289260295885L396.469734375,299.92783789868867L397.48632343749995,301.78274970448444L398.5029125,306.04721958828827L399.5195015625,303.07659496633073L400.53609062499993,301.1645878846092L401.55267968749996,303.73478818365504L402.56926875,303.75073854625225L403.58585781249997,303.5930004950081L404.60244687499994,304.455077466688L405.6190359375,303.0120712353715L406.63562499999995,304.2150846996478L407.6522140625,306.0397710699056L408.668803125,307.3512068731444L409.68539218749993,307.1045079316412L410.70198124999996,304.4735056529088L411.7185703125,306.8352276906371L412.73515937499997,306.4828049306359L413.7517484375,305.0495344395084L414.7683375,307.8371562377683L415.78492656249995,304.25257306758846L416.801515625,305.27202695022737L418.83469374999993,306.68505853787065L419.85128281249996,308.47377132305076L420.86787187499993,307.61879176114286L421.88446093749997,305.9669160331999L422.90105,309.04902265486976L423.9176390624999,305.3954366110265L424.93422812499995,310.5688113234937L425.9508171875,308.18472868310556L426.96740624999995,306.97368987915775L427.9839953125,311.0717292656856L429.00058437499996,307.69358792688166L430.01717343749993,312.0287209264934L431.03376249999997,315.14730773280775L432.0503515625,309.16916198975275L433.0669406249999,313.8760538021369L434.08352968749995,311.93863147284304L435.10011875,312.0825057498046L436.11670781249995,308.7252001991229L437.133296875,311.06287631286045L438.1498859375,311.3749115509646L439.16647499999993,315.2974768855742L440.18306406249997,311.92308237722943L441.199653125,315.2177802467985L442.2162421875,314.31126797252466L443.23283124999995,313.7712829927249L444.2494203125,314.77971206499L445.26600937499995,312.4763342466738L446.2825984375,314.13617512424076L448.31577656249993,299.47953740879893L449.33236562499997,315.3428501497422L450.34895468749994,313.2497813733561L451.36554375,313.59589421004057L452.3821328125,319.59294965969667L453.3987218749999,312.87487261476264L454.41531093749995,319.4723538836198L455.4319,320.28173948451877L456.44848906249996,318.42345202022364L457.465078125,319.551649255412L458.48166718749997,312.06971034886584L459.49825624999994,314.7275975154979L460.5148453125,318.0900342677321L461.531434375,320.22288364970257L462.5480234374999,320.0248433457954L463.56461249999995,321.3989971785673L464.5812015625,317.36879197561314L465.59779062499996,315.23819470458795L466.6143796875,319.8120865752654L467.63096874999997,321.5964054869754L468.64755781249994,319.33575758657287L469.664146875,319.66733452677727L470.68073593749995,319.9179458213704L471.697325,320.8800586520561L472.71391406249995,317.15650167795167L473.7305031249999,321.2835125406938L474.74709218749996,322.03700666661774L475.76368125,315.7150904828949L476.7802703124999,320.55897484347224L477.79685937499994,316.9604526614504L480.8466265625,323.2089470188533L481.863215625,320.35461960041096L482.8798046874999,321.4298345462552L483.89639374999996,322.1935258693993L484.9129828125,314.8214839579804L485.92957187499997,312.56450263464023L486.94616093749994,321.61503430668796L487.96274999999997,325.5463071348412L488.97933906249995,322.40960814005564L489.995928125,325.77767266173447L491.0125171875,324.110488598368L492.0291062499999,325.4134024940431L493.04569531249996,325.3092987909913L494.062284375,319.8094783398722L495.07887343749996,320.49233442917466L496.0954625,321.35918146212185L497.1120515624999,323.527272116925L498.12864062499995,324.2173510119319L499.1452296875,323.36279779619406L500.16181874999995,323.2628923489579L501.1784078124999,324.2140706543412L502.19499687499996,324.1633605392916L503.21158593749993,325.7560142762959L504.22817499999996,326.1661793552339L505.2447640625,326.97332789269944L506.2613531249999,326.61270423872134L507.27794218749995,324.8851545735129L508.29453125,324.16589353712544L509.31112031249995,325.84888751964485L510.327709375,328.4065030829183L511.34429843749996,330.45112388687477L512.3608875,325.6018123903445L513.3774765625,327.3392583025353L514.3940656249999,324.97846419470653L515.4106546874999,326.89730786266074L516.42724375,324.8104035503098L517.4438328125,326.785529928548L518.460421875,327.9475188595908L519.4770109374999,328.8391892713096L520.4936,328.91379483523116L521.5101890625,328.3268666341901L522.526778125,328.1074739109193L523.5433671874999,325.9313077580716L524.5599562499999,323.17263737267683L525.5765453125,324.358391340822L526.593134375,326.6647886931896L527.6097234375,325.44821742070576L528.6263124999999,327.1480596006981L529.6429015624999,330.751637746713L530.659490625,329.13692435728655L531.6760796875,324.032728072788L532.6926687499999,325.3757786984955L533.7092578124999,321.57690391157354L534.725846875,326.6588700051819L535.7424359375,326.3232402684433L536.759025,329.84021998356496L537.7756140624999,330.71069848271355L538.7922031249999,326.53084577407157L539.8087921875,327.6815239920148L540.82538125,331.17507974697014L541.8419703124999,330.78052395369326L542.8585593749999,331.060197009572L543.8751484375,328.55534805463896L544.8917375,327.01718135816714L545.9083265625,328.65030287046517L546.9249156249999,332.1438937362816L547.9415046874999,333.17221561925754L548.95809375,329.85304547952757L549.9746828125,332.5582069126623L550.9912718749999,330.44646417402794L552.0078609375,326.9093609196799L553.0244499999999,329.7307643821197L554.0410390625,329.60090937039683L555.057628125,329.6087140132274L556.0742171874999,333.1024001799524L557.0908062499999,332.4072201784168L559.123984375,329.2793992156429L560.1405734374999,332.4511789764677L561.1571625,332.5042916775814L562.1737515624999,331.63075351768305L563.190340625,334.3139505993043L564.2069296875,330.6500068514475L565.2235187499999,332.9028099823211L566.2401078125,328.9637977172222L568.2732859375,330.65909053278824L569.2898749999999,332.6856091799481L570.3064640625,331.81867687776685L571.3230531249999,326.40094060397576L572.3396421875,325.5380610983287L573.35623125,331.6238015671926L574.3728203124999,332.40735560602377L575.389409375,333.1444429281567L576.4059984374999,331.2374717470791L577.4225875,333.4902849096273L578.4391765624999,333.63837248991643L579.4557656249999,331.5351566746831L580.4723546875,332.40761642956306L581.48894375,335.2889767031052L582.5055328125,332.5602282950921L583.5221218749999,332.44829988586054L584.5387109375,331.901137242892L585.5552999999999,335.4617748058268L587.5884781249999,332.708822474948L588.6050671874999,336.8828467806535L589.62165625,334.9945545776614L590.6382453125,333.5174707477646L591.654834375,334.94792233833243L592.6714234374999,332.82027939547385L593.6880125,334.6488329762859L594.7046015625,332.8074538995113L595.721190625,334.38904771528075L596.7377796874999,337.2031205315143L597.7543687499999,336.65094205125104L598.7709578125,334.3185852329646L599.787546875,332.5654196866921L600.8041359375,332.3560536221734L601.8207249999999,336.6235505637846L603.853903125,336.2341460354094L604.8704921875,335.6061406348433L605.8870812499999,334.3385934079332L606.9036703124999,332.7711593008467L607.920259375,331.7854218765029L608.9368484375,334.17304569802116L609.9534375,336.9200417221125L610.9700265624999,336.38440547324717L611.986615625,334.90130514651537L613.0032046874999,336.0469399400588L614.01979375,336.0086364985577L615.0363828124999,336.42596419315254L617.0695609375,335.8772993069142L618.08615,335.0027028053467L619.1027390624998,338.30082649178803L620.1193281249999,338.0742134707315L621.1359171874999,334.7601544692048L622.15250625,335.75478497307216L623.1690953125,323.5483286018883L624.185684375,334.9040538253529L625.2022734374999,331.6055589669517L627.2354515625,336.68415441789796L628.252040625,336.90143547366773L629.2686296875,338.3220535152193L630.28521875,339.7230245220874L631.3018078124999,334.7416109187262L632.318396875,333.6228585051639L633.3349859374999,336.4329010961311L634.351575,340.24910058506896L635.3681640625,337.162457138566L637.4013421875,339.1778130398265L638.4179312499999,338.2327214530004L639.4345203124999,338.6718103576984L640.451109375,338.7937754573567L641.4676984375,335.43818532302976L642.4842874999999,337.4263679257461L643.5008765624999,337.157045050125L644.5174656249999,337.148781458182L645.5340546875,335.5292052144983L646.55064375,337.7029687812818L647.5672328125,337.5854953639209L648.5838218749999,338.9706639753921L649.6004109374999,337.42845702197934L650.617,339.24020253201684L651.6335890624999,337.10980589448343L652.650178125,337.89442078290244L653.6667671875,341.6567827822374L654.6833562499999,338.66987926033994L655.6999453125,336.6672410145402L656.7165343749999,336.5410300086119L657.7331234375,338.10142689597393L658.7497125,342.01190907854055L659.7663015625,338.9112614143108L660.7828906249999,340.0308464568641L661.7994796874999,338.7351553668933L662.81606875,338.4627728305225L663.8326578125,339.7460020727345L664.849246875,341.14671977981925L665.8658359374999,341.1631767419832L666.8824249999999,337.40607134013305L667.8990140624999,334.92219610884786L668.915603125,337.3813432622701L669.9321921874999,335.2097615847098L670.94878125,338.1824803187379L671.9653703124999,339.0851228745388L672.9819593749999,340.56774920464625L673.9985484375,339.50959061352273L675.0151374999999,340.0201301204839L676.0317265625,336.8450775258243L677.048315625,337.34052187044705L678.0649046874998,340.0991220341197L679.0814937499999,340.7914756113397L680.0980828124999,339.4177130138768L681.114671875,342.8304987408753L682.1312609375,338.928633766781L683.1478500000001,336.61365682472075L684.1644390624999,343.32854379713535L685.1810281249999,341.86818778461645L686.1976171875,339.2167208897216L687.21420625,338.79840256726106L688.2307953124999,337.7823042797723L689.2473843749999,342.1457867917738L690.2639734374999,338.9887159738158L691.2805625,341.3751435181392L692.2971515625,341.1033227555454L694.3303296875,331.8807930068246L696.3635078125,340.1013365262853L697.3800968749999,341.9432096630335L698.3966859374999,343.5147768200508L699.413275,341.01710302036787L700.4298640625,341.73236894235015L701.4464531249998,341.3551604223571L702.4630421874999,339.82266663786555L703.4796312499999,342.27667506597936L704.4962203125,345.0341316187488L705.512809375,341.4915360225631L706.5293984375,339.7544963931931L707.5459874999999,344.68085867432615L708.5625765624999,342.4321284033358L709.579165625,343.2922441826335L710.5957546875,340.99324769819424L711.61234375,342.64660811397647L712.6289328124999,339.49528293763956L713.6455218749999,340.8910274420466L714.6621109375,342.8944606980575L715.6786999999999,342.0345029176346L716.6952890625,345.73943357994517L717.711878125,341.6996882544564L718.7284671874999,340.70970993967995L719.74505625,342.7385183165648L720.7616453124999,340.4664769417473L721.7782343749999,339.6481079762535L722.7948234375,340.8226465322077L723.8114125,341.15591882541776L724.8280015624999,341.65106472772146L725.8445906249999,340.95598253501316L726.8611796874999,341.18608156298956L727.87776875,343.13228411546777L728.8943578125,343.64803507737815L729.910946875,344.1356145891228L730.9275359374999,341.3514988611319L731.9441249999999,337.316812007555L732.9607140625,339.89117043571815L733.9773031249999,342.0777068321726L734.9938921875,341.78970497846603L736.01048125,343.79708820634653L737.0270703124999,344.7271523446377L738.043659375,334.9263868409076L739.0602484374999,333.8989953957498L740.0768375,343.2200086018337L741.0934265625,340.9722814983023L742.1100156249998,343.2473273596593L743.1266046874999,344.14061788682426L744.1431937499999,343.20293719960114L745.1597828125,341.7194080187806L746.176371875,345.12907891081915L747.1929609375,345.63626282263016L748.2095499999999,344.62891967913936L749.2261390624999,344.3044376407883L750.2427281249999,343.0327473322728L751.2593171875,345.0215518988137L752.2759062499999,343.8343132428293L753.2924953125,344.1086695111756L754.3090843749999,344.54509751418874L755.3256734374999,342.9673357981124L756.3422625,345.22388325152656L757.3588515624999,347.10953461618294L758.375440625,345.1594748848251L759.3920296875,345.13470417234515L760.4086187499998,344.4164262400674L761.4252078124999,344.82468279291476L762.4417968749999,343.55029647185336L763.4583859375,345.6676619640951L764.474975,344.47420116194655L765.4915640624998,346.1393011449171L766.5081531249999,345.54418709741105L767.5247421874999,346.8397502835308L768.54133125,344.45002231826743L769.5579203125,344.5663521247251L770.5745093749999,347.3571163450501L771.5910984374999,346.9180901383183L772.6076874999999,342.5117272332843L773.6242765625,343.8474798157279L774.640865625,343.19126785413494L775.6574546874999,342.34333052778885L776.67404375,344.2672502230853L777.6906328124999,346.0291057074709L778.707221875,344.16742252132724L779.7238109374999,344.0919316621231L780.7403999999999,345.51698119592453L782.773578125,346.24507010595073L783.7901671874998,346.66961308249404L784.8067562499999,347.57623068935106L785.8233453124999,336.2477715574205L786.839934375,342.8122511247971L787.8565234375,344.1631139170911L788.8731124999998,340.9554032058056L789.8897015624999,341.3767786810973L790.9062906249999,343.18926653505434L791.9228796875,343.76216293126345L792.93946875,346.66522673277984L793.9560578125,344.79187921700736L794.9726468749999,346.24381865454575L795.9892359374999,346.2428957404835L797.005825,347.24809210561216L798.0224140624999,347.0369529426098L799.039003125,347.65106196595093L800.0555921875,344.7454777061939L801.0721812499999,345.40831809677184L802.0887703125,348.27655693995104L803.1053593749999,345.97930847480893L804.1219484374999,346.8897481496845L805.1385375,345.9678121757295L806.1551265625,349.2705103057836L807.1717156249999,347.10814522925233L808.1883046874999,347.40681326096615L809.2048937499999,343.2948574338641L810.2214828125,336.1050158121756L811.238071875,345.62053315687393L812.2546609375,344.26633734069765L813.2712499999999,343.89450830620314L814.2878390624999,347.06055496500005L816.3210171874999,346.4748807232827L817.33760625,346.8717312621219L818.3541953124999,346.6783356235496L819.3707843749999,349.1332970607494L820.3873734375,348.80318725295365L821.4039624999999,348.16592512466013L822.4205515625,348.21675812772344L823.437140625,346.1136626925852L824.4537296874998,346.6784434640514L825.4703187499999,346.3187828508339L826.4869078124999,346.1114130895585L827.503496875,346.2770410528673L828.5200859375,345.93951783754994L829.536675,345.6352747026831L830.5532640624999,342.52811648164476L831.5698531249999,346.8947263681995L832.5864421874999,340.5661315971187L833.60303125,348.14865058101714L834.6196203124999,345.8877920154482L835.636209375,345.19523028098047L836.6527984374999,348.9671023078263L837.6693874999999,346.34673109624003L838.6859765625,346.4532148140882L839.7025656249999,345.6552703380585L840.7191546875,342.68438740048026L841.7357437499999,345.7689116557262L842.7523328124998,346.33197199500034L843.7689218749999,349.65287009067833L844.7855109374999,348.3195677447532L845.8021,346.3278013262898L846.8186890625,344.634504813967L847.8352781249998,344.6341160865767L848.8518671874999,349.4507995615048L849.8684562499999,345.5333052384002L850.8850453125,349.58988371385L851.901634375,348.68599472248127L852.9182234374999,346.9146969243884L853.9348124999999,349.6981004034834L854.9514015624999,348.66488306330785L855.967990625,347.502247089254L856.9845796875,348.82956052544927L858.0011687499999,350.06063509147083L859.0177578125,346.4755077029445L860.0343468749999,348.9349507907672L861.0509359375,348.25683717562686L862.0675249999999,348.32922824738284L864.100703125,345.9980651983725L865.1172921874999,349.4429071415216L866.1338812499998,348.4545238630048L867.1504703124999,348.89536831075594L868.1670593749999,349.6830579074366L869.1836484375,347.3787421275463L870.2002375,344.7182642809515L871.2168265624998,346.69759393084263L872.2334156249999,347.20240033577596L873.2500046874999,350.5736524220556L874.26659375,348.52327092896616L876.299771875,348.4712391407894L877.3163609374999,349.4943094421178L878.3329499999999,346.6579512607839L879.3495390625,347.84988724839474L880.3661281249999,352.1284190320543L881.3827171875,349.70710633934607L882.39930625,347.49831968865226L883.4158953124999,347.2424217015505L884.432484375,348.47037892469336L885.4490734374999,347.8046168088913L886.4656624999999,347.96014287588855L887.4822515625,349.0583529278104L888.498840625,347.5919503234327L889.5154296874999,349.0830935452666L890.5320187499999,350.7245087445315L891.5486078124999,353.8305032913174L892.565196875,351.44454221986234L893.5817859375,351.8166772204318L894.5983749999999,350.4645378975464L895.6149640624999,349.07727768192336L896.6315531249999,351.51168672580803L897.6481421875,349.9455416889063L898.6647312499999,342.92055308366463L900.6979093749999,347.54912259669175L901.7144984374999,349.2575794772378L902.7310875,345.81079891297435L903.7476765624999,349.46908981219997L904.764265625,348.75187523742875L905.7808546875,347.0557849037328L906.7974437499998,350.4490464840617L907.8140328124999,350.2108719580408L908.8306218749999,350.07731275047576L909.8472109375,349.07276092043946L910.8638,345.14016391124045L911.8803890625,346.8999779498471L912.8969781249999,342.0089998929096L913.9135671874999,352.2749466869448L914.93015625,352.42826578553235L915.9467453125,350.7844204130982L917.9799234374999,351.8583663521068L918.9965124999999,350.5777027106711L920.0131015624999,349.7734006608703L921.029690625,350.413371341303L922.0462796874999,351.6614094690553L923.06286875,349.91484476466263L924.0794578124999,348.0624333537583L925.0960468749998,348.80397473940894L926.1126359374999,347.8858131830182L927.1292249999999,350.37655760347843L928.1458140625,351.85933190078606L929.162403125,350.26370628018464L930.1789921874998,348.8993584093239L931.1955812499999,348.2277453193175L932.2121703124999,348.845137208168L933.228759375,349.91106282334243L934.2453484375,350.4658721102668L935.2619374999999,350.62778835397745L936.2785265624999,352.6543345882424L937.2951156249999,349.62034238582214L938.3117046875,348.5818709560803L939.32829375,340.906165239002L940.3448828124999,345.9782275618719L941.3614718749999,350.7782383936324L942.3780609374999,354.00377037482605L943.39465,348.7830762533205L944.4112390624999,353.227383967489L945.4278281249999,349.26055888459086L946.4444171875,347.99698670873687L947.4610062499999,351.4543205946684L948.4775953124998,352.13372829583074L949.4941843749999,351.2957223273282L950.5107734374999,350.39389484508763L951.5273625,346.99335528484414L952.5439515625,351.81619820797016L953.5605406249998,351.54357741932785L954.5771296874999,346.4314210010426L955.5937187499999,351.2283596324601L956.6103078125,351.1849350210812L958.6434859375,352.17927711430406L959.6600749999999,352.8306613325008L960.6766640624999,351.2709792019533L961.693253125,351.3998812045902L963.72643125,352.62549603171647L964.7430203125,352.9721455629915L965.7596093749999,352.0584154988506L966.7761984374999,353.11807131740665L967.7927874999999,352.0009515588837L969.825965625,350.00771550009296L970.8425546874998,350.52671170873305L971.8591437499999,350.24908009863327L972.8757328124999,352.13624875407135L973.8923218749999,351.16545350902845L974.9089109375,351.222493610744L975.9254999999999,353.63328809264516L976.9420890624999,352.7099000337933L977.9586781249999,344.8648822209133L978.9752671874999,339.33009386009405L982.025034375,350.40086936684594L983.0416234374999,352.4293115876083L984.0582124999999,354.2105307118701L985.0748015624999,353.9089384470135L986.0913906249999,353.5282389042633L987.1079796875,352.6069474654006L988.12456875,353.1917589831033L989.1411578124998,351.66568797826767L990.1577468749999,349.0488729953234L991.1743359374999,351.5065153975572L993.2075140625,351.56187017794167L994.2241031249998,351.0750580893031L995.2406921874999,352.52318549049755L996.2572812499999,353.07371626820947L997.2738703125,353.8091257927673L998.290459375,352.8893416130117L999.3070484374999,349.4428594910673L1000.3236374999999,353.0483938136271L1001.3402265624999,352.402722634109L1002.3568156249999,350.1444497326655L1003.3734046874999,347.8700383747263L1004.3899937499999,349.6471670836743L1005.4065828125,350.7792340373354L1006.4231718749999,350.5978262498975L1007.4397609374998,348.3712659797498L1009.4729390624999,351.79662390292754L1010.489528125,353.58233721740544L1011.5061171875,353.2796665475305L1012.5227062499998,352.2662366854825L1013.5392953124999,354.92690513389454L1014.5558843749999,355.6009609366634L1015.5724734375,355.3976565115154L1016.5890625,353.6977315702077L1017.6056515624998,353.5701487327793L1018.6222406249999,353.0493267593639L1019.6388296874999,351.7850172554276L1021.6720078124999,353.16566408957755L1022.6885968749999,353.54897939147696L1023.7051859374999,352.7325791421213L1024.721775,353.3051720801741L1025.7383640624998,353.61131120153834L1026.754953125,352.5507425005947L1027.7715421875,355.1101612573756L1028.7881312499999,350.31506343824526L1030.8213093749998,351.82483798771034L1031.8378984375,351.7899177284645L1032.8544875,353.5904954767653L1033.8710765624999,352.49319329139377L1034.887665625,354.251723275653L1035.9042546874998,352.28426360471974L1036.92084375,353.1645831766405L1037.9374328125,351.9029747010874L1038.9540218749999,354.69195579125414L1039.9706109375,354.6191057703857L1040.9872,353.66895821956655L1042.0037890625,352.35803904756904L1043.020378125,349.4418237206659L1044.0369671874998,348.3011094635086L1045.05355625,349.46648157680676L1046.0701453125,351.09474023484756L1047.0867343749999,353.798474662272L1048.1033234375,352.5462106915989L1049.1199124999998,341.09432935927595L1050.1365015625,348.97171938605607L1051.153090625,352.4309016080307L1052.1696796874999,354.71814849360715L1053.18626875,352.67490955282534L1054.2028578124998,352.5672496211316L1055.219446875,354.15098269150724L1057.2526249999999,354.16481386284744L1058.2692140625,353.8153353993382L1059.2858031249998,354.7953096266304L1060.3023921875,353.362465481673L1061.31898125,353.09791517523786L1062.3355703124998,356.44538717690324L1063.352159375,355.6967082547822L1064.3687484375,353.63133943985616L1065.3853374999999,348.57142296699544L1066.4019265625,354.31449898731495L1067.4185156249998,349.7899980664786L1068.4351046875,346.7981088023101L1069.45169375,352.35764279642274L1070.4682828124999,353.6971773201866L1071.484871875,352.12376935088207L1072.5014609374998,353.43956391673004L1073.51805,352.97100195208833L1074.5346390625,353.01848437583874L1075.5512281249999,355.92025659925173L1077.5844062499998,353.13664245499035L1078.6009953125,355.67967948716665L1079.617584375,354.05833265291795L1080.6341734374998,355.03384780085514L1081.6507625,354.0828174626721L1082.6673515624998,352.79006314543744L1083.6839406249999,351.7928845962243L1085.7171187499998,354.9267546587757L1086.7337078125,353.77088755715107L1087.750296875,353.8882481181728L1088.7668859374999,354.25365938884875L1089.783475,355.87334848887156L1090.8000640624998,354.71231256691476L1091.816653125,356.26939022394697L1093.8498312499999,356.66955246936L1094.8664203125,354.9465496606593L1095.8830093749998,343.9025662488171L1096.8995984375,348.87319580199465L1097.9161875,353.92815411968957L1098.9327765625,354.1576512471906L1099.949365625,354.5489643016564L1100.9659546874998,355.47415806193436L1101.9825437499999,356.78055921848863L1104.015721875,352.6857688405684L1105.0323109375,348.0663306593363L1106.0488999999998,352.9531405554818L1107.0654890624999,355.5169857886753L1108.082078125,356.69443102234175L1109.0986671874998,354.2090259606817L1110.11525625,355.68672172272846L1111.1318453125,355.37162431595584L1112.1484343749999,357.0793200431924L1113.1650234375,355.5533405773874L1114.1816124999998,352.41604971380104L1115.1982015625,352.78854334673713L1116.214790625,355.6468408003982L1117.2313796875,354.11984688150034L1118.24796875,353.80737024971415L1119.2645578124998,352.78309363951644L1120.2811468749999,355.4145022010697L1121.2977359375,355.4548470883497L1122.314325,355.7434709058808L1123.3309140625,354.85312216728926L1124.3475031249998,355.6887481209955L1125.3640921874999,357.1722183657278L1126.38068125,356.1007251711562L1128.413859375,356.04049248900265L1129.4304484374998,352.32538594678044L1130.4470374999999,354.77319730791663L1131.4636265625,353.67067614383996L1132.480215625,353.96610143674275L1133.4968046875,355.3171498150166L1134.51339375,354.44055951812436L1135.5299828124998,353.4089397221272L1136.546571875,354.6215008326939L1138.5797499999999,355.7468114535191L1139.5963390625,355.35500433907976L1140.612928125,353.17267623011554L1141.6295171875,353.69341042637825L1142.6461062499998,354.66459690673014L1143.6626953124999,356.13899726367424L1144.679284375,356.90254187357743L1145.6958734375,353.7951943046813L1146.7124625,356.02364805340767L1147.7290515624998,355.17489565350115L1148.7456406249999,357.9923717153392L1149.7622296875,356.5182497373649L1150.77881875,356.4486625186567L1151.7954078125,355.3170244190842L1152.8119968749997,353.41484336262306L1153.8285859374998,354.82112864910493L1154.845175,354.823240316606L1155.8617640625,355.6592700452145L1156.8783531249999,354.53835329785943L1157.8949421875,355.60489836893976L1158.9115312499998,355.2637913378754L1159.9281203125,356.1579847157534L1160.944709375,357.3666297113523L1161.9612984374999,351.65882631284853L1162.9778875,352.881765190778L1163.9944765625,355.4710733219981L1165.011065625,356.7873581859416L1166.0276546875,355.60449960987484L1167.0442437499999,354.0197332770165L1168.0608328125,355.13533574475775L1169.077421875,356.03829429830824" style="fill: none;" fill="none"></path></g></g></g></g></g></g><g transform="translate(61, 377)" clip-path="url(#clip_1)"><clipPath id="clip_1"><rect width="1219" height="23"></rect></clipPath><g><g><line x1="0" y1="0" x2="0" y2="5" style="visibility: inherit;" fill="rgb(0, 0, 0)" stroke="rgb(204, 204, 204)" stroke-width="1px"></line><line x1="101.65890624999999" y1="0" x2="101.65890624999999" y2="5" style="visibility: inherit;" fill="rgb(0, 0, 0)" stroke="rgb(204, 204, 204)" stroke-width="1px"></line><line x1="203.31781249999997" y1="0" x2="203.31781249999997" y2="5" style="visibility: inherit;" fill="rgb(0, 0, 0)" stroke="rgb(204, 204, 204)" stroke-width="1px"></line><line x1="304.97671875" y1="0" x2="304.97671875" y2="5" style="visibility: inherit;" fill="rgb(0, 0, 0)" stroke="rgb(204, 204, 204)" stroke-width="1px"></line><line x1="406.63562499999995" y1="0" x2="406.63562499999995" y2="5" style="visibility: inherit;" fill="rgb(0, 0, 0)" stroke="rgb(204, 204, 204)" stroke-width="1px"></line><line x1="508.29453125" y1="0" x2="508.29453125" y2="5" style="visibility: inherit;" fill="rgb(0, 0, 0)" stroke="rgb(204, 204, 204)" stroke-width="1px"></line><line x1="609.9534375" y1="0" x2="609.9534375" y2="5" style="visibility: inherit;" fill="rgb(0, 0, 0)" stroke="rgb(204, 204, 204)" stroke-width="1px"></line><line x1="711.61234375" y1="0" x2="711.61234375" y2="5" style="visibility: inherit;" fill="rgb(0, 0, 0)" stroke="rgb(204, 204, 204)" stroke-width="1px"></line><line x1="813.2712499999999" y1="0" x2="813.2712499999999" y2="5" style="visibility: inherit;" fill="rgb(0, 0, 0)" stroke="rgb(204, 204, 204)" stroke-width="1px"></line><line x1="914.93015625" y1="0" x2="914.93015625" y2="5" style="visibility: inherit;" fill="rgb(0, 0, 0)" stroke="rgb(204, 204, 204)" stroke-width="1px"></line><line x1="1016.5890625" y1="0" x2="1016.5890625" y2="5" style="visibility: inherit;" fill="rgb(0, 0, 0)" stroke="rgb(204, 204, 204)" stroke-width="1px"></line><line x1="1118.24796875" y1="0" x2="1118.24796875" y2="5" style="visibility: inherit;" fill="rgb(0, 0, 0)" stroke="rgb(204, 204, 204)" stroke-width="1px"></line><line x1="1219.906875" y1="0" x2="1219.906875" y2="5" style="visibility: inherit;" fill="rgb(0, 0, 0)" stroke="rgb(204, 204, 204)" stroke-width="1px"></line></g><g transform="translate(0, 8)"><text x="0" y="0" dx="0em" dy="0.95em" style="text-anchor: middle; visibility: hidden; font-family: Roboto, sans-serif; font-size: 12px; font-weight: 200;" fill="rgb(33, 33, 33)" stroke="none" stroke-width="1px">-100</text><text x="101.65890624999999" y="0" dx="0em" dy="0.95em" style="text-anchor: middle; visibility: inherit; font-family: Roboto, sans-serif; font-size: 12px; font-weight: 200;" fill="rgb(33, 33, 33)" stroke="none" stroke-width="1px">0</text><text x="203.31781249999997" y="0" dx="0em" dy="0.95em" style="text-anchor: middle; visibility: inherit; font-family: Roboto, sans-serif; font-size: 12px; font-weight: 200;" fill="rgb(33, 33, 33)" stroke="none" stroke-width="1px">100</text><text x="304.97671875" y="0" dx="0em" dy="0.95em" style="text-anchor: middle; visibility: inherit; font-family: Roboto, sans-serif; font-size: 12px; font-weight: 200;" fill="rgb(33, 33, 33)" stroke="none" stroke-width="1px">200</text><text x="406.63562499999995" y="0" dx="0em" dy="0.95em" style="text-anchor: middle; visibility: inherit; font-family: Roboto, sans-serif; font-size: 12px; font-weight: 200;" fill="rgb(33, 33, 33)" stroke="none" stroke-width="1px">300</text><text x="508.29453125" y="0" dx="0em" dy="0.95em" style="text-anchor: middle; visibility: inherit; font-family: Roboto, sans-serif; font-size: 12px; font-weight: 200;" fill="rgb(33, 33, 33)" stroke="none" stroke-width="1px">400</text><text x="609.9534375" y="0" dx="0em" dy="0.95em" style="text-anchor: middle; visibility: inherit; font-family: Roboto, sans-serif; font-size: 12px; font-weight: 200;" fill="rgb(33, 33, 33)" stroke="none" stroke-width="1px">500</text><text x="711.61234375" y="0" dx="0em" dy="0.95em" style="text-anchor: middle; visibility: inherit; font-family: Roboto, sans-serif; font-size: 12px; font-weight: 200;" fill="rgb(33, 33, 33)" stroke="none" stroke-width="1px">600</text><text x="813.2712499999999" y="0" dx="0em" dy="0.95em" style="text-anchor: middle; visibility: inherit; font-family: Roboto, sans-serif; font-size: 12px; font-weight: 200;" fill="rgb(33, 33, 33)" stroke="none" stroke-width="1px">700</text><text x="914.93015625" y="0" dx="0em" dy="0.95em" style="text-anchor: middle; visibility: inherit; font-family: Roboto, sans-serif; font-size: 12px; font-weight: 200;" fill="rgb(33, 33, 33)" stroke="none" stroke-width="1px">800</text><text x="1016.5890625" y="0" dx="0em" dy="0.95em" style="text-anchor: middle; visibility: inherit; font-family: Roboto, sans-serif; font-size: 12px; font-weight: 200;" fill="rgb(33, 33, 33)" stroke="none" stroke-width="1px">900</text><text x="1118.24796875" y="0" dx="0em" dy="0.95em" style="text-anchor: middle; visibility: inherit; font-family: Roboto, sans-serif; font-size: 12px; font-weight: 200;" fill="rgb(33, 33, 33)" stroke="none" stroke-width="1px">1k</text><text x="1219.906875" y="0" dx="0em" dy="0.95em" style="text-anchor: middle; visibility: hidden; font-family: Roboto, sans-serif; font-size: 12px; font-weight: 200;" fill="rgb(33, 33, 33)" stroke="none" stroke-width="1px">1.1k</text></g><line x1="0" y1="0" x2="1219.906875" y2="0" fill="rgb(0, 0, 0)" stroke="rgb(204, 204, 204)" stroke-width="1px"></line></g></g></g></g></svg>