<svg viewBox="0 0 1033.17138671875 400" xmlns="http://www.w3.org/2000/svg"><g><g><g><g><g><line x1="61.953125" y1="377" x2="56.953125" y2="377" style="visibility: inherit;" fill="rgb(0, 0, 0)" stroke="rgb(204, 204, 204)" stroke-width="1px"></line><line x1="61.953125" y1="323.14285714285717" x2="56.953125" y2="323.14285714285717" style="visibility: inherit;" fill="rgb(0, 0, 0)" stroke="rgb(204, 204, 204)" stroke-width="1px"></line><line x1="61.953125" y1="269.2857142857143" x2="56.953125" y2="269.2857142857143" style="visibility: inherit;" fill="rgb(0, 0, 0)" stroke="rgb(204, 204, 204)" stroke-width="1px"></line><line x1="61.953125" y1="215.42857142857144" x2="56.953125" y2="215.42857142857144" style="visibility: inherit;" fill="rgb(0, 0, 0)" stroke="rgb(204, 204, 204)" stroke-width="1px"></line><line x1="61.953125" y1="161.57142857142858" x2="56.953125" y2="161.57142857142858" style="visibility: inherit;" fill="rgb(0, 0, 0)" stroke="rgb(204, 204, 204)" stroke-width="1px"></line><line x1="61.953125" y1="107.71428571428571" x2="56.953125" y2="107.71428571428571" style="visibility: inherit;" fill="rgb(0, 0, 0)" stroke="rgb(204, 204, 204)" stroke-width="1px"></line><line x1="61.953125" y1="53.85714285714292" x2="56.953125" y2="53.85714285714292" style="visibility: inherit;" fill="rgb(0, 0, 0)" stroke="rgb(204, 204, 204)" stroke-width="1px"></line><line x1="61.953125" y1="0" x2="56.953125" y2="0" style="visibility: inherit;" fill="rgb(0, 0, 0)" stroke="rgb(204, 204, 204)" stroke-width="1px"></line></g><g transform="translate(51.953125, 0)"><text x="0" y="377" dx="0em" dy="0.3em" style="text-anchor: end; visibility: hidden; font-family: Roboto, sans-serif; font-size: 12px; font-weight: 200;" fill="rgb(255, 255, 255)" stroke="none" stroke-width="1px">0</text><text x="0" y="323.14285714285717" dx="0em" dy="0.3em" style="text-anchor: end; visibility: inherit; font-family: Roboto, sans-serif; font-size: 12px; font-weight: 200;" fill="rgb(255, 255, 255)" stroke="none" stroke-width="1px">5e-3</text><text x="0" y="269.2857142857143" dx="0em" dy="0.3em" style="text-anchor: end; visibility: inherit; font-family: Roboto, sans-serif; font-size: 12px; font-weight: 200;" fill="rgb(255, 255, 255)" stroke="none" stroke-width="1px">0.01</text><text x="0" y="215.42857142857144" dx="0em" dy="0.3em" style="text-anchor: end; visibility: inherit; font-family: Roboto, sans-serif; font-size: 12px; font-weight: 200;" fill="rgb(255, 255, 255)" stroke="none" stroke-width="1px">0.015</text><text x="0" y="161.57142857142858" dx="0em" dy="0.3em" style="text-anchor: end; visibility: inherit; font-family: Roboto, sans-serif; font-size: 12px; font-weight: 200;" fill="rgb(255, 255, 255)" stroke="none" stroke-width="1px">0.02</text><text x="0" y="107.71428571428571" dx="0em" dy="0.3em" style="text-anchor: end; visibility: inherit; font-family: Roboto, sans-serif; font-size: 12px; font-weight: 200;" fill="rgb(255, 255, 255)" stroke="none" stroke-width="1px">0.025</text><text x="0" y="53.85714285714292" dx="0em" dy="0.3em" style="text-anchor: end; visibility: inherit; font-family: Roboto, sans-serif; font-size: 12px; font-weight: 200;" fill="rgb(255, 255, 255)" stroke="none" stroke-width="1px">0.03</text><text x="0" y="0" dx="0em" dy="0.3em" style="text-anchor: end; visibility: hidden; font-family: Roboto, sans-serif; font-size: 12px; font-weight: 200;" fill="rgb(255, 255, 255)" stroke="none" stroke-width="1px">0.035</text></g><line x1="61.953125" y1="0" x2="61.953125" y2="377" fill="rgb(0, 0, 0)" stroke="rgb(204, 204, 204)" stroke-width="1px"></line></g></g><g transform="translate(61, 0)" clip-path="url(#clip_0)"><clipPath id="clip_0"><rect width="971" height="377"></rect></clipPath><g><g><g><line x1="0" y1="0" x2="0" y2="377" fill="rgb(0, 0, 0)" stroke="rgb(189, 189, 189)" stroke-width="1px" opacity="0.25"></line><line x1="80.93473958333334" y1="0" x2="80.93473958333334" y2="377" fill="rgb(0, 0, 0)" stroke="rgb(189, 189, 189)" stroke-width="1px" opacity="0.25"></line><line x1="161.86947916666668" y1="0" x2="161.86947916666668" y2="377" fill="rgb(0, 0, 0)" stroke="rgb(189, 189, 189)" stroke-width="1px" opacity="0.25"></line><line x1="242.80421875000002" y1="0" x2="242.80421875000002" y2="377" fill="rgb(0, 0, 0)" stroke="rgb(189, 189, 189)" stroke-width="1px" opacity="0.25"></line><line x1="323.73895833333336" y1="0" x2="323.73895833333336" y2="377" fill="rgb(0, 0, 0)" stroke="rgb(189, 189, 189)" stroke-width="1px" opacity="0.25"></line><line x1="404.6736979166667" y1="0" x2="404.6736979166667" y2="377" fill="rgb(0, 0, 0)" stroke="rgb(189, 189, 189)" stroke-width="1px" opacity="0.25"></line><line x1="485.60843750000004" y1="0" x2="485.60843750000004" y2="377" fill="rgb(0, 0, 0)" stroke="rgb(189, 189, 189)" stroke-width="1px" opacity="0.25"></line><line x1="566.5431770833334" y1="0" x2="566.5431770833334" y2="377" fill="rgb(0, 0, 0)" stroke="rgb(189, 189, 189)" stroke-width="1px" opacity="0.25"></line><line x1="647.4779166666667" y1="0" x2="647.4779166666667" y2="377" fill="rgb(0, 0, 0)" stroke="rgb(189, 189, 189)" stroke-width="1px" opacity="0.25"></line><line x1="728.41265625" y1="0" x2="728.41265625" y2="377" fill="rgb(0, 0, 0)" stroke="rgb(189, 189, 189)" stroke-width="1px" opacity="0.25"></line><line x1="809.3473958333334" y1="0" x2="809.3473958333334" y2="377" fill="rgb(0, 0, 0)" stroke="rgb(189, 189, 189)" stroke-width="1px" opacity="0.25"></line><line x1="890.2821354166667" y1="0" x2="890.2821354166667" y2="377" fill="rgb(0, 0, 0)" stroke="rgb(189, 189, 189)" stroke-width="1px" opacity="0.25"></line><line x1="971.2168750000001" y1="0" x2="971.2168750000001" y2="377" fill="rgb(0, 0, 0)" stroke="rgb(189, 189, 189)" stroke-width="1px" opacity="0.25"></line></g><g><line x1="0" y1="377" x2="971.2168750000001" y2="377" fill="rgb(0, 0, 0)" stroke="rgb(189, 189, 189)" stroke-width="1px" opacity="0.25"></line><line x1="0" y1="323.14285714285717" x2="971.2168750000001" y2="323.14285714285717" fill="rgb(0, 0, 0)" stroke="rgb(189, 189, 189)" stroke-width="1px" opacity="0.25"></line><line x1="0" y1="269.2857142857143" x2="971.2168750000001" y2="269.2857142857143" fill="rgb(0, 0, 0)" stroke="rgb(189, 189, 189)" stroke-width="1px" opacity="0.25"></line><line x1="0" y1="215.42857142857144" x2="971.2168750000001" y2="215.42857142857144" fill="rgb(0, 0, 0)" stroke="rgb(189, 189, 189)" stroke-width="1px" opacity="0.25"></line><line x1="0" y1="161.57142857142858" x2="971.2168750000001" y2="161.57142857142858" fill="rgb(0, 0, 0)" stroke="rgb(189, 189, 189)" stroke-width="1px" opacity="0.25"></line><line x1="0" y1="107.71428571428571" x2="971.2168750000001" y2="107.71428571428571" fill="rgb(0, 0, 0)" stroke="rgb(189, 189, 189)" stroke-width="1px" opacity="0.25"></line><line x1="0" y1="53.85714285714292" x2="971.2168750000001" y2="53.85714285714292" fill="rgb(0, 0, 0)" stroke="rgb(189, 189, 189)" stroke-width="1px" opacity="0.25"></line><line x1="0" y1="0" x2="971.2168750000001" y2="0" fill="rgb(0, 0, 0)" stroke="rgb(189, 189, 189)" stroke-width="1px" opacity="0.25"></line></g></g></g><g><g><line x1="0" y1="377" x2="971.2168750000001" y2="377" fill="rgb(0, 0, 0)" stroke="rgb(153, 153, 153)" stroke-width="1.5px"></line></g></g><g><g><line x1="80.93473958333334" y1="0" x2="80.93473958333334" y2="377" fill="rgb(0, 0, 0)" stroke="rgb(153, 153, 153)" stroke-width="1.5px"></line></g></g><g><g><g><g><g><path stroke="rgb(255, 112, 67)" stroke-width="2px" d="M105.21516145833334,-4.211486243152605L106.02450885416667,3.385362096536511L106.83385625000001,6.144540871809529L107.64320364583335,6.251943467917134L108.45255104166667,5.9339775506804875L109.26189843750001,8.057160365205943L110.07124583333334,9.78559313969433L110.88059322916668,11.90740585338495L111.68994062500002,12.346773012537815L112.49928802083333,16.060823915545487L113.30863541666668,16.353670912110857L114.1179828125,19.837038913029414L115.73667760416667,23.250566627655186L116.546025,25.167131885508923L117.35537239583334,28.80959708630424L118.16471979166668,30.603535933651237L118.97406718750001,29.843781777957368L119.78341458333334,31.72922582996552L120.59276197916667,37.31584785871659L121.40210937500001,45.46847493802562L122.21145677083334,44.72652757207482L123.0208041666667,46.22881215325708L123.8301515625,45.50376756410523L124.63949895833333,50.97304740971857L125.44884635416669,55.89018756747467L126.25819375000002,57.900022232707606L127.06754114583335,61.20220595677194L127.87688854166666,61.81613474195086L128.68623593750002,64.7792769370211L130.30493072916667,69.09865892260625L131.11427812500003,72.56886217449907L131.92362552083335,77.18534626720978L132.73297291666668,84.26006102401092L134.35166770833334,85.34851575993343L135.16101510416667,90.01841556320875L135.97036250000002,94.09567019771855L136.77970989583335,99.31869420070247L137.58905729166668,101.55188893387286L138.3984046875,105.34361124614901L139.20775208333336,109.18918755655652L140.0170994791667,113.00438231232866L140.826446875,117.62036615015926L141.63579427083334,120.03275660941685L142.44514166666667,122.01534461028899L143.2544890625,123.14774094167159L144.06383645833336,127.71981357080564L144.87318385416668,129.11715953333024L145.68253125,132.54199765620905L146.49187864583337,140.795688942916L147.3012260416667,142.04485950903617L148.1105734375,145.0663916871L148.91992083333332,150.60959320268753L149.72926822916668,151.44607782194618L150.538615625,153.78685479914054L151.34796302083333,157.09774844977204L152.1573104166667,158.70013570609314L152.96665781250002,160.86162117699078L153.77600520833334,164.9148715470987L154.5853526041667,166.54922338590708L156.20404739583333,171.12648676707047L157.01339479166666,172.15289412406165L157.8227421875,174.69996430215627L158.63208958333334,175.71500198769715L159.44143697916667,179.3202209626752L160.25078437500002,179.31325234843854L161.06013177083335,182.30076532799427L161.86947916666668,183.9928841417764L162.67882656250003,184.58223460299746L163.48817395833333,185.86012324970181L164.29752135416666,187.26323377231913L165.10686875000002,188.26970782789257L165.91621614583335,191.1439287529577L166.72556354166667,193.68230297874828L167.5349109375,197.12851991311138L168.34425833333336,202.2148612110853L169.15360572916669,204.41595590866703L169.962953125,206.26581967583698L170.77230052083334,207.0587049177543L171.58164791666667,209.06312683955935L172.3909953125,208.93035143328802L174.00969010416668,210.50725272850622L174.8190375,210.7144081906719L175.62838489583336,211.66731377638834L176.4377322916667,209.85254983168176L177.24707968750002,212.87425038127336L178.05642708333335,214.0916380259459L178.86577447916667,214.05239238621044L179.675121875,215.66954143214969L180.48446927083333,219.69043501366997L181.2938166666667,219.52851442400794L182.1031640625,220.49422200563063L182.91251145833334,221.55655531866003L183.7218588541667,223.64591581053273L184.53120625000003,224.8806725574282L185.34055364583335,226.0511591522117L186.14990104166668,225.8296863608491L186.9592484375,226.7457105684325L187.76859583333334,227.31748305581564L188.57794322916666,227.63594888215223L189.38729062500002,230.58953888838187L190.19663802083335,229.69648159986974L191.00598541666668,230.03861537415958L191.81533281250003,233.94689169259942L192.62468020833336,233.5549638574673L193.4340276041667,235.6455144791729L194.24337500000001,236.25516129104145L195.05272239583334,236.71848534386064L195.86206979166667,237.05312262295394L196.67141718750003,239.72671277670432L197.48076458333335,240.76392878586785L198.29011197916668,241.17335014254976L199.099459375,240.7422340873973L199.90880677083337,243.63832949185945L200.7181541666667,243.4609119667258L201.5275015625,241.49477356557784L203.14619635416668,242.67314799188983L204.76489114583336,245.93026044233855L205.5742385416667,248.48577031012053L206.38358593750002,245.48050989901145L207.19293333333337,246.11457306986696L208.0022807291667,247.14411649569408L208.811628125,249.45711129073734L209.62097552083333,248.36284315215778L210.43032291666668,249.7252611095485L211.2396703125,248.8129181331689L212.04901770833334,249.53230418915467L212.8583651041667,249.7810744456601L213.66771250000002,252.1334568588654L214.47705989583335,252.13499062062198L215.2864072916667,252.1806441210051L216.09575468750003,253.495192362465L216.90510208333333,255.66381426114546L217.71444947916666,256.3484286420779L218.52379687500002,256.43126182830895L219.33314427083334,257.3178401483263L220.14249166666667,259.1814919420835L220.95183906250003,257.65414584629275L221.76118645833336,257.6177086584634L222.57053385416668,259.44258133360375L223.37988125000004,261.0798132543227L224.18922864583334,261.71810609503495L224.99857604166667,262.94090149473067L225.80792343750002,264.31063906822584L226.61727083333335,261.2281418241074L227.42661822916668,263.62827350522L228.235965625,263.7206050581374L229.04531302083336,264.1520874575757L229.8546604166667,263.0542530990659L230.66400781250002,266.5112636684446L231.47335520833334,266.93605806140795L232.28270260416667,265.1539710704436L233.90139739583336,264.84584209031425L234.71074479166668,265.9006188579508L235.5200921875,267.33873947583567L236.32943958333337,267.163301425202L237.1387869791667,267.00905192146666L237.94813437500002,268.88775436473725L238.75748177083335,267.7017158097454L239.56682916666668,267.71596859936193L240.3761765625,269.35498038216144L241.18552395833333,269.0772815631849L241.9948713541667,268.5207310805079L242.80421875000002,271.14686707535384L243.61356614583337,269.0235371995423L245.23226093750003,270.73306763903736L246.0416083333334,272.2475571774203L246.85095572916666,274.0201907541011L247.660303125,273.4648552421977L248.46965052083337,272.40511190925116L249.27899791666667,272.1544380743491L250.08834531250002,271.71869683405595L250.89769270833338,275.2656048029541L251.70704010416668,276.493495068628L252.51638750000004,278.3158289634116L253.32573489583334,278.8478688282668L254.1350822916667,276.35943970109986L254.94442968750002,277.55434134234855L255.75377708333332,278.10495716240496L256.5631244791667,277.5356981152683L257.37247187500003,278.59271060620654L258.18181927083333,278.5156202076711L258.9911666666667,278.8346232530207L259.80051406250004,279.6172518538332L260.60986145833334,279.57607232160456L261.4192088541667,278.3379934339776L262.22855625000005,280.77157554339834L263.03790364583335,281.9002221032384L263.8472510416667,280.5074422030008L264.65659843750007,281.0895749086013L265.46594583333336,282.0913748373057L266.27529322916666,283.3337596876814L267.084640625,282.50189435153146L267.8939880208333,281.3954294815085L268.7033354166667,283.22470659452637L269.51268281250003,285.7087024553041L270.32203020833333,283.54091741463066L271.1313776041667,285.0390394613093L271.94072500000004,285.87902274680664L272.75007239583334,285.7817823586019L273.5594197916667,285.4951493133823L274.3687671875,285.1837091461083L275.17811458333335,284.94953165571025L276.796809375,285.3178477473267L277.60615677083337,285.3213466845279L278.4155041666667,286.88076321011164L279.2248515625,286.47160695670135L280.0341989583334,285.9125029936404L280.8435463541667,286.7835822200332L281.65289375,287.950784911589L282.46224114583333,289.4702208454382L283.2715885416667,288.420156338426L284.0809359375,289.4437147975213L284.89028333333334,289.42365141810455L285.6996307291667,289.3096233612387L286.508978125,289.802254010887L287.31832552083335,292.6344476563639L288.1276729166667,294.4577232402167L289.74636770833337,293.37223305158284L290.5557151041667,293.0837805956323L291.3650625,292.14165687201734L292.1744098958334,292.5706339444162L292.98375729166673,293.0849113107417L293.79310468750003,293.97302763491746L294.6024520833334,294.10846254553894L295.4117994791667,293.0684792103814L296.221146875,293.91588307335655L297.83984166666664,294.33558519772356L298.6491890625,295.2724735427257L299.45853645833336,295.455423294591L300.26788385416666,293.43779397254417L301.07723125,295.04173911615493L302.69592604166667,297.28488420484746L303.5052734375,296.97172689545835L304.3146208333334,297.0855150597528L305.1239682291667,296.37475218573337L305.93331562500003,296.31685216673264L306.7426630208334,297.66782548673353L307.5520104166667,298.571551570962L308.36135781250005,299.36705891619334L309.1707052083334,298.48237289599984L309.9800526041667,297.27099442272265L310.78940000000006,298.71629774891665L311.59874739583336,300.1117738108663L312.40809479166666,298.4939455293826L313.2174421875,297.9994060075494L314.0267895833333,299.8360944533645L314.83613697916667,300.39322708385413L315.645484375,300.20707140978794L316.4548317708333,300.83734272766657L317.2641791666667,302.92129347191525L318.07352656250004,302.9834140696814L318.88287395833333,302.25588359565256L319.6922213541667,302.84744543085355L320.50156875000005,303.208762677013L321.31091614583335,303.36245780421103L322.1202635416667,303.79950566920184L322.92961093750006,303.4845318956697L323.73895833333336,303.77675301726094L324.5483057291667,304.68196023831877L325.35765312500007,305.74965889224904L326.16700052083337,306.2915985080059L326.97634791666667,305.56436136596705L327.7856953125,306.0727078958351L328.5950427083333,306.2367467097554L329.4043901041667,305.7618618016566L330.21373750000004,306.59197957610127L331.02308489583334,305.65621697269614L331.8324322916667,305.50254096370867L333.45112708333335,305.9755479933735L334.2604744791667,306.9748373252444L335.069821875,307.23241909960376L335.87916927083336,306.7262178730422L336.6885166666667,307.6553397857732L337.4978640625,306.75137851587453L338.30721145833337,308.27835163892223L339.1165588541667,308.24090245659556L339.92590625,307.73401742562044L340.7352536458334,309.06910216164647L341.5446010416667,308.51889646774055L342.3539484375,309.9228262512417L343.16329583333334,312.0126188438681L343.9726432291667,310.87523610222195L344.781990625,312.0755631821879L345.59133802083335,312.02079049844997L346.4006854166667,312.04547659899185L347.2100328125,310.71736603904424L348.01938020833336,310.85557014857073L348.8287276041667,311.06330670952826L349.638075,312.7569747799467L350.44742239583337,312.4234178188598L351.2567697916667,313.54116279003523L352.0661171875,313.84920486303105L352.8754645833334,313.8180361149086L353.68481197916674,314.20270649494114L354.49415937500004,313.51215759563416L355.3035067708334,313.7617646070768L356.9222015625,308.0488737277657L357.73154895833335,310.9664642965563L358.54089635416665,311.8797911272762L359.35024375,312.56623236038195L360.15959114583336,315.3769192801078L360.96893854166666,314.37610061396975L361.7782859375,316.4146019218298L362.5876333333334,317.96145694690534L363.39698072916667,318.1462549762327L364.206328125,318.7084126879044L365.0156755208334,316.05293175228894L365.8250229166667,315.5227980575725L366.63437031250004,316.5496925416363L367.4437177083334,318.01896898486285L368.2530651041667,318.8213187292358L369.06241250000005,319.85239010896845L369.8717598958334,318.85895085562635L370.6811072916667,317.410648395211L371.49045468750006,318.37122366723275L372.29980208333336,319.66129639512985L373.10914947916666,319.53108087170705L373.918496875,319.58558233373515L374.7278442708333,319.71852772878924L375.5371916666667,320.183140098096L376.3465390625,318.9724847300383L377.1558864583333,319.89689585430045L377.9652338541667,320.7529401792274L378.77458125000004,318.73780030069435L379.58392864583334,319.4662701178055L380.3932760416667,318.4639431352635L382.8213182291667,320.3619446886994L383.63066562500006,320.35901465338407L384.44001302083336,320.7873426105325L385.2493604166667,321.3498159140793L386.0587078125001,318.73848313163967L386.8680552083334,316.2688909328399L387.6774026041667,318.4073482823792L388.48675000000003,321.26293182336394L389.2960973958333,321.72160235004065L390.1054447916667,323.3440304747181L390.91479218750004,323.65061372417813L391.72413958333334,324.35572923212413L392.5334869791667,324.737157055671L393.34283437500005,322.76608556935145L394.15218177083335,321.85658511328074L394.9615291666667,321.6576236528172L395.7708765625,322.4054830384603L396.58022395833336,323.130230227849L397.3895713541667,323.223257255187L398.19891875,323.2391112926954L399.0082661458334,323.6290950373537L399.81761354166673,323.84280123812886L400.62696093750003,324.60808645339563L401.4363083333334,325.231323614131L402.2456557291667,325.9281253255583L403.055003125,326.2019568908235L403.86435052083334,325.67523596389924L404.6736979166667,325.0714989931897L405.4830453125,325.3824544037718L406.29239270833335,326.5920738754304L407.1017401041667,328.1356938800081L407.9110875,327.1221412841427L408.72043489583336,327.20898809149975L409.5297822916667,326.31677853278245L410.3391296875,326.5489902647338L411.1484770833334,325.8535555789642L411.95782447916673,326.2263453187977L412.76717187500003,326.91481473511493L413.5765192708334,327.6845645495928L414.38586666666674,328.1762566638481L415.19521406250004,328.2365006519849L416.0045614583334,328.1848899555586L416.8139088541667,327.2834570765638L417.62325625,325.639129195009L418.43260364583335,325.1268340533342L419.24195104166665,325.74201590927635L420.0512984375,325.6244965138481L420.86064583333336,326.2339217485881L421.66999322916666,328.04100814783806L422.479340625,328.4793746316175L423.2886880208334,326.7007160080857L424.0980354166667,326.1707410842496L424.90738281250003,324.3332062151792L425.7167302083334,325.2634717311803L426.5260776041667,325.6873791460855L427.33542500000004,327.3485154810773L428.1447723958334,328.6933886817318L428.9541197916667,327.82837151866767L429.76346718750005,327.7696325080065L430.5728145833334,329.13181140359194L431.3821619791667,329.79129642363245L432.19150937500007,330.2988566580083L433.00085677083337,329.60145321666056L433.81020416666667,328.5677444732632L434.6195515625,328.60076783214396L435.4288989583333,330.01801819379904L436.2382463541667,331.2796971639824L437.04759375000003,330.70903649020045L437.85694114583333,331.4487046591852L438.6662885416667,331.04780846512233L439.47563593750004,329.39242944694536L440.28498333333334,329.5277634210151L441.0943307291667,329.5570218007678L441.90367812500006,329.5776986857516L442.71302552083336,330.98757928343196L443.5223729166667,331.55543564142585L445.14106770833337,330.6450210711127L445.9504151041667,331.3674842332547L446.7597625000001,331.82220721098537L447.5691098958334,331.7456257336645L448.3784572916667,332.7729556799204L449.18780468750003,331.9237761485312L449.99715208333333,332.31538968204717L450.8064994791667,330.97475289611714L452.42519427083334,330.84848795078557L453.2345416666667,331.5833364424506L454.04388906250006,331.67747261657706L454.85323645833336,329.5668598115365L455.6625838541667,327.95534032625335L456.47193125,329.42272482262905L457.28127864583337,330.616577135987L458.0906260416667,331.62772345285487L458.8999734375,331.47162277054457L459.7093208333334,332.27908762617767L460.51866822916674,332.82280157167315L461.32801562500003,332.3077436128771L462.1373630208334,332.3476927395515L462.9467104166667,333.524206324973L463.7560578125,333.13861511302065L464.56540520833335,332.8624890221566L465.3747526041667,332.47794831045076L466.1841,333.67147890860116L467.8027947916667,333.2864163351399L468.6121421875,334.72498851334535L469.42148958333337,334.8328149390718L470.2308369791667,334.30667726254893L471.040184375,334.5631752928623L471.8495317708334,333.86601693390696L472.65887916666674,334.1791433508585L473.46822656250004,333.63046757031964L474.2775739583334,333.93389962830406L475.08692135416675,335.24158798958814L475.89626875000005,335.8053296142533L476.7056161458334,335.2106318617378L477.5149635416667,334.15254699171953L478.3243109375,333.4339496439011L479.13365833333336,334.70979001185447L480.752353125,335.31953242127645L481.56170052083337,335.4341757067032L482.37104791666667,334.9959427871952L483.1803953125,334.1060293926558L483.9897427083334,333.17778638619467L484.7990901041667,333.57589011092523L485.60843750000004,334.91355075540014L486.4177848958334,335.50189264253896L487.22713229166675,335.2616576441295L488.0364796875,335.5757705625012L488.84582708333335,335.7489169369238L489.6551744791667,336.01973583941526L491.2738692708334,335.96276122641484L492.0832166666668,335.57873785798756L492.8925640625,336.6675733115078L493.7019114583333,337.2302293751972L494.51125885416667,336.2421994128003L495.32060625,336.047233636909L496.1299536458334,331.04767162290074L496.93930104166674,332.5902245038816L497.7486484375,332.19635828910964L499.3673432291667,333.991476740625L500.17669062500005,335.15546023384206L500.9860380208334,336.42209754639293L501.79538541666676,337.74246833667075L502.6047328125,336.5421253694929L503.41408020833336,335.3744186237613L504.2234276041667,335.7978116127092L505.0327750000001,337.5783272016531L505.8421223958334,337.4119791764183L507.4608171875,338.1183127217816L508.2701645833334,338.16407621426913L509.0795119791667,338.36716987164084L509.88885937500004,338.5378121059272L510.6982067708334,337.29796139276823L511.50755416666664,337.3493240059594L512.3169015625,337.27241242362567L513.1262489583333,337.22296003744816L513.9355963541667,336.54545810826824L514.7449437500001,337.0084623774737L515.5542911458334,337.2392755720526L516.3636385416667,337.93183093338837L517.1729859375,337.73048136882477L517.9823333333334,338.33436983410155L518.7916807291667,337.8445442582543L519.6010281250001,337.8644948681135L520.4103755208334,339.38141003376313L521.2197229166667,339.0967977243938L522.0290703125,338.1249750404524L522.8384177083334,337.4913970277162L523.6477651041668,337.7354089750193L524.4571125000001,339.4460090164278L525.2664598958335,339.232109975581L526.0758072916667,339.5516045680942L526.8851546875001,339.22502488761387L527.6945020833334,338.92012406477727L528.5038494791668,339.25047526796016L529.3131968750001,340.0089730727038L530.1225442708334,340.4706545404155L530.9318916666667,339.24482126030256L531.7412390625,337.5157711997207L532.5505864583333,337.46200002474046L533.3599338541667,336.5611046487282L534.16928125,337.20965491673206L534.9786286458333,337.95984209985477L535.7879760416666,339.0030049417714L536.5973234375,339.2056392104719L537.4066708333334,339.5314355744767L538.2160182291667,338.4568923550158L539.0253656250001,338.0103441611883L539.8347130208333,338.84585531036083L540.6440604166667,339.6241034307524L541.4534078125,339.54154726400213L542.2627552083334,340.8571278547514L543.0721026041667,340.08573021956323L543.8814500000001,338.69690086162626L544.6907973958333,340.5495580358299L545.5001447916667,341.0770099353445L546.3094921875,340.33289431709534L547.1188395833334,339.71909761716165L547.9281869791668,338.9443802822059L548.737534375,340.22494288603303L549.5468817708334,339.73045212114613L550.3562291666667,340.38832867994336L551.1655765625001,340.67432631018414L552.7842713541668,337.15691298884036L554.4029661458334,338.33468240381836L555.2123135416667,339.7780933075044L556.0216609375001,341.272766712523L556.8310083333334,341.17050123566094L557.6403557291668,341.3952483183366L558.449703125,341.3792131599448L559.2590505208334,340.7565945511131L560.0683979166668,341.3646267570596L560.8777453125001,342.8324287017353L561.6870927083334,342.29607163006636L562.4964401041667,341.2794415353171L563.3057875,342.6400083909207L564.1151348958333,342.5568563958867L564.9244822916667,342.85101151058547L565.7338296875,342.107905985629L566.5431770833334,342.3233868369679L567.3525244791666,341.1921452772366L568.161871875,341.0716981431606L568.9712192708333,341.8008031651193L569.7805666666667,341.89428306612547L570.5899140625,343.43234327165334L571.3992614583334,342.73928126477455L572.2086088541666,341.92745273473673L573.01795625,342.251878967468L573.8273036458334,341.5377181571797L574.6366510416667,340.78187408480926L575.4459984375001,340.79818306376865L576.2553458333334,340.9412773684283L577.0646932291667,341.22519231214557L577.874040625,341.1175084012926L578.6833880208334,341.1449376659714L579.4927354166667,341.93987624576994L580.3020828125001,342.62313977841325L581.1114302083334,343.22812970269706L581.9207776041667,342.47747736607096L582.730125,340.4132112226646L583.5394723958334,340.20439490788596L584.3488197916668,340.95371967760065L585.1581671875001,341.2881137979468L585.9675145833335,342.2917035613067L586.7768619791667,343.2658830746391L587.5862093750001,339.9300845811465L588.3955567708334,337.51764890698786L589.2049041666668,339.7985927849262L590.0142515625001,340.2680682702766L590.8235989583334,341.4597719060297L591.6329463541667,342.5321102983475L592.44229375,342.80044105884895L593.2516411458333,342.3680278428216L594.0609885416667,343.4724482700206L594.8703359375,344.33797409106444L595.6796833333333,344.4543523262944L596.4890307291666,344.39438645209196L597.298378125,343.84973080416427L598.1077255208334,344.31845924202406L598.9170729166667,344.12480084234613L599.7264203125001,344.1183483098779L600.5357677083333,344.2890479916023L601.3451151041667,343.7603631142063L602.1544625,344.3457711691344L602.9638098958334,345.45127654795385L603.7731572916667,345.3345558827023L604.5825046875001,345.25461519855946L605.3918520833333,344.91933961516264L606.2011994791667,344.8814768862635L607.010546875,344.3490047204994L607.8198942708334,344.8764676179377L608.6292416666668,344.7155610355412L609.4385890625,345.28505707929156L610.2479364583334,345.3887090865394L611.0572838541667,345.96912556533596L611.8666312500001,345.3614842665085L612.6759786458334,345.0434314097952L613.4853260416668,345.9689053838971L614.2946734375,346.3485792856656L615.1040208333334,344.81383846471306L615.9133682291667,344.427295005119L616.7227156250001,343.9328841447254L617.5320630208334,343.29706269795076L618.3414104166668,343.68513770800456L619.1507578125,344.6227249077911L619.9601052083334,344.44060395320554L620.7694526041668,344.30113503677256L621.5788000000001,344.78747350043335L623.1974947916667,345.37051214264034L624.0068421875,345.89015251858183L624.8161895833333,346.5645837868895L625.6255369791667,342.4378588951019L626.434884375,342.58761578698L627.2442317708334,343.21781503902446L628.0535791666666,342.3128503057369L628.8629265625,341.93842165588103L629.6722739583333,342.43875960755037L630.4816213541667,342.9681209370356L631.29096875,344.4469632553333L632.1003161458334,344.58492964000294L632.9096635416666,345.24848524582L633.7190109375,345.6462494436854L634.5283583333334,346.2869865084561L635.3377057291667,346.5869730821176L636.1470531250001,347.0126086356509L636.9564005208334,346.1057562638681L637.7657479166667,345.82678099702963L638.5750953125,346.8066913741982L639.3844427083334,346.47573821444246L640.1937901041667,346.6413421885393L641.0031375000001,346.3719301834153L641.8124848958334,347.53136223236265L642.6218322916667,347.3620754311185L643.4311796875,347.37997056305755L644.2405270833334,345.7459253113801L645.0498744791668,341.88956151169833L645.8592218750001,343.3819501697686L646.6685692708335,343.73570503814017L647.4779166666667,343.7992263453654L648.2872640625001,345.10375779321924L649.9059588541668,345.65220696524466L650.7153062500001,346.1400166839955L651.5246536458334,346.3553442598172L652.3340010416667,347.46652538019003L653.1433484375,348.0011901292955L653.9526958333333,348.0670841274414L654.7620432291667,348.12695372755417L655.571390625,347.32163731356655L656.3807380208333,347.0643597737605L657.1900854166666,346.76612900458986L657.9994328125,346.5042426385773L658.8087802083334,346.4133620042933L659.6181276041667,346.22382433759594L660.4274750000001,345.9884044836308L661.2368223958333,344.6042892828364L662.0461697916667,345.52046411698166L662.8555171875,343.53873110903646L663.6648645833334,345.38269889782873L664.4742119791667,345.58473614487656L665.2835593750001,345.4289337993181L666.0929067708333,346.84420120272137L666.9022541666667,346.64521316012883L667.7116015625,346.56841382171257L668.5209489583334,346.20315642825096L669.3302963541668,344.79564881714265L670.13964375,345.18495395257605L670.9489911458334,345.64376116954577L671.7583385416667,347.2474047379988L672.5676859375001,347.67626994070054L673.3770333333334,347.13688249493623L674.1863807291668,346.13593142254854L674.995728125,345.53520528815983L675.8050755208334,347.1014429974978L676.6144229166667,346.47418789385875L677.4237703125001,347.72046622185525L678.2331177083335,348.1066776221057L679.0424651041668,347.62988534301877L679.8518125,348.45717136720464L680.6611598958334,348.54025604564595L681.4705072916668,348.12505246308916L682.2798546875001,348.4068556880332L683.0892020833334,349.06836744940824L683.8985494791667,348.03122355082274L684.707896875,348.39271444680054L685.5172442708333,348.33836353833107L686.3265916666667,348.33470942195174L687.9452864583334,347.40005173252007L688.7546338541666,348.2171938961207L689.56398125,348.3121258828743L690.3733286458333,348.5454228540269L691.1826760416667,349.0004768753908L691.9920234375,348.351782976253L692.8013708333334,346.8983754981324L693.6107182291667,346.81806287121645L694.420065625,346.97179785704026L695.2294130208334,348.4125396830464L696.0387604166667,348.4568321814143L697.6574552083334,348.4625949651644L698.4668026041667,348.87528075594577L699.27615,347.988348957881L700.0854973958334,347.9329642740865L700.8948447916667,349.6111461772736L701.7041921875001,349.64953024210257L702.5135395833335,348.7890460207225L703.3228869791667,348.17039629305367L704.132234375,348.29038934570957L704.9415817708334,348.09608033098226L705.7509291666668,348.0417053489448L706.5602765625001,348.448364380491L707.3696239583335,348.1057987576677L708.1789713541667,348.49671667270724L708.9883187500001,349.38783350143694L709.7976661458334,351.1649014173891L710.6070135416668,351.2767577383784L711.4163609375001,351.49272553119977L712.2257083333334,351.08145047773843L713.0350557291667,350.27978135941237L713.844403125,350.77254350597065L714.6537505208333,350.4417427791449L715.4630979166667,347.4332669009528L717.0817927083333,347.47960917924837L717.8911401041667,348.1907972984442L718.7004875,347.2387979442562L719.5098348958334,348.1309146914337L720.3191822916667,348.37929890983173L721.1285296875001,347.84989330739216L721.9378770833333,348.88955457806L722.7472244791667,349.4180815300523L723.556571875,349.68177401822163L724.3659192708334,349.43816877910876L725.1752666666667,347.71896683196144L725.9846140625001,347.3913712791157L726.7939614583333,345.23842272463327L727.6033088541667,348.05303230955786L728.41265625,349.80312569994766L729.2220036458334,350.19564358520785L730.8406984375,350.8607326919675L731.6500458333334,350.7475206994489L732.4593932291667,350.3578726840175L733.2687406250001,350.3800721469317L734.0780880208334,350.89260707578114L734.8874354166668,350.50150215133374L735.6967828125,349.52587463230356L736.5061302083334,349.2371146751457L737.3154776041667,348.69659407829465L738.1248250000001,349.3685794883682L738.9341723958335,350.36488045333533L739.7435197916668,350.32441078407504L740.5528671875,349.75438983417456L741.3622145833334,349.14373202823174L742.1715619791668,349.02429410020625L742.9809093750001,349.3790015894607L743.7902567708334,349.81374979778315L744.5996041666667,350.1393652202609L745.4089515625,351.1453529674535L746.2182989583333,350.53534873480095L747.0276463541667,349.75395762331266L747.83699375,346.2148406695884L748.6463411458334,346.1201954265018L749.4556885416666,347.98341261335406L750.2650359375,350.3915557179428L751.0743833333333,349.7481639320939L751.8837307291667,351.13985194625195L752.693078125,350.3881347215875L753.5024255208334,349.4316755164472L754.3117729166667,350.2407335477357L755.1211203125,350.9979314469737L755.9304677083334,351.1170477991155L756.7398151041667,350.82778661750433L757.5491625000001,349.2940140844403L758.3585098958334,350.30288773385223L759.1678572916667,350.7991636080425L759.9772046875,349.0520665652425L760.7865520833334,349.9225837921296L761.5958994791667,350.4275242837102L763.2145942708335,351.1282254159478L764.0239416666667,351.809199782569L764.8332890625001,351.59391155032273L765.6426364583334,351.5162994120297L767.2613312500001,351.9599780599044L768.0706786458335,352.36484506113925L768.8800260416667,352.2422732362238L769.6893734375001,352.5925924686969L770.4987208333334,352.3559361047716L772.1174156250001,351.41664786290016L772.9267630208334,351.0606734012333L773.7361104166667,350.7360360801933L774.5454578125,351.2961211497445L775.3548052083333,351.2438540934581L776.1641526041667,351.23530990037244L776.9735000000001,352.19450117728155L777.7828473958333,352.4006607198862L778.5921947916667,349.38634932029703L779.4015421875,345.36384713621584L781.8295843750001,347.37865602846784L782.6389317708333,349.398918252124L783.4482791666667,351.32356323602244L784.2576265625,352.3577133204189L785.0669739583334,352.8259235539566L785.8763213541667,352.73833311853423L786.6856687500001,352.9197034643618L787.4950161458333,352.41809726992415L788.3043635416667,351.0704075600839L789.1137109375001,351.2448506950732L790.7324057291668,351.3716584882206L791.541753125,351.2530183286536L792.3511005208334,351.7610851933912L793.1604479166667,352.2861376233185L793.9697953125001,352.895332891098L794.7791427083334,352.8929363798635L795.5884901041668,351.512905624345L796.3978375,352.1271009000578L797.2071848958334,352.2373495936783L798.0165322916667,351.40018964927316L798.8258796875001,349.98812913945443L799.6352270833335,349.85174431714233L800.4445744791668,350.2227402052196L801.2539218750001,350.3727746230908L802.0632692708334,349.57217116575436L803.6819640625001,350.46195226062366L804.4913114583334,351.7101062433364L805.3006588541667,352.337930365014L806.11000625,352.30925289320146L806.9193536458333,353.35631378947863L807.7287010416667,354.25417264835255L808.5380484375,354.71156619361767L809.3473958333334,354.30603234425365L810.1567432291666,354.01167889966393L810.966090625,353.6267380435439L811.7754380208333,352.89004972829736L813.3941328125001,353.00029547280946L814.2034802083334,353.21976904027645L815.0128276041667,353.0248930810144L815.822175,353.1370046806783L816.6315223958334,353.3267272890223L817.4408697916667,353.01633337365126L818.2502171875001,353.853864527141L819.0595645833334,352.4383440915827L820.678259375,352.19294165003373L821.4876067708334,352.03173208140606L822.2969541666668,352.65523743954975L823.1063015625001,352.59041978028733L823.9156489583335,353.25494117843357L824.7249963541667,352.866670148948L825.5343437500001,352.9858353600251L826.3436911458334,352.55269109644996L827.1530385416668,353.4083969743716L827.9623859375001,353.8926804927773L828.7717333333335,353.803191583493L829.5810807291667,353.2251305691234L830.3904281250001,351.7118078297404L831.1997755208334,350.3475284832477L832.0091229166668,349.9951097206713L832.8184703125002,350.4349619263418L833.6278177083334,351.7803670207139L834.4371651041668,352.08670448906787L835.2465125,347.6897544371511L836.0558598958334,348.2025404167131L836.8652072916667,349.8938848932401L837.6745546875001,351.8235903333869L838.4839020833333,352.1641180211623L839.2932494791667,352.32537066115003L840.102596875,353.0556154732929L841.7212916666667,353.4992948291147L842.5306390625001,353.6257110572041L843.3399864583333,354.09355048497457L844.1493338541667,353.80111648365397L844.95868125,353.5198359602875L845.7680286458334,354.6900564469338L846.5773760416668,355.0927171700732L847.3867234375001,354.50816607798635L848.1960708333334,352.13346883359L849.0054182291667,353.00588089508L849.8147656250001,351.7195277636394L850.6241130208334,349.75096017910766L851.4334604166668,350.7936332260337L852.2428078125,351.95505086369485L853.0521552083334,352.02253825856974L853.8615026041667,352.58934852183387L854.6708500000001,352.74200989393563L855.4801973958334,352.85259968669686L856.2895447916668,354.07966245171883L857.9082395833334,353.7024544530274L858.7175869791668,354.4933444666831L859.5269343750001,354.31933974117703L860.3362817708335,354.6051429650483L861.1456291666668,354.39621276409775L861.9549765625001,353.75375291663363L862.7643239583334,352.9694055884699L864.3830187500001,353.75234521659223L865.1923661458334,353.75976215281577L866.0017135416667,353.8111565389586L866.8110609375,353.98815767891466L867.6204083333333,354.74223400289736L868.4297557291667,354.73026542850437L869.239103125,355.34591534668135L870.8577979166666,355.8753701957528L871.6671453125,355.5038419817154L872.4764927083334,350.86333168855606L873.2858401041667,350.0672773339315L874.0951875000001,351.61162804823476L874.9045348958334,352.63003732781704L875.7138822916667,353.3976081173528L876.5232296875,354.2282280951854L877.3325770833334,355.2491605445067L878.9512718750001,354.2238038629314L879.7606192708334,351.7608145814934L880.5699666666667,352.2377449710887L881.3793140625,353.5494412981233L882.1886614583334,354.8074371878107L882.9980088541668,354.5680726969591L883.8073562500001,355.0155323072668L884.6167036458335,355.1579691107424L885.4260510416667,355.92650948372244L886.2353984375001,355.77724192118836L887.0447458333334,354.43276503823347L887.8540932291668,353.77507636163494L888.6634406250001,354.52378213714024L889.4727880208335,354.36220803488425L890.2821354166667,354.14027292081624L891.0914828125001,353.59740120829633L891.9008302083334,354.32424160540563L892.7101776041668,354.7764837985833L893.5195250000002,355.1632786415023L894.3288723958334,355.03921605181705L895.1382197916668,355.29902887948845L895.9475671875,356.0483046739842L896.7569145833334,356.069272872853L898.3756093750001,356.05776071931285L899.1849567708333,354.5648108102999L899.9943041666667,354.6481654093466L900.8036515625,354.257169703144L901.6129989583334,354.14074239658345L902.4223463541667,354.61130536395666L903.2316937500001,354.54300702562375L904.0410411458333,354.0893801042251L904.8503885416667,354.30222839561264L906.4690833333334,354.8800616187752L907.2784307291668,355.07003870689704L908.0877781250001,354.3110937161845L908.8971255208334,354.06402040026194L909.7064729166667,354.30425100284924L910.5158203125001,355.03814950717924L911.3251677083334,355.78390645373855L912.1345151041668,354.9884215941156L912.9438625,355.4025121778324L913.7532098958334,355.31146556809995L914.5625572916667,356.3838280269956L915.3719046875001,356.4375967111433L916.1812520833334,356.4420230341487L916.9905994791668,355.9920235881229L917.799946875,354.9611514979229L918.6092942708334,354.9051423583957L919.4186416666668,354.87238154167983L920.2279890625001,355.1871369430937L921.0373364583335,354.92762348499997L921.8466838541668,355.1985334385759L922.6560312500001,355.22463659829566L923.4653786458334,355.59797584527877L924.2747260416668,356.30543739170815L925.0840734375001,354.4467929601643L925.8934208333334,353.8207818524098L926.7027682291667,354.48089844024514L927.512115625,355.4034823385237L928.3214630208333,355.48388924706416L929.1308104166667,354.8982268590451L929.9401578125,354.99307041333014L930.7495052083334,355.4111599673214" style="fill: none;" fill="none"></path></g></g></g></g><g opacity="0.2"><g><g><g><path stroke="rgb(255, 112, 67)" stroke-width="2px" d="M104.4058140625,-6.020330539771464L105.21516145833334,1.1967370467526872L106.02450885416667,14.780627608299298L106.83385625000001,10.283307509762949L107.64320364583335,6.413047326462645L108.45255104166667,5.4570287380899885L109.26189843750001,11.241934333528844L110.07124583333334,12.378242177622695L110.88059322916668,15.090124832732386L111.68994062500002,13.005823739937398L112.49928802083333,21.63190021259446L113.30863541666668,16.79294140424051L114.1179828125,25.062090895005653L115.73667760416667,28.370858188186403L116.546025,28.041979768446538L117.35537239583334,34.273294883115L118.16471979166668,33.29444420337681L118.97406718750001,28.70415054474563L119.78341458333334,34.55739190748763L120.59276197916667,45.69578090097227L121.40210937500001,57.69741555622649L122.21145677083334,43.613606523190256L123.0208041666667,48.482239024979776L123.8301515625,44.416200680392166L124.63949895833333,59.17696717807226L125.44884635416669,63.26589780407295L126.25819375000002,60.91477423054833L127.06754114583335,66.15548154285979L127.87688854166666,62.737027919718216L128.68623593750002,69.2239902296237L130.30493072916667,75.57773190098152L131.11427812500003,77.77416705233712L131.92362552083335,84.11007240627498L132.73297291666668,94.87213315921173L134.35166770833334,86.98119786381726L135.16101510416667,97.02326526812148L135.97036250000002,100.21155214948315L136.77970989583335,107.1532302051783L137.58905729166668,104.90168103362836L138.3984046875,111.03119471456327L139.20775208333336,114.95755202216763L140.0170994791667,118.72717444598679L140.826446875,124.54434190690522L141.63579427083334,123.65134229830336L142.44514166666667,124.9892266115972L143.2544890625,124.8463354387454L144.06383645833336,134.57792251450675L144.87318385416668,131.213178477117L145.68253125,137.67925484052728L146.49187864583337,153.17622587297643L147.3012260416667,143.9186153582164L148.1105734375,149.59868995419572L148.91992083333332,158.92439547606878L149.72926822916668,152.7008047508342L150.538615625,157.2980202649321L151.34796302083333,162.06408892571926L152.1573104166667,161.10371659057483L152.96665781250002,164.10384938333715L153.77600520833334,170.9947471022606L154.5853526041667,169.00075114411968L156.20404739583333,177.9923818388156L157.01339479166666,173.69250515954838L157.8227421875,178.5205695692982L158.63208958333334,177.2375585160085L159.44143697916667,184.7280494251422L160.25078437500002,179.30279942708358L161.06013177083335,186.7820347973279L161.86947916666668,186.53106236244955L162.67882656250003,185.4662602948291L163.48817395833333,187.77695621975832L164.29752135416666,189.36789955624513L165.10686875000002,189.7794189112527L165.91621614583335,195.45526014055528L166.72556354166667,197.4898643174342L167.5349109375,202.29784531465597L168.34425833333336,209.84437315804618L169.15360572916669,207.7175979550396L169.962953125,209.0406153265919L170.77230052083334,208.24803278063024L171.58164791666667,212.06975972226687L172.3909953125,208.73118832388096L174.00969010416668,212.8726046713335L174.8190375,211.02514138392038L175.62838489583336,213.09667215496302L176.4377322916667,207.13040391462192L177.24707968750002,217.40680120566063L178.05642708333335,215.91771949295486L178.86577447916667,213.99352392660722L179.675121875,218.09526500105858L180.48446927083333,225.72177538595028L181.2938166666667,219.28563353951492L182.1031640625,221.94278337806463L182.91251145833334,223.15005528820413L183.7218588541667,226.7799565483417L184.53120625000003,226.73280767777138L185.34055364583335,227.806889044387L186.14990104166668,225.49747717380524L186.9592484375,228.11974687980756L187.76859583333334,228.1751417868904L188.57794322916666,228.11364762165718L189.38729062500002,235.0199238977262L190.19663802083335,228.35689566710167L191.00598541666668,230.55181603559427L191.81533281250003,239.8093061702592L192.62468020833336,232.96707210476913L193.4340276041667,238.78134041173118L194.24337500000001,237.16963150884428L195.05272239583334,237.4134714230895L195.86206979166667,237.55507854159393L196.67141718750003,243.73709800732988L197.48076458333335,242.31975279961313L198.29011197916668,241.78748217757263L199.099459375,240.0955600046686L199.90880677083337,247.9824725985527L200.7181541666667,243.1947856790253L201.5275015625,238.54556596385584L203.14619635416668,244.44070963135786L204.76489114583336,250.81592911801167L205.5742385416667,252.31903511179345L206.38358593750002,240.9726192823478L207.19293333333337,247.06566782615013L208.0022807291667,248.68843163443464L208.811628125,252.92660348330224L209.62097552083333,246.72144094428845L210.43032291666668,251.76888804563455L211.2396703125,247.4444036685995L212.04901770833334,250.6113832731332L212.8583651041667,250.1542298304183L213.66771250000002,255.66203047867336L214.47705989583335,252.13729126325674L215.2864072916667,252.24912437157974L216.09575468750003,255.4670147246548L216.90510208333333,258.91674710916624L217.71444947916666,257.3753502134766L218.52379687500002,256.5555116076555L219.33314427083334,258.6477076283523L220.14249166666667,261.97696963271926L220.95183906250003,255.36312670260668L221.76118645833336,257.56305287671944L222.57053385416668,262.1798903463142L223.37988125000004,263.535661135401L224.18922864583334,262.6755453561034L224.99857604166667,264.77509459427426L225.80792343750002,266.3652454284685L226.61727083333335,256.60439595792974L227.42661822916668,267.22847102688894L228.235965625,263.8591023875134L229.04531302083336,264.79931105673313L229.8546604166667,261.4075015613011L230.66400781250002,271.69677952251266L231.47335520833334,267.57324965085303L232.28270260416667,262.4808405839971L233.90139739583336,264.38364862012014L234.71074479166668,267.4827840094056L235.5200921875,269.4959204026631L236.32943958333337,266.9001443492515L237.1387869791667,266.77767766586373L237.94813437500002,271.70580802964315L238.75748177083335,265.9226579772575L239.56682916666668,267.7373477837869L240.3761765625,271.8134980563607L241.18552395833333,268.66073333472013L241.9948713541667,267.6859053564923L242.80421875000002,275.08607106762275L243.61356614583337,265.8385423858251L245.23226093750003,273.2973632982799L246.0416083333334,274.51929148499454L246.85095572916666,276.6791411191225L247.660303125,272.63185197434257L248.46965052083337,270.81549690983127L249.27899791666667,271.778427321996L250.08834531250002,271.06508497361625L250.89769270833338,280.5859667563013L251.70704010416668,278.335330467139L252.51638750000004,281.04932980558704L253.32573489583334,279.6459286255496L254.1350822916667,272.6267960103495L254.94442968750002,279.3466938042215L255.75377708333332,278.93088089248965L256.5631244791667,276.6818095445633L257.37247187500003,280.1782293426139L258.18181927083333,278.39998460986783L258.9911666666667,279.31312782104527L259.80051406250004,280.79119475505183L260.60986145833334,279.5143030232617L261.4192088541667,276.480875102537L262.22855625000005,284.4219487075295L263.03790364583335,283.5931919429984L263.8472510416667,278.4182723526444L264.65659843750007,281.96277396700214L265.46594583333336,283.5940747303622L266.27529322916666,285.1973369632449L267.084640625,281.2540963473065L267.8939880208333,279.7357321764742L268.7033354166667,285.9686222640531L269.51268281250003,289.4346962464707L270.32203020833333,280.28923985362053L271.1313776041667,287.2862225313272L271.94072500000004,287.13899767505274L272.75007239583334,285.6359217762947L273.5594197916667,285.0651997455529L274.3687671875,284.71654889519726L275.17811458333335,284.5982654201133L276.796809375,285.8703218847513L277.60615677083337,285.32659509032965L278.4155041666667,289.21988799848725L279.2248515625,285.85787257658586L280.0341989583334,285.073847049049L280.8435463541667,288.0902010596224L281.65289375,289.7015889489225L282.46224114583333,291.74937474621197L283.2715885416667,286.8450595779078L284.0809359375,290.9790524861642L284.89028333333334,289.3935563489795L285.6996307291667,289.13858127593994L286.508978125,290.5411999853594L287.31832552083335,296.8827381245792L288.1276729166667,297.19263661599587L289.74636770833337,291.743997768632L290.5557151041667,292.6511019117066L291.3650625,290.72847128659487L292.1744098958334,293.21409955301453L292.98375729166673,293.85632736022984L293.79310468750003,295.30520212118114L294.6024520833334,294.3116149114711L295.4117994791667,291.50850420764516L296.221146875,295.1869888678193L297.83984166666664,294.9651383842741L298.6491890625,296.67780606022905L299.45853645833336,295.729847922389L300.26788385416666,290.4113499894738L301.07723125,297.44765683157107L302.69592604166667,300.6496018378862L303.5052734375,296.5019909313747L304.3146208333334,297.2561973061945L305.1239682291667,295.30860787470425L305.93331562500003,296.2300021382315L306.7426630208334,299.69428546673487L307.5520104166667,299.9271406973047L308.36135781250005,300.5603199340403L309.1707052083334,297.15534386570965L309.9800526041667,295.4539267128067L310.78940000000006,300.8842527382076L311.59874739583336,302.2049879037908L312.40809479166666,296.06720310715696L313.2174421875,297.2575967247997L314.0267895833333,302.59112712208713L314.83613697916667,301.2289260295885L315.645484375,299.92783789868867L316.4548317708333,301.78274970448444L317.2641791666667,306.04721958828827L318.07352656250004,303.07659496633073L318.88287395833333,301.1645878846092L319.6922213541667,303.73478818365504L320.50156875000005,303.75073854625225L321.31091614583335,303.5930004950081L322.1202635416667,304.455077466688L322.92961093750006,303.0120712353715L323.73895833333336,304.2150846996478L324.5483057291667,306.0397710699056L325.35765312500007,307.3512068731444L326.16700052083337,307.1045079316412L326.97634791666667,304.4735056529088L327.7856953125,306.8352276906371L328.5950427083333,306.4828049306359L329.4043901041667,305.0495344395084L330.21373750000004,307.8371562377683L331.02308489583334,304.25257306758846L331.8324322916667,305.27202695022737L333.45112708333335,306.68505853787065L334.2604744791667,308.47377132305076L335.069821875,307.61879176114286L335.87916927083336,305.9669160331999L336.6885166666667,309.04902265486976L337.4978640625,305.3954366110265L338.30721145833337,310.5688113234937L339.1165588541667,308.18472868310556L339.92590625,306.97368987915775L340.7352536458334,311.0717292656856L341.5446010416667,307.69358792688166L342.3539484375,312.0287209264934L343.16329583333334,315.14730773280775L343.9726432291667,309.16916198975275L344.781990625,313.8760538021369L345.59133802083335,311.93863147284304L346.4006854166667,312.0825057498046L347.2100328125,308.7252001991229L348.01938020833336,311.06287631286045L348.8287276041667,311.3749115509646L349.638075,315.2974768855742L350.44742239583337,311.92308237722943L351.2567697916667,315.2177802467985L352.0661171875,314.31126797252466L352.8754645833334,313.7712829927249L353.68481197916674,314.77971206499L354.49415937500004,312.4763342466738L355.3035067708334,314.13617512424076L356.9222015625,299.47953740879893L357.73154895833335,315.3428501497422L358.54089635416665,313.2497813733561L359.35024375,313.59589421004057L360.15959114583336,319.59294965969667L360.96893854166666,312.87487261476264L361.7782859375,319.4723538836198L362.5876333333334,320.28173948451877L363.39698072916667,318.42345202022364L364.206328125,319.551649255412L365.0156755208334,312.06971034886584L365.8250229166667,314.7275975154979L366.63437031250004,318.0900342677321L367.4437177083334,320.22288364970257L368.2530651041667,320.0248433457954L369.06241250000005,321.3989971785673L369.8717598958334,317.36879197561314L370.6811072916667,315.23819470458795L371.49045468750006,319.8120865752654L372.29980208333336,321.5964054869754L373.10914947916666,319.33575758657287L373.918496875,319.66733452677727L374.7278442708333,319.9179458213704L375.5371916666667,320.8800586520561L376.3465390625,317.15650167795167L377.1558864583333,321.2835125406938L377.9652338541667,322.03700666661774L378.77458125000004,315.7150904828949L379.58392864583334,320.55897484347224L380.3932760416667,316.9604526614504L382.8213182291667,323.2089470188533L383.63066562500006,320.35461960041096L384.44001302083336,321.4298345462552L385.2493604166667,322.1935258693993L386.0587078125001,314.8214839579804L386.8680552083334,312.56450263464023L387.6774026041667,321.61503430668796L388.48675000000003,325.5463071348412L389.2960973958333,322.40960814005564L390.1054447916667,325.77767266173447L390.91479218750004,324.110488598368L391.72413958333334,325.4134024940431L392.5334869791667,325.3092987909913L393.34283437500005,319.8094783398722L394.15218177083335,320.49233442917466L394.9615291666667,321.35918146212185L395.7708765625,323.527272116925L396.58022395833336,324.2173510119319L397.3895713541667,323.36279779619406L398.19891875,323.2628923489579L399.0082661458334,324.2140706543412L399.81761354166673,324.1633605392916L400.62696093750003,325.7560142762959L401.4363083333334,326.1661793552339L402.2456557291667,326.97332789269944L403.055003125,326.61270423872134L403.86435052083334,324.8851545735129L404.6736979166667,324.16589353712544L405.4830453125,325.84888751964485L406.29239270833335,328.4065030829183L407.1017401041667,330.45112388687477L407.9110875,325.6018123903445L408.72043489583336,327.3392583025353L409.5297822916667,324.97846419470653L410.3391296875,326.89730786266074L411.1484770833334,324.8104035503098L411.95782447916673,326.785529928548L412.76717187500003,327.9475188595908L413.5765192708334,328.8391892713096L414.38586666666674,328.91379483523116L415.19521406250004,328.3268666341901L416.0045614583334,328.1074739109193L416.8139088541667,325.9313077580716L417.62325625,323.17263737267683L418.43260364583335,324.358391340822L419.24195104166665,326.6647886931896L420.0512984375,325.44821742070576L420.86064583333336,327.1480596006981L421.66999322916666,330.751637746713L422.479340625,329.13692435728655L423.2886880208334,324.032728072788L424.0980354166667,325.3757786984955L424.90738281250003,321.57690391157354L425.7167302083334,326.6588700051819L426.5260776041667,326.3232402684433L427.33542500000004,329.84021998356496L428.1447723958334,330.71069848271355L428.9541197916667,326.53084577407157L429.76346718750005,327.6815239920148L430.5728145833334,331.17507974697014L431.3821619791667,330.78052395369326L432.19150937500007,331.060197009572L433.00085677083337,328.55534805463896L433.81020416666667,327.01718135816714L434.6195515625,328.65030287046517L435.4288989583333,332.1438937362816L436.2382463541667,333.17221561925754L437.04759375000003,329.85304547952757L437.85694114583333,332.5582069126623L438.6662885416667,330.44646417402794L439.47563593750004,326.9093609196799L440.28498333333334,329.7307643821197L441.0943307291667,329.60090937039683L441.90367812500006,329.6087140132274L442.71302552083336,333.1024001799524L443.5223729166667,332.4072201784168L445.14106770833337,329.2793992156429L445.9504151041667,332.4511789764677L446.7597625000001,332.5042916775814L447.5691098958334,331.63075351768305L448.3784572916667,334.3139505993043L449.18780468750003,330.6500068514475L449.99715208333333,332.9028099823211L450.8064994791667,328.9637977172222L452.42519427083334,330.65909053278824L453.2345416666667,332.6856091799481L454.04388906250006,331.81867687776685L454.85323645833336,326.40094060397576L455.6625838541667,325.5380610983287L456.47193125,331.6238015671926L457.28127864583337,332.40735560602377L458.0906260416667,333.1444429281567L458.8999734375,331.2374717470791L459.7093208333334,333.4902849096273L460.51866822916674,333.63837248991643L461.32801562500003,331.5351566746831L462.1373630208334,332.40761642956306L462.9467104166667,335.2889767031052L463.7560578125,332.5602282950921L464.56540520833335,332.44829988586054L465.3747526041667,331.901137242892L466.1841,335.4617748058268L467.8027947916667,332.708822474948L468.6121421875,336.8828467806535L469.42148958333337,334.9945545776614L470.2308369791667,333.5174707477646L471.040184375,334.94792233833243L471.8495317708334,332.82027939547385L472.65887916666674,334.6488329762859L473.46822656250004,332.8074538995113L474.2775739583334,334.38904771528075L475.08692135416675,337.2031205315143L475.89626875000005,336.65094205125104L476.7056161458334,334.3185852329646L477.5149635416667,332.5654196866921L478.3243109375,332.3560536221734L479.13365833333336,336.6235505637846L480.752353125,336.2341460354094L481.56170052083337,335.6061406348433L482.37104791666667,334.3385934079332L483.1803953125,332.7711593008467L483.9897427083334,331.7854218765029L484.7990901041667,334.17304569802116L485.60843750000004,336.9200417221125L486.4177848958334,336.38440547324717L487.22713229166675,334.90130514651537L488.0364796875,336.0469399400588L488.84582708333335,336.0086364985577L489.6551744791667,336.42596419315254L491.2738692708334,335.8772993069142L492.0832166666668,335.0027028053467L492.8925640625,338.30082649178803L493.7019114583333,338.0742134707315L494.51125885416667,334.7601544692048L495.32060625,335.75478497307216L496.1299536458334,323.5483286018883L496.93930104166674,334.9040538253529L497.7486484375,331.6055589669517L499.3673432291667,336.68415441789796L500.17669062500005,336.90143547366773L500.9860380208334,338.3220535152193L501.79538541666676,339.7230245220874L502.6047328125,334.7416109187262L503.41408020833336,333.6228585051639L504.2234276041667,336.4329010961311L505.0327750000001,340.24910058506896L505.8421223958334,337.162457138566L507.4608171875,339.1778130398265L508.2701645833334,338.2327214530004L509.0795119791667,338.6718103576984L509.88885937500004,338.7937754573567L510.6982067708334,335.43818532302976L511.50755416666664,337.4263679257461L512.3169015625,337.157045050125L513.1262489583333,337.148781458182L513.9355963541667,335.5292052144983L514.7449437500001,337.7029687812818L515.5542911458334,337.5854953639209L516.3636385416667,338.9706639753921L517.1729859375,337.42845702197934L517.9823333333334,339.24020253201684L518.7916807291667,337.10980589448343L519.6010281250001,337.89442078290244L520.4103755208334,341.6567827822374L521.2197229166667,338.66987926033994L522.0290703125,336.6672410145402L522.8384177083334,336.5410300086119L523.6477651041668,338.10142689597393L524.4571125000001,342.01190907854055L525.2664598958335,338.9112614143108L526.0758072916667,340.0308464568641L526.8851546875001,338.7351553668933L527.6945020833334,338.4627728305225L528.5038494791668,339.7460020727345L529.3131968750001,341.14671977981925L530.1225442708334,341.1631767419832L530.9318916666667,337.40607134013305L531.7412390625,334.92219610884786L532.5505864583333,337.3813432622701L533.3599338541667,335.2097615847098L534.16928125,338.1824803187379L534.9786286458333,339.0851228745388L535.7879760416666,340.56774920464625L536.5973234375,339.50959061352273L537.4066708333334,340.0201301204839L538.2160182291667,336.8450775258243L539.0253656250001,337.34052187044705L539.8347130208333,340.0991220341197L540.6440604166667,340.7914756113397L541.4534078125,339.4177130138768L542.2627552083334,342.8304987408753L543.0721026041667,338.928633766781L543.8814500000001,336.61365682472075L544.6907973958333,343.32854379713535L545.5001447916667,341.86818778461645L546.3094921875,339.2167208897216L547.1188395833334,338.79840256726106L547.9281869791668,337.7823042797723L548.737534375,342.1457867917738L549.5468817708334,338.9887159738158L550.3562291666667,341.3751435181392L551.1655765625001,341.1033227555454L552.7842713541668,331.8807930068246L554.4029661458334,340.1013365262853L555.2123135416667,341.9432096630335L556.0216609375001,343.5147768200508L556.8310083333334,341.01710302036787L557.6403557291668,341.73236894235015L558.449703125,341.3551604223571L559.2590505208334,339.82266663786555L560.0683979166668,342.27667506597936L560.8777453125001,345.0341316187488L561.6870927083334,341.4915360225631L562.4964401041667,339.7544963931931L563.3057875,344.68085867432615L564.1151348958333,342.4321284033358L564.9244822916667,343.2922441826335L565.7338296875,340.99324769819424L566.5431770833334,342.64660811397647L567.3525244791666,339.49528293763956L568.161871875,340.8910274420466L568.9712192708333,342.8944606980575L569.7805666666667,342.0345029176346L570.5899140625,345.73943357994517L571.3992614583334,341.6996882544564L572.2086088541666,340.70970993967995L573.01795625,342.7385183165648L573.8273036458334,340.4664769417473L574.6366510416667,339.6481079762535L575.4459984375001,340.8226465322077L576.2553458333334,341.15591882541776L577.0646932291667,341.65106472772146L577.874040625,340.95598253501316L578.6833880208334,341.18608156298956L579.4927354166667,343.13228411546777L580.3020828125001,343.64803507737815L581.1114302083334,344.1356145891228L581.9207776041667,341.3514988611319L582.730125,337.316812007555L583.5394723958334,339.89117043571815L584.3488197916668,342.0777068321726L585.1581671875001,341.78970497846603L585.9675145833335,343.79708820634653L586.7768619791667,344.7271523446377L587.5862093750001,334.9263868409076L588.3955567708334,333.8989953957498L589.2049041666668,343.2200086018337L590.0142515625001,340.9722814983023L590.8235989583334,343.2473273596593L591.6329463541667,344.14061788682426L592.44229375,343.20293719960114L593.2516411458333,341.7194080187806L594.0609885416667,345.12907891081915L594.8703359375,345.63626282263016L595.6796833333333,344.62891967913936L596.4890307291666,344.3044376407883L597.298378125,343.0327473322728L598.1077255208334,345.0215518988137L598.9170729166667,343.8343132428293L599.7264203125001,344.1086695111756L600.5357677083333,344.54509751418874L601.3451151041667,342.9673357981124L602.1544625,345.22388325152656L602.9638098958334,347.10953461618294L603.7731572916667,345.1594748848251L604.5825046875001,345.13470417234515L605.3918520833333,344.4164262400674L606.2011994791667,344.82468279291476L607.010546875,343.55029647185336L607.8198942708334,345.6676619640951L608.6292416666668,344.47420116194655L609.4385890625,346.1393011449171L610.2479364583334,345.54418709741105L611.0572838541667,346.8397502835308L611.8666312500001,344.45002231826743L612.6759786458334,344.5663521247251L613.4853260416668,347.3571163450501L614.2946734375,346.9180901383183L615.1040208333334,342.5117272332843L615.9133682291667,343.8474798157279L616.7227156250001,343.19126785413494L617.5320630208334,342.34333052778885L618.3414104166668,344.2672502230853L619.1507578125,346.0291057074709L619.9601052083334,344.16742252132724L620.7694526041668,344.0919316621231L621.5788000000001,345.51698119592453L623.1974947916667,346.24507010595073L624.0068421875,346.66961308249404L624.8161895833333,347.57623068935106L625.6255369791667,336.2477715574205L626.434884375,342.8122511247971L627.2442317708334,344.1631139170911L628.0535791666666,340.9554032058056L628.8629265625,341.3767786810973L629.6722739583333,343.18926653505434L630.4816213541667,343.76216293126345L631.29096875,346.66522673277984L632.1003161458334,344.79187921700736L632.9096635416666,346.24381865454575L633.7190109375,346.2428957404835L634.5283583333334,347.24809210561216L635.3377057291667,347.0369529426098L636.1470531250001,347.65106196595093L636.9564005208334,344.7454777061939L637.7657479166667,345.40831809677184L638.5750953125,348.27655693995104L639.3844427083334,345.97930847480893L640.1937901041667,346.8897481496845L641.0031375000001,345.9678121757295L641.8124848958334,349.2705103057836L642.6218322916667,347.10814522925233L643.4311796875,347.40681326096615L644.2405270833334,343.2948574338641L645.0498744791668,336.1050158121756L645.8592218750001,345.62053315687393L646.6685692708335,344.26633734069765L647.4779166666667,343.89450830620314L648.2872640625001,347.06055496500005L649.9059588541668,346.4748807232827L650.7153062500001,346.8717312621219L651.5246536458334,346.6783356235496L652.3340010416667,349.1332970607494L653.1433484375,348.80318725295365L653.9526958333333,348.16592512466013L654.7620432291667,348.21675812772344L655.571390625,346.1136626925852L656.3807380208333,346.6784434640514L657.1900854166666,346.3187828508339L657.9994328125,346.1114130895585L658.8087802083334,346.2770410528673L659.6181276041667,345.93951783754994L660.4274750000001,345.6352747026831L661.2368223958333,342.52811648164476L662.0461697916667,346.8947263681995L662.8555171875,340.5661315971187L663.6648645833334,348.14865058101714L664.4742119791667,345.8877920154482L665.2835593750001,345.19523028098047L666.0929067708333,348.9671023078263L666.9022541666667,346.34673109624003L667.7116015625,346.4532148140882L668.5209489583334,345.6552703380585L669.3302963541668,342.68438740048026L670.13964375,345.7689116557262L670.9489911458334,346.33197199500034L671.7583385416667,349.65287009067833L672.5676859375001,348.3195677447532L673.3770333333334,346.3278013262898L674.1863807291668,344.634504813967L674.995728125,344.6341160865767L675.8050755208334,349.4507995615048L676.6144229166667,345.5333052384002L677.4237703125001,349.58988371385L678.2331177083335,348.68599472248127L679.0424651041668,346.9146969243884L679.8518125,349.6981004034834L680.6611598958334,348.66488306330785L681.4705072916668,347.502247089254L682.2798546875001,348.82956052544927L683.0892020833334,350.06063509147083L683.8985494791667,346.4755077029445L684.707896875,348.9349507907672L685.5172442708333,348.25683717562686L686.3265916666667,348.32922824738284L687.9452864583334,345.9980651983725L688.7546338541666,349.4429071415216L689.56398125,348.4545238630048L690.3733286458333,348.89536831075594L691.1826760416667,349.6830579074366L691.9920234375,347.3787421275463L692.8013708333334,344.7182642809515L693.6107182291667,346.69759393084263L694.420065625,347.20240033577596L695.2294130208334,350.5736524220556L696.0387604166667,348.52327092896616L697.6574552083334,348.4712391407894L698.4668026041667,349.4943094421178L699.27615,346.6579512607839L700.0854973958334,347.84988724839474L700.8948447916667,352.1284190320543L701.7041921875001,349.70710633934607L702.5135395833335,347.49831968865226L703.3228869791667,347.2424217015505L704.132234375,348.47037892469336L704.9415817708334,347.8046168088913L705.7509291666668,347.96014287588855L706.5602765625001,349.0583529278104L707.3696239583335,347.5919503234327L708.1789713541667,349.0830935452666L708.9883187500001,350.7245087445315L709.7976661458334,353.8305032913174L710.6070135416668,351.44454221986234L711.4163609375001,351.8166772204318L712.2257083333334,350.4645378975464L713.0350557291667,349.07727768192336L713.844403125,351.51168672580803L714.6537505208333,349.9455416889063L715.4630979166667,342.92055308366463L717.0817927083333,347.54912259669175L717.8911401041667,349.2575794772378L718.7004875,345.81079891297435L719.5098348958334,349.46908981219997L720.3191822916667,348.75187523742875L721.1285296875001,347.0557849037328L721.9378770833333,350.4490464840617L722.7472244791667,350.2108719580408L723.556571875,350.07731275047576L724.3659192708334,349.07276092043946L725.1752666666667,345.14016391124045L725.9846140625001,346.8999779498471L726.7939614583333,342.0089998929096L727.6033088541667,352.2749466869448L728.41265625,352.42826578553235L729.2220036458334,350.7844204130982L730.8406984375,351.8583663521068L731.6500458333334,350.5777027106711L732.4593932291667,349.7734006608703L733.2687406250001,350.413371341303L734.0780880208334,351.6614094690553L734.8874354166668,349.91484476466263L735.6967828125,348.0624333537583L736.5061302083334,348.80397473940894L737.3154776041667,347.8858131830182L738.1248250000001,350.37655760347843L738.9341723958335,351.85933190078606L739.7435197916668,350.26370628018464L740.5528671875,348.8993584093239L741.3622145833334,348.2277453193175L742.1715619791668,348.845137208168L742.9809093750001,349.91106282334243L743.7902567708334,350.4658721102668L744.5996041666667,350.62778835397745L745.4089515625,352.6543345882424L746.2182989583333,349.62034238582214L747.0276463541667,348.5818709560803L747.83699375,340.906165239002L748.6463411458334,345.9782275618719L749.4556885416666,350.7782383936324L750.2650359375,354.00377037482605L751.0743833333333,348.7830762533205L751.8837307291667,353.227383967489L752.693078125,349.26055888459086L753.5024255208334,347.99698670873687L754.3117729166667,351.4543205946684L755.1211203125,352.13372829583074L755.9304677083334,351.2957223273282L756.7398151041667,350.39389484508763L757.5491625000001,346.99335528484414L758.3585098958334,351.81619820797016L759.1678572916667,351.54357741932785L759.9772046875,346.4314210010426L760.7865520833334,351.2283596324601L761.5958994791667,351.1849350210812L763.2145942708335,352.17927711430406L764.0239416666667,352.8306613325008L764.8332890625001,351.2709792019533L765.6426364583334,351.3998812045902L767.2613312500001,352.62549603171647L768.0706786458335,352.9721455629915L768.8800260416667,352.0584154988506L769.6893734375001,353.11807131740665L770.4987208333334,352.0009515588837L772.1174156250001,350.00771550009296L772.9267630208334,350.52671170873305L773.7361104166667,350.24908009863327L774.5454578125,352.13624875407135L775.3548052083333,351.16545350902845L776.1641526041667,351.222493610744L776.9735000000001,353.63328809264516L777.7828473958333,352.7099000337933L778.5921947916667,344.8648822209133L779.4015421875,339.33009386009405L781.8295843750001,350.40086936684594L782.6389317708333,352.4293115876083L783.4482791666667,354.2105307118701L784.2576265625,353.9089384470135L785.0669739583334,353.5282389042633L785.8763213541667,352.6069474654006L786.6856687500001,353.1917589831033L787.4950161458333,351.66568797826767L788.3043635416667,349.0488729953234L789.1137109375001,351.5065153975572L790.7324057291668,351.56187017794167L791.541753125,351.0750580893031L792.3511005208334,352.52318549049755L793.1604479166667,353.07371626820947L793.9697953125001,353.8091257927673L794.7791427083334,352.8893416130117L795.5884901041668,349.4428594910673L796.3978375,353.0483938136271L797.2071848958334,352.402722634109L798.0165322916667,350.1444497326655L798.8258796875001,347.8700383747263L799.6352270833335,349.6471670836743L800.4445744791668,350.7792340373354L801.2539218750001,350.5978262498975L802.0632692708334,348.3712659797498L803.6819640625001,351.79662390292754L804.4913114583334,353.58233721740544L805.3006588541667,353.2796665475305L806.11000625,352.2662366854825L806.9193536458333,354.92690513389454L807.7287010416667,355.6009609366634L808.5380484375,355.3976565115154L809.3473958333334,353.6977315702077L810.1567432291666,353.5701487327793L810.966090625,353.0493267593639L811.7754380208333,351.7850172554276L813.3941328125001,353.16566408957755L814.2034802083334,353.54897939147696L815.0128276041667,352.7325791421213L815.822175,353.3051720801741L816.6315223958334,353.61131120153834L817.4408697916667,352.5507425005947L818.2502171875001,355.1101612573756L819.0595645833334,350.31506343824526L820.678259375,351.82483798771034L821.4876067708334,351.7899177284645L822.2969541666668,353.5904954767653L823.1063015625001,352.49319329139377L823.9156489583335,354.251723275653L824.7249963541667,352.28426360471974L825.5343437500001,353.1645831766405L826.3436911458334,351.9029747010874L827.1530385416668,354.69195579125414L827.9623859375001,354.6191057703857L828.7717333333335,353.66895821956655L829.5810807291667,352.35803904756904L830.3904281250001,349.4418237206659L831.1997755208334,348.3011094635086L832.0091229166668,349.46648157680676L832.8184703125002,351.09474023484756L833.6278177083334,353.798474662272L834.4371651041668,352.5462106915989L835.2465125,341.09432935927595L836.0558598958334,348.97171938605607L836.8652072916667,352.4309016080307L837.6745546875001,354.71814849360715L838.4839020833333,352.67490955282534L839.2932494791667,352.5672496211316L840.102596875,354.15098269150724L841.7212916666667,354.16481386284744L842.5306390625001,353.8153353993382L843.3399864583333,354.7953096266304L844.1493338541667,353.362465481673L844.95868125,353.09791517523786L845.7680286458334,356.44538717690324L846.5773760416668,355.6967082547822L847.3867234375001,353.63133943985616L848.1960708333334,348.57142296699544L849.0054182291667,354.31449898731495L849.8147656250001,349.7899980664786L850.6241130208334,346.7981088023101L851.4334604166668,352.35764279642274L852.2428078125,353.6971773201866L853.0521552083334,352.12376935088207L853.8615026041667,353.43956391673004L854.6708500000001,352.97100195208833L855.4801973958334,353.01848437583874L856.2895447916668,355.92025659925173L857.9082395833334,353.13664245499035L858.7175869791668,355.67967948716665L859.5269343750001,354.05833265291795L860.3362817708335,355.03384780085514L861.1456291666668,354.0828174626721L861.9549765625001,352.79006314543744L862.7643239583334,351.7928845962243L864.3830187500001,354.9267546587757L865.1923661458334,353.77088755715107L866.0017135416667,353.8882481181728L866.8110609375,354.25365938884875L867.6204083333333,355.87334848887156L868.4297557291667,354.71231256691476L869.239103125,356.26939022394697L870.8577979166666,356.66955246936L871.6671453125,354.9465496606593L872.4764927083334,343.9025662488171L873.2858401041667,348.87319580199465L874.0951875000001,353.92815411968957L874.9045348958334,354.1576512471906L875.7138822916667,354.5489643016564L876.5232296875,355.47415806193436L877.3325770833334,356.78055921848863L878.9512718750001,352.6857688405684L879.7606192708334,348.0663306593363L880.5699666666667,352.9531405554818L881.3793140625,355.5169857886753L882.1886614583334,356.69443102234175L882.9980088541668,354.2090259606817L883.8073562500001,355.68672172272846L884.6167036458335,355.37162431595584L885.4260510416667,357.0793200431924L886.2353984375001,355.5533405773874L887.0447458333334,352.41604971380104L887.8540932291668,352.78854334673713L888.6634406250001,355.6468408003982L889.4727880208335,354.11984688150034L890.2821354166667,353.80737024971415L891.0914828125001,352.78309363951644L891.9008302083334,355.4145022010697L892.7101776041668,355.4548470883497L893.5195250000002,355.7434709058808L894.3288723958334,354.85312216728926L895.1382197916668,355.6887481209955L895.9475671875,357.1722183657278L896.7569145833334,356.1007251711562L898.3756093750001,356.04049248900265L899.1849567708333,352.32538594678044L899.9943041666667,354.77319730791663L900.8036515625,353.67067614383996L901.6129989583334,353.96610143674275L902.4223463541667,355.3171498150166L903.2316937500001,354.44055951812436L904.0410411458333,353.4089397221272L904.8503885416667,354.6215008326939L906.4690833333334,355.7468114535191L907.2784307291668,355.35500433907976L908.0877781250001,353.17267623011554L908.8971255208334,353.69341042637825L909.7064729166667,354.66459690673014L910.5158203125001,356.13899726367424L911.3251677083334,356.90254187357743L912.1345151041668,353.7951943046813L912.9438625,356.02364805340767L913.7532098958334,355.17489565350115L914.5625572916667,357.9923717153392L915.3719046875001,356.5182497373649L916.1812520833334,356.4486625186567L916.9905994791668,355.3170244190842L917.799946875,353.41484336262306L918.6092942708334,354.82112864910493L919.4186416666668,354.823240316606L920.2279890625001,355.6592700452145L921.0373364583335,354.53835329785943L921.8466838541668,355.60489836893976L922.6560312500001,355.2637913378754L923.4653786458334,356.1579847157534L924.2747260416668,357.3666297113523L925.0840734375001,351.65882631284853L925.8934208333334,352.881765190778L926.7027682291667,355.4710733219981L927.512115625,356.7873581859416L928.3214630208333,355.60449960987484L929.1308104166667,354.0197332770165L929.9401578125,355.13533574475775L930.7495052083334,356.03829429830824" style="fill: none;" fill="none"></path></g></g></g></g></g></g><g transform="translate(61, 377)" clip-path="url(#clip_1)"><clipPath id="clip_1"><rect width="971" height="23"></rect></clipPath><g><g><line x1="0" y1="0" x2="0" y2="5" style="visibility: inherit;" fill="rgb(0, 0, 0)" stroke="rgb(204, 204, 204)" stroke-width="1px"></line><line x1="80.93473958333334" y1="0" x2="80.93473958333334" y2="5" style="visibility: inherit;" fill="rgb(0, 0, 0)" stroke="rgb(204, 204, 204)" stroke-width="1px"></line><line x1="161.86947916666668" y1="0" x2="161.86947916666668" y2="5" style="visibility: inherit;" fill="rgb(0, 0, 0)" stroke="rgb(204, 204, 204)" stroke-width="1px"></line><line x1="242.80421875000002" y1="0" x2="242.80421875000002" y2="5" style="visibility: inherit;" fill="rgb(0, 0, 0)" stroke="rgb(204, 204, 204)" stroke-width="1px"></line><line x1="323.73895833333336" y1="0" x2="323.73895833333336" y2="5" style="visibility: inherit;" fill="rgb(0, 0, 0)" stroke="rgb(204, 204, 204)" stroke-width="1px"></line><line x1="404.6736979166667" y1="0" x2="404.6736979166667" y2="5" style="visibility: inherit;" fill="rgb(0, 0, 0)" stroke="rgb(204, 204, 204)" stroke-width="1px"></line><line x1="485.60843750000004" y1="0" x2="485.60843750000004" y2="5" style="visibility: inherit;" fill="rgb(0, 0, 0)" stroke="rgb(204, 204, 204)" stroke-width="1px"></line><line x1="566.5431770833334" y1="0" x2="566.5431770833334" y2="5" style="visibility: inherit;" fill="rgb(0, 0, 0)" stroke="rgb(204, 204, 204)" stroke-width="1px"></line><line x1="647.4779166666667" y1="0" x2="647.4779166666667" y2="5" style="visibility: inherit;" fill="rgb(0, 0, 0)" stroke="rgb(204, 204, 204)" stroke-width="1px"></line><line x1="728.41265625" y1="0" x2="728.41265625" y2="5" style="visibility: inherit;" fill="rgb(0, 0, 0)" stroke="rgb(204, 204, 204)" stroke-width="1px"></line><line x1="809.3473958333334" y1="0" x2="809.3473958333334" y2="5" style="visibility: inherit;" fill="rgb(0, 0, 0)" stroke="rgb(204, 204, 204)" stroke-width="1px"></line><line x1="890.2821354166667" y1="0" x2="890.2821354166667" y2="5" style="visibility: inherit;" fill="rgb(0, 0, 0)" stroke="rgb(204, 204, 204)" stroke-width="1px"></line><line x1="971.2168750000001" y1="0" x2="971.2168750000001" y2="5" style="visibility: inherit;" fill="rgb(0, 0, 0)" stroke="rgb(204, 204, 204)" stroke-width="1px"></line></g><g transform="translate(0, 8)"><text x="0" y="0" dx="0em" dy="0.95em" style="text-anchor: middle; visibility: hidden; font-family: Roboto, sans-serif; font-size: 12px; font-weight: 200;" fill="rgb(255, 255, 255)" stroke="none" stroke-width="1px">-100</text><text x="80.93473958333334" y="0" dx="0em" dy="0.95em" style="text-anchor: middle; visibility: inherit; font-family: Roboto, sans-serif; font-size: 12px; font-weight: 200;" fill="rgb(255, 255, 255)" stroke="none" stroke-width="1px">0</text><text x="161.86947916666668" y="0" dx="0em" dy="0.95em" style="text-anchor: middle; visibility: inherit; font-family: Roboto, sans-serif; font-size: 12px; font-weight: 200;" fill="rgb(255, 255, 255)" stroke="none" stroke-width="1px">100</text><text x="242.80421875000002" y="0" dx="0em" dy="0.95em" style="text-anchor: middle; visibility: inherit; font-family: Roboto, sans-serif; font-size: 12px; font-weight: 200;" fill="rgb(255, 255, 255)" stroke="none" stroke-width="1px">200</text><text x="323.73895833333336" y="0" dx="0em" dy="0.95em" style="text-anchor: middle; visibility: inherit; font-family: Roboto, sans-serif; font-size: 12px; font-weight: 200;" fill="rgb(255, 255, 255)" stroke="none" stroke-width="1px">300</text><text x="404.6736979166667" y="0" dx="0em" dy="0.95em" style="text-anchor: middle; visibility: inherit; font-family: Roboto, sans-serif; font-size: 12px; font-weight: 200;" fill="rgb(255, 255, 255)" stroke="none" stroke-width="1px">400</text><text x="485.60843750000004" y="0" dx="0em" dy="0.95em" style="text-anchor: middle; visibility: inherit; font-family: Roboto, sans-serif; font-size: 12px; font-weight: 200;" fill="rgb(255, 255, 255)" stroke="none" stroke-width="1px">500</text><text x="566.5431770833334" y="0" dx="0em" dy="0.95em" style="text-anchor: middle; visibility: inherit; font-family: Roboto, sans-serif; font-size: 12px; font-weight: 200;" fill="rgb(255, 255, 255)" stroke="none" stroke-width="1px">600</text><text x="647.4779166666667" y="0" dx="0em" dy="0.95em" style="text-anchor: middle; visibility: inherit; font-family: Roboto, sans-serif; font-size: 12px; font-weight: 200;" fill="rgb(255, 255, 255)" stroke="none" stroke-width="1px">700</text><text x="728.41265625" y="0" dx="0em" dy="0.95em" style="text-anchor: middle; visibility: inherit; font-family: Roboto, sans-serif; font-size: 12px; font-weight: 200;" fill="rgb(255, 255, 255)" stroke="none" stroke-width="1px">800</text><text x="809.3473958333334" y="0" dx="0em" dy="0.95em" style="text-anchor: middle; visibility: inherit; font-family: Roboto, sans-serif; font-size: 12px; font-weight: 200;" fill="rgb(255, 255, 255)" stroke="none" stroke-width="1px">900</text><text x="890.2821354166667" y="0" dx="0em" dy="0.95em" style="text-anchor: middle; visibility: inherit; font-family: Roboto, sans-serif; font-size: 12px; font-weight: 200;" fill="rgb(255, 255, 255)" stroke="none" stroke-width="1px">1k</text><text x="971.2168750000001" y="0" dx="0em" dy="0.95em" style="text-anchor: middle; visibility: hidden; font-family: Roboto, sans-serif; font-size: 12px; font-weight: 200;" fill="rgb(255, 255, 255)" stroke="none" stroke-width="1px">1.1k</text></g><line x1="0" y1="0" x2="971.2168750000001" y2="0" fill="rgb(0, 0, 0)" stroke="rgb(204, 204, 204)" stroke-width="1px"></line></g></g></g></g></svg>