<svg viewBox="0 0 789.1143188476562 400" xmlns="http://www.w3.org/2000/svg"><g><g><g><g><g><line x1="61.953125" y1="377" x2="56.953125" y2="377" style="visibility: inherit;" fill="rgb(0, 0, 0)" stroke="rgb(204, 204, 204)" stroke-width="1px"></line><line x1="61.953125" y1="339.3" x2="56.953125" y2="339.3" style="visibility: inherit;" fill="rgb(0, 0, 0)" stroke="rgb(204, 204, 204)" stroke-width="1px"></line><line x1="61.953125" y1="301.6" x2="56.953125" y2="301.6" style="visibility: inherit;" fill="rgb(0, 0, 0)" stroke="rgb(204, 204, 204)" stroke-width="1px"></line><line x1="61.953125" y1="263.9" x2="56.953125" y2="263.9" style="visibility: inherit;" fill="rgb(0, 0, 0)" stroke="rgb(204, 204, 204)" stroke-width="1px"></line><line x1="61.953125" y1="226.20000000000005" x2="56.953125" y2="226.20000000000005" style="visibility: inherit;" fill="rgb(0, 0, 0)" stroke="rgb(204, 204, 204)" stroke-width="1px"></line><line x1="61.953125" y1="188.5" x2="56.953125" y2="188.5" style="visibility: inherit;" fill="rgb(0, 0, 0)" stroke="rgb(204, 204, 204)" stroke-width="1px"></line><line x1="61.953125" y1="150.8" x2="56.953125" y2="150.8" style="visibility: inherit;" fill="rgb(0, 0, 0)" stroke="rgb(204, 204, 204)" stroke-width="1px"></line><line x1="61.953125" y1="113.09999999999998" x2="56.953125" y2="113.09999999999998" style="visibility: inherit;" fill="rgb(0, 0, 0)" stroke="rgb(204, 204, 204)" stroke-width="1px"></line><line x1="61.953125" y1="75.40000000000002" x2="56.953125" y2="75.40000000000002" style="visibility: inherit;" fill="rgb(0, 0, 0)" stroke="rgb(204, 204, 204)" stroke-width="1px"></line><line x1="61.953125" y1="37.69999999999999" x2="56.953125" y2="37.69999999999999" style="visibility: inherit;" fill="rgb(0, 0, 0)" stroke="rgb(204, 204, 204)" stroke-width="1px"></line><line x1="61.953125" y1="0" x2="56.953125" y2="0" style="visibility: inherit;" fill="rgb(0, 0, 0)" stroke="rgb(204, 204, 204)" stroke-width="1px"></line></g><g transform="translate(51.953125, 0)"><text x="0" y="377" dx="0em" dy="0.3em" style="text-anchor: end; visibility: hidden; font-family: Roboto, sans-serif; font-size: 12px; font-weight: 200;" fill="rgb(255, 255, 255)" stroke="none" stroke-width="1px">5e-3</text><text x="0" y="339.3" dx="0em" dy="0.3em" style="text-anchor: end; visibility: inherit; font-family: Roboto, sans-serif; font-size: 12px; font-weight: 200;" fill="rgb(255, 255, 255)" stroke="none" stroke-width="1px">0.01</text><text x="0" y="301.6" dx="0em" dy="0.3em" style="text-anchor: end; visibility: inherit; font-family: Roboto, sans-serif; font-size: 12px; font-weight: 200;" fill="rgb(255, 255, 255)" stroke="none" stroke-width="1px">0.015</text><text x="0" y="263.9" dx="0em" dy="0.3em" style="text-anchor: end; visibility: inherit; font-family: Roboto, sans-serif; font-size: 12px; font-weight: 200;" fill="rgb(255, 255, 255)" stroke="none" stroke-width="1px">0.02</text><text x="0" y="226.20000000000005" dx="0em" dy="0.3em" style="text-anchor: end; visibility: inherit; font-family: Roboto, sans-serif; font-size: 12px; font-weight: 200;" fill="rgb(255, 255, 255)" stroke="none" stroke-width="1px">0.025</text><text x="0" y="188.5" dx="0em" dy="0.3em" style="text-anchor: end; visibility: inherit; font-family: Roboto, sans-serif; font-size: 12px; font-weight: 200;" fill="rgb(255, 255, 255)" stroke="none" stroke-width="1px">0.03</text><text x="0" y="150.8" dx="0em" dy="0.3em" style="text-anchor: end; visibility: inherit; font-family: Roboto, sans-serif; font-size: 12px; font-weight: 200;" fill="rgb(255, 255, 255)" stroke="none" stroke-width="1px">0.035</text><text x="0" y="113.09999999999998" dx="0em" dy="0.3em" style="text-anchor: end; visibility: inherit; font-family: Roboto, sans-serif; font-size: 12px; font-weight: 200;" fill="rgb(255, 255, 255)" stroke="none" stroke-width="1px">0.04</text><text x="0" y="75.40000000000002" dx="0em" dy="0.3em" style="text-anchor: end; visibility: inherit; font-family: Roboto, sans-serif; font-size: 12px; font-weight: 200;" fill="rgb(255, 255, 255)" stroke="none" stroke-width="1px">0.045</text><text x="0" y="37.69999999999999" dx="0em" dy="0.3em" style="text-anchor: end; visibility: inherit; font-family: Roboto, sans-serif; font-size: 12px; font-weight: 200;" fill="rgb(255, 255, 255)" stroke="none" stroke-width="1px">0.05</text><text x="0" y="0" dx="0em" dy="0.3em" style="text-anchor: end; visibility: hidden; font-family: Roboto, sans-serif; font-size: 12px; font-weight: 200;" fill="rgb(255, 255, 255)" stroke="none" stroke-width="1px">0.055</text></g><line x1="61.953125" y1="0" x2="61.953125" y2="377" fill="rgb(0, 0, 0)" stroke="rgb(204, 204, 204)" stroke-width="1px"></line></g></g><g transform="translate(61, 0)" clip-path="url(#clip_0)"><clipPath id="clip_0"><rect width="727" height="377"></rect></clipPath><g><g><g><line x1="0" y1="0" x2="0" y2="377" fill="rgb(0, 0, 0)" stroke="rgb(189, 189, 189)" stroke-width="1px" opacity="0.25"></line><line x1="51.940062499999996" y1="0" x2="51.940062499999996" y2="377" fill="rgb(0, 0, 0)" stroke="rgb(189, 189, 189)" stroke-width="1px" opacity="0.25"></line><line x1="103.88012499999999" y1="0" x2="103.88012499999999" y2="377" fill="rgb(0, 0, 0)" stroke="rgb(189, 189, 189)" stroke-width="1px" opacity="0.25"></line><line x1="155.8201875" y1="0" x2="155.8201875" y2="377" fill="rgb(0, 0, 0)" stroke="rgb(189, 189, 189)" stroke-width="1px" opacity="0.25"></line><line x1="207.76024999999998" y1="0" x2="207.76024999999998" y2="377" fill="rgb(0, 0, 0)" stroke="rgb(189, 189, 189)" stroke-width="1px" opacity="0.25"></line><line x1="259.7003125" y1="0" x2="259.7003125" y2="377" fill="rgb(0, 0, 0)" stroke="rgb(189, 189, 189)" stroke-width="1px" opacity="0.25"></line><line x1="311.640375" y1="0" x2="311.640375" y2="377" fill="rgb(0, 0, 0)" stroke="rgb(189, 189, 189)" stroke-width="1px" opacity="0.25"></line><line x1="363.5804375" y1="0" x2="363.5804375" y2="377" fill="rgb(0, 0, 0)" stroke="rgb(189, 189, 189)" stroke-width="1px" opacity="0.25"></line><line x1="415.52049999999997" y1="0" x2="415.52049999999997" y2="377" fill="rgb(0, 0, 0)" stroke="rgb(189, 189, 189)" stroke-width="1px" opacity="0.25"></line><line x1="467.46056250000004" y1="0" x2="467.46056250000004" y2="377" fill="rgb(0, 0, 0)" stroke="rgb(189, 189, 189)" stroke-width="1px" opacity="0.25"></line><line x1="519.400625" y1="0" x2="519.400625" y2="377" fill="rgb(0, 0, 0)" stroke="rgb(189, 189, 189)" stroke-width="1px" opacity="0.25"></line><line x1="571.3406875000001" y1="0" x2="571.3406875000001" y2="377" fill="rgb(0, 0, 0)" stroke="rgb(189, 189, 189)" stroke-width="1px" opacity="0.25"></line><line x1="623.28075" y1="0" x2="623.28075" y2="377" fill="rgb(0, 0, 0)" stroke="rgb(189, 189, 189)" stroke-width="1px" opacity="0.25"></line><line x1="675.2208125000001" y1="0" x2="675.2208125000001" y2="377" fill="rgb(0, 0, 0)" stroke="rgb(189, 189, 189)" stroke-width="1px" opacity="0.25"></line><line x1="727.160875" y1="0" x2="727.160875" y2="377" fill="rgb(0, 0, 0)" stroke="rgb(189, 189, 189)" stroke-width="1px" opacity="0.25"></line></g><g><line x1="0" y1="377" x2="727.160875" y2="377" fill="rgb(0, 0, 0)" stroke="rgb(189, 189, 189)" stroke-width="1px" opacity="0.25"></line><line x1="0" y1="339.3" x2="727.160875" y2="339.3" fill="rgb(0, 0, 0)" stroke="rgb(189, 189, 189)" stroke-width="1px" opacity="0.25"></line><line x1="0" y1="301.6" x2="727.160875" y2="301.6" fill="rgb(0, 0, 0)" stroke="rgb(189, 189, 189)" stroke-width="1px" opacity="0.25"></line><line x1="0" y1="263.9" x2="727.160875" y2="263.9" fill="rgb(0, 0, 0)" stroke="rgb(189, 189, 189)" stroke-width="1px" opacity="0.25"></line><line x1="0" y1="226.20000000000005" x2="727.160875" y2="226.20000000000005" fill="rgb(0, 0, 0)" stroke="rgb(189, 189, 189)" stroke-width="1px" opacity="0.25"></line><line x1="0" y1="188.5" x2="727.160875" y2="188.5" fill="rgb(0, 0, 0)" stroke="rgb(189, 189, 189)" stroke-width="1px" opacity="0.25"></line><line x1="0" y1="150.8" x2="727.160875" y2="150.8" fill="rgb(0, 0, 0)" stroke="rgb(189, 189, 189)" stroke-width="1px" opacity="0.25"></line><line x1="0" y1="113.09999999999998" x2="727.160875" y2="113.09999999999998" fill="rgb(0, 0, 0)" stroke="rgb(189, 189, 189)" stroke-width="1px" opacity="0.25"></line><line x1="0" y1="75.40000000000002" x2="727.160875" y2="75.40000000000002" fill="rgb(0, 0, 0)" stroke="rgb(189, 189, 189)" stroke-width="1px" opacity="0.25"></line><line x1="0" y1="37.69999999999999" x2="727.160875" y2="37.69999999999999" fill="rgb(0, 0, 0)" stroke="rgb(189, 189, 189)" stroke-width="1px" opacity="0.25"></line><line x1="0" y1="0" x2="727.160875" y2="0" fill="rgb(0, 0, 0)" stroke="rgb(189, 189, 189)" stroke-width="1px" opacity="0.25"></line></g></g></g><g><g><line x1="0" y1="414.70000000000005" x2="727.160875" y2="414.70000000000005" fill="rgb(0, 0, 0)" stroke="rgb(153, 153, 153)" stroke-width="1.5px"></line></g></g><g><g><line x1="51.940062499999996" y1="0" x2="51.940062499999996" y2="377" fill="rgb(0, 0, 0)" stroke="rgb(153, 153, 153)" stroke-width="1.5px"></line></g></g><g><g><g><g><g><path stroke="rgb(255, 112, 67)" stroke-width="2px" d="M71.67728625000001,-3.046805921196904L72.7160875,5.712511253356925L73.75488875,12.85018415451049L74.79369,9.27384802401065L75.83249125,19.07904752790927L76.87129250000001,29.7180597603321L77.91009375,25.766402569413177L78.94889500000001,26.16958760917186L79.98769625,33.025839936733234L81.0264975,35.119177561998356L82.06529875,31.84763179421424L83.1041,43.90374646782874L84.14290125000001,52.8752175092697L85.1817025,44.958476734161366L86.22050375,45.229673025012005L87.259305,45.89927927851676L88.29810625,46.268617448210705L89.33690750000001,44.98504863381385L90.37570875,51.00085930228232L91.41451,50.65328986644744L92.45331125,55.108127829432476L93.49211249999999,52.90080630481242L94.53091375000001,59.16160651743411L95.569715,62.534103032946575L96.60851625000001,63.36620235145091L97.6473175,66.16830186247824L98.68611874999999,70.08835927844046L99.72492000000001,63.771044623851765L100.76372125,58.2265340656042L101.80252250000001,66.69544228613375L102.84132375,75.78005456626414L103.88012499999999,84.74863247275351L104.91892625000001,72.60614508092402L105.9577275,69.73696978092192L106.99652875,76.47555859088897L108.03533,81.65660151541232L109.07413125000001,81.31116681993007L110.11293250000001,83.16364393830298L111.15173375,85.8004415154457L112.190535,86.55560591518878L113.22933625000002,79.74058778285979L114.26813750000001,84.27986034452914L115.30693875,84.00922582745551L116.34574,97.99728052020072L117.38454125,94.275782045722L118.42334250000002,92.26283424794673L119.46214375000001,93.58971582055091L120.500945,94.33844791054725L121.53974625000001,91.00594968795775L122.5785475,99.672630366683L123.61734875000002,95.14077321887015L124.65615000000001,96.99027293622493L125.69495125,97.0058621585369L126.73375250000001,100.76131985783576L127.77255375,105.65956586301326L128.811355,110.60255714952945L129.85015625,102.52691866159438L130.8889575,104.57253360450267L131.92775875,111.68234252631663L132.96656000000002,112.31065840721129L134.00536125,113.42768938541411L135.0441625,118.973829087615L136.08296375,115.02630093395709L137.121765,117.1715745449066L138.16056625000002,115.98522068262099L139.1993675,120.51042081117629L140.23816875,116.81260110139846L141.27697,129.7568801164627L142.31577124999998,125.58804118335246L143.35457250000002,129.33715083897113L144.39337375,126.28376991748809L145.432175,131.38675437569617L146.47097625,127.75598236620425L147.5097775,131.04879127144812L148.54857875000002,135.1862832278013L149.58738,136.37586728930472L150.62618125000003,136.71368995010852L151.6649825,139.75468375980853L152.70378375,138.15143757760524L153.74258500000002,135.03797495067118L154.78138625,141.6452210515738L155.8201875,142.9588447630406L156.85898875,149.11481798887257L157.89779000000001,150.22670873701577L158.93659125000002,148.88884448707108L159.9753925,153.95966739654546L161.01419375,155.24340474307542L162.052995,158.0871597796679L163.09179625000002,144.3295446902514L164.1305975,154.50144202709203L165.16939875,154.42049042582516L166.2082,150.989541348815L167.24700125,163.04388643503194L168.28580250000002,153.57412205338483L169.32460375,159.61979099810128L170.363405,164.2961925387383L171.40220625,163.25126522481446L172.4410075,167.94336834251885L173.47980875000002,163.78169202506547L174.51861,171.8413199603558L175.55741125,163.5263096660376L176.5962125,167.31642880737786L177.63501374999998,171.89510979950433L178.67381500000002,176.59024649560456L179.71261625,184.2184321701527L180.7514175,171.03090510964398L181.79021875,180.86214282810693L182.82902,177.2163714587689L183.86782125,178.24042887687688L184.9066225,179.75644563585524L185.94542375000003,181.12832528799777L186.98422499999998,185.56719483137135L188.02302625000002,184.35414267033343L189.06182750000002,191.7026914030314L190.10062875000003,184.27380902022128L191.13943,192.59511118084197L192.17823125,189.32043352425103L193.21703250000002,194.23108068555598L194.25583375,185.74474343359475L195.294635,191.30096697509293L196.33343625000003,192.46955474168067L197.37223749999998,200.98973886370663L198.41103875000002,197.17425563633446L199.44984000000002,195.7157504677773L200.48864125,202.0426574096084L201.5274425,199.85182394534354L202.56624375,201.62392528057103L203.60504500000002,193.75648015439515L204.64384625,199.13153165280823L205.6826475,204.39429861754184L206.72144875000004,203.85736928582196L207.76024999999998,205.11697844862942L208.79905125000002,205.42565909475093L209.83785250000003,208.92614172101025L210.87665375,209.3868804842234L211.915455,206.28081922680144L212.95425625000001,214.39682116061454L213.9930575,212.46401039212947L215.03185875,214.9042011916638L216.07066,208.09186552912L217.10946125000004,210.14373020529752L218.14826250000002,214.26942491233353L219.18706375000002,212.5294008597732L220.22586500000003,221.11025654971604L221.26466625,211.91667420119052L222.3034675,216.48056649863724L223.34226875000002,215.51202637404208L224.38107,218.77625503838067L225.41987125,219.78559398353104L226.45867250000003,219.9017688006163L227.49747374999998,219.3468205749989L228.53627500000002,220.30642849653964L229.57507625000002,226.51359335780148L230.6138775,232.23003478050236L231.65267875,222.9866090536118L232.69148,223.4016194313765L233.73028125000002,226.24384363442664L234.7690825,225.83931033760314L235.80788375,223.56505346745257L236.84668500000004,231.38714940547948L237.88548624999999,229.9843160182238L238.92428750000002,231.50131588131194L239.96308875000003,227.38673025071625L241.00189,227.60708601474767L242.04069125,232.62765825986867L243.07949250000001,231.75081366002564L244.11829375,230.26504841893916L245.157095,234.88358726054435L246.19589625,234.60852877497678L247.23469750000004,235.91345903724437L248.27349875,238.60803504735236L249.31230000000002,237.86919017583136L250.35110125000003,233.39492888450627L251.3899025,235.93823326081042L252.42870375,237.1409487843514L253.46750500000002,241.7669592171908L254.50630625,238.50087669938807L255.5451075,238.25803593993191L256.58390875000003,238.26341492384677L257.62271,238.28480446040635L258.66151125,235.48120220452552L259.7003125,245.97767838537698L260.73911375000006,243.25381991714244L261.777915,241.78763249218468L262.81671625,244.73134112805133L263.8555175,241.79746353328233L264.89431875,240.46170593500142L265.93312000000003,241.59009878784423L266.97192125000004,247.9903172075749L268.0107225,245.79046727418904L269.04952375,248.23577021509413L270.088325,249.79897597134118L271.12712625,247.76291118264203L272.1659275,247.22765312790875L273.20472875,246.69823752045636L274.24353,254.4042148187757L275.28233125,250.10222145617013L276.32113250000003,250.82824384123091L277.35993375000004,252.47084227651362L278.398735,253.25623010545974L279.43753625,254.82537661939864L280.4763375,249.40809377729897L281.51513875,252.75830191820864L282.55394,256.4569221556187L283.59274125,255.45152967125182L284.63154249999997,253.08516999036078L285.67034375000003,249.62666590958838L286.70914500000003,259.33966429233556L287.74794625000004,256.27677534967665L288.7867475,258.20922096520667L289.82554875,255.54194716066127L290.86435,258.07629124522214L291.90315125,257.4304339781404L292.9419525,255.71056355983023L293.98075375,258.0831870183349L295.019555,256.2240809693933L296.05835625000003,263.06338177323346L297.09715750000004,262.271673989296L298.13595875,258.17125910222535L299.17476,256.4673851922155L300.21356125,257.9084051519633L301.25236250000006,260.0156326338649L302.29116375,269.80100152343516L303.329965,262.669451956451L304.36876625,270.7368745028973L305.4075675,269.20705215334897L306.44636875000003,266.7090548321605L307.48517000000004,263.24442741721873L308.52397125,262.1837423488498L309.5627725,265.5697214350105L310.60157375,267.14758948683743L311.640375,266.19948388338094L312.67917625,266.21710953563456L313.7179775,267.1006532877684L314.75677875,270.7961135476828L315.79558000000003,266.15167693495755L316.83438125000004,268.04203165024524L317.87318250000004,273.1992974996567L318.91198375,268.33088168203835L319.950785,271.5644515424967L320.98958625,268.9453077062965L322.0283875,270.0897953778506L323.06718875,274.45326083600526L324.10599,270.2694084987045L325.14479125,272.7524485930801L326.18359250000003,268.598510709405L327.22239375000004,273.8229506582022L328.261195,274.69127034097914L329.29999625,273.74913358390336L330.3387975,274.8353512704373L331.37759875,276.87637371271853L332.4164,273.6549802988768L333.45520125,273.05787095129494L334.4940025,274.3666353195906L335.53280375,273.7836545825005L336.57160500000003,272.2413608551026L337.61040625000004,275.531908620894L338.6492075,278.80258363932376L339.68800875,276.1665865898133L340.72681,273.7886543691159L341.76561125,276.8086378395558L342.8044125,278.54333908557896L343.84321375,278.0135583251715L344.882015,280.7598456114531L345.92081625000003,276.77886382937436L346.95961750000004,279.56298657953744L347.99841875000004,277.8762748584152L349.03722,282.2447962805629L350.07602125,283.1676361083985L351.1148225,278.7388082712889L352.15362375,282.0900837823749L353.192425,281.564052861929L354.23122625,278.64101750105624L355.27002749999997,279.7770223885775L356.30882875000003,277.23214504569773L357.34763000000004,281.95965395569806L358.38643125000004,285.1445039853454L359.4252325,282.6891031607986L360.46403375,278.8702492907644L361.502835,281.68802229017024L362.54163625,282.1648839607835L363.5804375,280.6879666566849L364.61923875,286.9443709895015L365.65804,285.0442414104939L366.69684125000003,286.10579722821717L367.7356425,287.5015803545714L368.77444375,284.86360305249696L369.813245,282.4799547836185L370.85204625,286.68386244475846L371.89084750000006,285.0428650647402L372.92964875000007,288.78503681421284L373.96844999999996,283.50867492407565L375.00725124999997,286.29170221537356L376.04605250000003,281.55851939022546L377.08485375000004,284.94567820131783L378.12365500000004,286.55695774853234L379.16245625000005,285.3657866761089L380.20125750000005,286.61152002662425L381.24005875,286.3219818219543L382.27886,290.5040645718575L383.31766125,285.9761257961393L384.3564625,285.5113563060761L385.39526375,293.04825374186044L386.43406500000003,290.95566046684985L387.47286625,289.76430681794886L388.5116675,288.3204499006272L389.55046875,290.9813897058368L390.58927,292.5103553503752L391.62807125,294.6621876701713L392.66687250000007,289.72016544342046L393.7056737500001,291.8339095011354L394.74447499999997,290.36796083003287L395.78327625000003,291.6208708405495L396.82207750000003,296.7032943785191L397.86087875000004,296.1544835314155L398.89968000000005,292.407592882216L399.93848125000005,291.9111393511296L400.9772825,292.0443359136582L402.01608375,293.57818899005656L403.054885,297.42829152643685L404.09368625,293.59401696622376L405.1324875,293.099403244257L406.17128875000003,290.7116118937731L407.21009000000004,292.3839562505484L408.24889125,295.8005379632116L409.2876925,297.45911184027796L410.32649375,294.93477435112004L411.365295,296.32376001477246L412.40409625000007,295.3002784147859L413.4428975000001,291.8905222535134L414.48169874999996,298.68240935057406L415.52049999999997,298.75012415722017L416.55930125000003,299.6322213418782L417.59810250000004,297.2040103681386L418.63690375000004,294.4220012918115L419.67570500000005,296.20265563279395L420.71450625000006,298.72118578553204L421.7533075,296.6886461272836L422.79210875,299.6600150994957L423.83091,298.391347334534L424.86971125,299.6034515023232L425.90851250000003,297.7904530361295L426.94731375000003,302.8370494514704L427.986115,299.7527007505298L429.02491625,299.1235773198307L430.0637175,296.174384367466L431.10251875,297.2887890532613L432.14132,300.97757122740154L433.18012125000007,300.17599026933317L434.2189225000001,298.888348595053L435.25772374999997,300.85234483033423L436.29652500000003,299.5403291963041L437.33532625000004,304.73650490194564L438.37412750000004,299.3310544200242L439.41292875000005,300.9277138046921L440.45173000000005,302.8397600099445L441.49053125,299.2032017305494L442.5293325,302.77580908760433L443.56813375,303.73590153902774L444.606935,301.5498150631786L445.64573625,304.70022836029534L446.68453750000003,299.7183763727546L447.72333875000004,305.1671466350556L448.76214,305.88919447064404L449.80094125,302.31945215985183L450.8397425,304.209856030345L451.87854375,305.9844221480191L452.91734500000007,305.8598979681731L453.9561462500001,307.1909156002105L454.99494749999997,308.3239501088858L456.03374875,305.5753665722907L457.07255000000004,305.72798646315937L458.11135125000004,303.6042498543859L459.15015250000005,306.79405051544313L460.18895375000005,307.6571527242661L461.227755,307.3732884347439L462.26655625,309.2500903576613L463.3053575,307.01016488745813L464.34415875,308.85824612602596L465.38296,306.1970675669611L466.42176125000003,307.0444330878556L467.46056250000004,307.9714019529522L468.49936375,305.6733188524843L469.538165,304.1018339551986L470.57696625,308.2224656760693L471.6157675,304.55144959762697L472.65456875,310.9688021175564L473.6933700000001,308.405407306552L474.73217124999996,309.6947062134743L475.77097249999997,311.0053806126118L476.80977375000003,306.55687664896254L477.84857500000004,307.4824972569943L478.88737625000005,309.47566359564667L479.92617750000005,310.51208003684883L480.96497875000006,313.07310135364537L482.00378,311.3640521027148L483.04258125,311.01042253226046L484.0813825,311.7904173329473L485.12018375,308.61436608508234L486.15898500000003,310.3532244570554L487.19778625000004,307.9973699457944L488.2365875,308.648177844286L489.27538875,314.7200114026666L490.31419,316.05105712339287L491.35299125,311.6956390745938L492.3917925,310.3216527707875L493.43059375000007,315.94009275808935L494.4693950000001,316.7853937603534L495.50819624999997,312.32684106826787L496.5469975,309.87555523663764L497.58579875000004,308.35628721192484L498.62460000000004,309.175795775652L499.66340125000005,315.10255827829246L500.70220250000006,313.03770960569386L501.74100375,314.0276813998819L502.779805,310.94154204502706L503.81860625,313.67874264046554L504.8574075,311.705224339664L505.89620875,317.0112689517439L506.93501000000003,314.80023269802336L507.97381125000004,315.5330736123026L509.0126125,317.3918566413224L510.05141375,312.37994273453955L511.090215,313.6451626129449L512.1290162500001,314.34697957038884L513.1678175000001,314.4273623757065L514.2066187500001,318.4764030508697L515.24542,318.5814968802035L516.28422125,316.4180358432234L517.3230225,313.9100881040097L518.36182375,315.5391126804054L519.400625,313.1906946495176L520.43942625,316.4944511212409L521.4782275000001,315.9375085987151L522.51702875,319.9407787553966L523.55583,318.58013457879423L524.59463125,318.81358669400214L525.6334325,318.09413706213235L526.67223375,318.7656322799623L527.711035,313.4853871285916L528.7498362499999,317.787640311569L529.7886375,317.5404668718577L530.82743875,314.9080230414868L531.8662400000001,316.1150431565941L532.9050412500001,316.8494991704822L533.9438425000001,320.3293366104364L534.9826437500001,319.5156424053013L536.021445,315.89345851242547L537.06024625,318.30585555434226L538.0990475,319.40218516886233L539.13784875,315.56487000808124L540.17665,320.90581481605767L541.21545125,321.2872381441295L542.2542525,321.5437580950558L543.29305375,320.44014648795127L544.331855,319.84206105843185L545.37065625,317.1609746411443L546.4094575,318.91122999861835L547.44825875,319.1025841914117L548.48706,322.82966529279946L549.52586125,322.8695231422782L550.5646625,320.5793750964105L551.6034637500001,322.1151382036507L552.6422650000001,322.9221402786672L553.6810662500001,322.1532475322485L554.7198675000001,324.76733540445565L555.75866875,326.34004215970634L556.79747,322.1664000608027L557.83627125,318.1100001491606L558.8750725,322.954800401628L559.91387375,324.4319775260985L560.952675,321.31585349589585L561.9914762500001,322.3475650817156L563.0302775,320.54032479673623L564.06907875,321.314041775465L565.10788,322.05747914761304L566.14668125,321.8253472007811L567.1854825,323.066242274642L568.22428375,321.26180383637546L569.2630849999999,321.19023385718464L570.30188625,324.1300381653011L571.3406875000001,322.92195068001746L572.3794887500001,324.4146468050778L573.4182900000001,322.5487713821232L574.4570912500001,325.4365062832832L575.4958925000001,324.739436314255L576.53469375,321.1963923022151L577.573495,321.8998103149235L578.61229625,320.73063970804213L579.6510975,326.0827216811478L580.68989875,322.2240240059793L581.7287,321.8561534702778L582.76750125,322.6308886639774L583.8063025,326.76981314346193L584.84510375,327.3729896478355L585.883905,327.0676726222038L586.92270625,326.3241509839892L587.9615075,325.05209853202103L589.00030875,322.7511222966015L590.03911,328.5008417934179L591.07791125,327.35893828123807L592.1167125000001,327.18678972944616L593.1555137500001,328.3193818412721L594.1943150000001,329.5708242177963L595.2331162500001,330.0964618965983L596.2719175,327.6308999888599L597.31071875,326.0085605204105L598.34952,325.05154378041624L599.38832125,327.3196070946753L600.4271225,330.6430748037994L601.46592375,324.69878495931624L602.5047250000001,325.0119457513094L603.54352625,328.3056113615632L604.5823275,327.6371497221291L605.62112875,327.026326072216L606.65993,325.83158071413635L607.69873125,325.7614994354546L608.7375325,326.6618964008987L609.77633375,329.0491961993277L610.815135,329.4287165187299L611.8539362500001,330.20736306235193L612.8927375000001,329.27035249099134L613.9315387500001,330.09040878415107L614.9703400000001,329.23436385840176L616.0091412500001,326.95472800433635L617.0479425,328.6605611003935L618.08674375,330.5407617546618L619.125545,329.3719211898744L620.16434625,329.9396708354354L621.2031475,328.7247507765889L622.24194875,329.6482787773013L623.28075,328.6966199547052L624.31955125,328.76925730407237L625.3583525,328.9860106937587L626.39715375,331.6867030158639L627.435955,330.6046845883131L628.47475625,331.8980423107743L629.5135575,329.6598794057965L630.55235875,332.0193643800914L631.5911600000001,330.5040006831288L632.6299612500001,331.41796448528765L633.6687625000001,332.82124729156493L634.7075637500001,334.4534107789397L635.7463650000001,330.6691130183637L636.78516625,334.9448575012386L637.8239675,331.09223400503396L638.86276875,333.7759045816958L639.90157,333.41832152828573L640.94037125,330.73572534397243L641.9791725,328.6105562120676L643.01797375,329.7962219014764L644.056775,330.39239730015396L645.09557625,330.1649350978434L646.1343775,327.73793193772434L647.17317875,329.7849162042141L648.21198,330.24203152656554L649.25078125,333.7338839031756L650.2895825,331.87856280505656L651.3283837500001,333.0806393109262L652.3671850000001,334.1057851657271L653.4059862500001,333.4328504025936L654.4447875000001,333.05047205910085L655.4835887500001,334.38576619401573L656.52239,335.5937062136829L657.56119125,334.26817992031573L658.5999925,334.858267095685L659.63879375,334.64793197140096L660.677595,335.4143178023398L661.71639625,330.8647296696901L662.7551975,332.36791692003607L663.79399875,332.83089575618504L664.8328,333.72326637879013L665.87160125,332.80414128005503L666.9104025,332.52494673505424L667.94920375,335.36313318908213L668.988005,333.05470642894505L670.0268062499999,333.9342475429177L671.0656075,334.6513096362352L672.1044087500001,333.19977046251296L673.1432100000001,336.0889168202877L674.1820112500001,335.70347680971025L675.2208125000001,334.7927783176303L676.2596137500001,336.27234298065304L677.298415,336.045955170691L678.33721625,333.1422869607806L679.3760175,336.8827593445778L680.41481875,333.84776949211954L681.45362,332.0144067265093L682.49242125,338.8762206144631L683.5312225,336.3059300303459L684.57002375,337.2739996694028L685.608825,335.540499214828L686.64762625,338.2199705325067L687.6864275,335.34591482281684L688.72522875,334.2327600836754L689.76403,336.28712465316056L690.80283125,337.26632443517445L691.8416325000001,338.6934545382857L692.8804337500001,333.530697350204L693.9192350000001,334.34224979281424L694.9580362500001,335.9610290199518L695.9968375000001,338.8035551764071L697.03563875,336.9135796584189L698.07444,338.52081443443893L699.11324125,336.4510572634637L700.1520425,336.29135200083255L701.19084375,336.59732208848L702.229645,337.342971444875L703.2684462500001,337.71660016179084" style="fill: none;" fill="none"></path></g></g></g></g></g></g><g transform="translate(61, 377)" clip-path="url(#clip_1)"><clipPath id="clip_1"><rect width="727" height="23"></rect></clipPath><g><g><line x1="0" y1="0" x2="0" y2="5" style="visibility: inherit;" fill="rgb(0, 0, 0)" stroke="rgb(204, 204, 204)" stroke-width="1px"></line><line x1="51.940062499999996" y1="0" x2="51.940062499999996" y2="5" style="visibility: inherit;" fill="rgb(0, 0, 0)" stroke="rgb(204, 204, 204)" stroke-width="1px"></line><line x1="103.88012499999999" y1="0" x2="103.88012499999999" y2="5" style="visibility: inherit;" fill="rgb(0, 0, 0)" stroke="rgb(204, 204, 204)" stroke-width="1px"></line><line x1="155.8201875" y1="0" x2="155.8201875" y2="5" style="visibility: inherit;" fill="rgb(0, 0, 0)" stroke="rgb(204, 204, 204)" stroke-width="1px"></line><line x1="207.76024999999998" y1="0" x2="207.76024999999998" y2="5" style="visibility: inherit;" fill="rgb(0, 0, 0)" stroke="rgb(204, 204, 204)" stroke-width="1px"></line><line x1="259.7003125" y1="0" x2="259.7003125" y2="5" style="visibility: inherit;" fill="rgb(0, 0, 0)" stroke="rgb(204, 204, 204)" stroke-width="1px"></line><line x1="311.640375" y1="0" x2="311.640375" y2="5" style="visibility: inherit;" fill="rgb(0, 0, 0)" stroke="rgb(204, 204, 204)" stroke-width="1px"></line><line x1="363.5804375" y1="0" x2="363.5804375" y2="5" style="visibility: inherit;" fill="rgb(0, 0, 0)" stroke="rgb(204, 204, 204)" stroke-width="1px"></line><line x1="415.52049999999997" y1="0" x2="415.52049999999997" y2="5" style="visibility: inherit;" fill="rgb(0, 0, 0)" stroke="rgb(204, 204, 204)" stroke-width="1px"></line><line x1="467.46056250000004" y1="0" x2="467.46056250000004" y2="5" style="visibility: inherit;" fill="rgb(0, 0, 0)" stroke="rgb(204, 204, 204)" stroke-width="1px"></line><line x1="519.400625" y1="0" x2="519.400625" y2="5" style="visibility: inherit;" fill="rgb(0, 0, 0)" stroke="rgb(204, 204, 204)" stroke-width="1px"></line><line x1="571.3406875000001" y1="0" x2="571.3406875000001" y2="5" style="visibility: inherit;" fill="rgb(0, 0, 0)" stroke="rgb(204, 204, 204)" stroke-width="1px"></line><line x1="623.28075" y1="0" x2="623.28075" y2="5" style="visibility: inherit;" fill="rgb(0, 0, 0)" stroke="rgb(204, 204, 204)" stroke-width="1px"></line><line x1="675.2208125000001" y1="0" x2="675.2208125000001" y2="5" style="visibility: inherit;" fill="rgb(0, 0, 0)" stroke="rgb(204, 204, 204)" stroke-width="1px"></line><line x1="727.160875" y1="0" x2="727.160875" y2="5" style="visibility: inherit;" fill="rgb(0, 0, 0)" stroke="rgb(204, 204, 204)" stroke-width="1px"></line></g><g transform="translate(0, 8)"><text x="0" y="0" dx="0em" dy="0.95em" style="text-anchor: middle; visibility: hidden; font-family: Roboto, sans-serif; font-size: 12px; font-weight: 200;" fill="rgb(255, 255, 255)" stroke="none" stroke-width="1px">-50</text><text x="51.940062499999996" y="0" dx="0em" dy="0.95em" style="text-anchor: middle; visibility: inherit; font-family: Roboto, sans-serif; font-size: 12px; font-weight: 200;" fill="rgb(255, 255, 255)" stroke="none" stroke-width="1px">0</text><text x="103.88012499999999" y="0" dx="0em" dy="0.95em" style="text-anchor: middle; visibility: inherit; font-family: Roboto, sans-serif; font-size: 12px; font-weight: 200;" fill="rgb(255, 255, 255)" stroke="none" stroke-width="1px">50</text><text x="155.8201875" y="0" dx="0em" dy="0.95em" style="text-anchor: middle; visibility: inherit; font-family: Roboto, sans-serif; font-size: 12px; font-weight: 200;" fill="rgb(255, 255, 255)" stroke="none" stroke-width="1px">100</text><text x="207.76024999999998" y="0" dx="0em" dy="0.95em" style="text-anchor: middle; visibility: inherit; font-family: Roboto, sans-serif; font-size: 12px; font-weight: 200;" fill="rgb(255, 255, 255)" stroke="none" stroke-width="1px">150</text><text x="259.7003125" y="0" dx="0em" dy="0.95em" style="text-anchor: middle; visibility: inherit; font-family: Roboto, sans-serif; font-size: 12px; font-weight: 200;" fill="rgb(255, 255, 255)" stroke="none" stroke-width="1px">200</text><text x="311.640375" y="0" dx="0em" dy="0.95em" style="text-anchor: middle; visibility: inherit; font-family: Roboto, sans-serif; font-size: 12px; font-weight: 200;" fill="rgb(255, 255, 255)" stroke="none" stroke-width="1px">250</text><text x="363.5804375" y="0" dx="0em" dy="0.95em" style="text-anchor: middle; visibility: inherit; font-family: Roboto, sans-serif; font-size: 12px; font-weight: 200;" fill="rgb(255, 255, 255)" stroke="none" stroke-width="1px">300</text><text x="415.52049999999997" y="0" dx="0em" dy="0.95em" style="text-anchor: middle; visibility: inherit; font-family: Roboto, sans-serif; font-size: 12px; font-weight: 200;" fill="rgb(255, 255, 255)" stroke="none" stroke-width="1px">350</text><text x="467.46056250000004" y="0" dx="0em" dy="0.95em" style="text-anchor: middle; visibility: inherit; font-family: Roboto, sans-serif; font-size: 12px; font-weight: 200;" fill="rgb(255, 255, 255)" stroke="none" stroke-width="1px">400</text><text x="519.400625" y="0" dx="0em" dy="0.95em" style="text-anchor: middle; visibility: inherit; font-family: Roboto, sans-serif; font-size: 12px; font-weight: 200;" fill="rgb(255, 255, 255)" stroke="none" stroke-width="1px">450</text><text x="571.3406875000001" y="0" dx="0em" dy="0.95em" style="text-anchor: middle; visibility: inherit; font-family: Roboto, sans-serif; font-size: 12px; font-weight: 200;" fill="rgb(255, 255, 255)" stroke="none" stroke-width="1px">500</text><text x="623.28075" y="0" dx="0em" dy="0.95em" style="text-anchor: middle; visibility: inherit; font-family: Roboto, sans-serif; font-size: 12px; font-weight: 200;" fill="rgb(255, 255, 255)" stroke="none" stroke-width="1px">550</text><text x="675.2208125000001" y="0" dx="0em" dy="0.95em" style="text-anchor: middle; visibility: inherit; font-family: Roboto, sans-serif; font-size: 12px; font-weight: 200;" fill="rgb(255, 255, 255)" stroke="none" stroke-width="1px">600</text><text x="727.160875" y="0" dx="0em" dy="0.95em" style="text-anchor: middle; visibility: hidden; font-family: Roboto, sans-serif; font-size: 12px; font-weight: 200;" fill="rgb(255, 255, 255)" stroke="none" stroke-width="1px">650</text></g><line x1="0" y1="0" x2="727.160875" y2="0" fill="rgb(0, 0, 0)" stroke="rgb(204, 204, 204)" stroke-width="1px"></line></g></g></g></g></svg>